<?xml version="1.0" encoding="iso-8859-1"?>
<!-- Generator: Adobe Illustrator 16.0.0, SVG Export Plug-In . SVG Version: 6.00 Build 0)  -->
<!DOCTYPE svg PUBLIC "-//W3C//DTD SVG 1.1//EN" "http://www.w3.org/Graphics/SVG/1.1/DTD/svg11.dtd">
<svg version="1.1" id="Layer_1" xmlns="http://www.w3.org/2000/svg" xmlns:xlink="http://www.w3.org/1999/xlink" x="0px" y="0px"
	 width="163.337px" height="263.006px" viewBox="0 0 163.337 263.006" style="enable-background:new 0 0 163.337 263.006;"
	 xml:space="preserve">
<g id="g3951" transform="matrix(0.1546714,0,0,0.1546714,1008.4746,-41.178868)">
	<g id="g3006">
		
			<path id="path3018" style="fill:#010101;" d="
			M-6516.832,1966.656l-3.295-1700.421l1054.708,1.989l1.32,1697.757L-6516.832,1966.656z M-6138.729,549.757
			c-37.725-10.285-36.81,27.181-9.187,28.576c30.951,2.664,44.19-50.075,29.423-70.866
			C-6118.493,507.467-6131.354,547.199-6138.729,549.757z M-6383.49,761.572l-45.301,20.211l-0.177,33.817
			C-6410.078,800.573-6395.316,782.25-6383.49,761.572z M-6074.291,1777.653c-8.915-4.495-19.667-14.162-18.013-15.86
			c0.821-0.846,5.645,0.682,10.026,2.652c35.401,14.919,62.885,13.953,105.1-1.364c3.195-1.162,7.962,4.925,6.188,8.277
			C-5989.686,1799.006-6050.178,1789.176-6074.291,1777.653z M-6092.954,1736.165c-8.132-12.211,2.652-2.955,6.27,0.505
			c26.19,24.352,61.68,32.611,92.144,9.654c1.415-1.566,1.604-3.031,1.188-4.129c-0.865-2.241-0.884,0.152-13.903,4.672
			c-29.239,10.942-53.882,1.951-77.912-16.435c-9.9-7.634-14.497-11.384-14.497-13.385c0-1.831,1.85-2.974,5.177-2.399
			c2.064,0.354,7.816,1.553,12.034,1.901c7.312,0.594,6.75,0.284,14.244-3.176c16.025-7.393,30.786-10.096,47.524-7.097
			c3.877,0.695,8.751,1.976,9.414,1.762c3.75-1.257-1.78-6.194-15.974-17.445c-2.791-2.216-6.264-4.11-7.419-6.03
			c-1.787-2.986,0.158-3.776,2.185-3.75c5.834,0.07,32.049,21.985,41.033,34.991c2.734,3.952,4.622,4.375,4.635,8.492
			c-0.524,4.268-1.212,8.359,3.416,14.345c3.315,4.293,6.522,11.194,6.547,11.522c0.038,0.379-0.656,2.538-3.693,0.537
			c-1.383-0.259-2.052-1.736-4.59-1.37c-2.204,0.316-5.79,2.052-9.729,3.915C-6031.59,1776.864-6065.419,1765.334-6092.954,1736.165
			z M-6012.497,1734.51c0.738,0.076-2.532-13.505-6.232-17.508c-7.292-7.892-18.417-9.332-25.135-1.25
			c-3.782,4.546-7.937,17.218-7.937,17.218s5.891,1.73,7.532,1.73c0.234-2.841,0.253-10.778,6.1-15.431
			c2.879-2.267,9.079-2.197,11.491-0.316c4.799,2.355,6.819,11.876,6.882,15.576
			C-6017.176,1735.344-6011.14,1734.605-6012.497,1734.51L-6012.497,1734.51z M-6056.902,1714.95
			c-5.177,2.304-11.908,3.864-13.455,7.33c-2.033,4.571,5.152,5.954,8.902,7.494c5.171,2.494,5.285,1.579,6.958-2.406
			c1.048-2.494,2.424-5.739,3.744-8.726C-6046.882,1711.162-6050.746,1712.198-6056.902,1714.95z M-6000.861,1727.944
			c2.98-2.98,3.542-4.95,0.877-8.334c-1.199-1.528-4.634-3.087-8.372-4.344c-4.798-1.616-6.895-3.58-3.883,2.923l4.3,9.288
			C-6005.723,1731.922-6003.784,1730.741-6000.861,1727.944z M-6490.913,1410.802c1.818,0,19.895-5.929,26.329-8.789
			c6.377-2.437,7.141-2.368,4.603-5.897c-0.947-1.32-1.717-5.051-1.256-9.136l0.48-5.695c-11.144-2.273-27.774,3.896-33.501,11.693
			C-6498.326,1397.953-6497.909,1409.034-6490.913,1410.802z M-6493.186,1438.602c3.384,3.384,4.325,3.504,14.478-0.265
			c3.561-2.38,10.999-5.354,16.22-5.695c12.242-3.258,12.242-1.97,8.776-9.812c-1.597-3.605-2.115-6.585-1.616-9.919
			c0.587-3.952,1.061-4.496-1.168-5.19c-5.853-1.831-33.084,8.353-37.965,16.277
			C-6497.896,1429.573-6497.436,1434.346-6493.186,1438.602z M-5853.654,1679.176c-1.781,2.652-4.862,7.368-6.163,10.557
			c-2.235,5.506-0.877,6.56,0.013,17.35c0.518,6.257,0.657,15.974,0.669,21.202c0.038,10.001-0.107,13.101,2.948,13.688
			c2.696,0.518,3.934-1.503,5.222-6.718c0.644-2.601,2.191-5.323,2.664-6.97c1.92-11.251,5.475-30.029,13.581-37.927
			c1.13-0.928,4.426-1.515,10.412-1.591c7.324-0.088,9.666-0.297,11.933-1.995c12.823-11.213,2.715-25.71-8.726-26.726
			C-5834.341,1658.89-5852.6,1677.188-5853.654,1679.176z M-5802.766,1674.473c0.815,12.905-12.046,21.694-25.116,18.708
			c-5.304-1.332-6.895-0.12-10.443,7.438c-7.709,20.747-10.758,41.551-12.804,55.164c-0.884,12.249-5.379,44.121-2.122,54.273
			c37.258,46.053,76.485,93.59,119.432,140.981l255.456,0.354l1.547-300.739l-74.199-70.172l0.145-111.237
			c-79.415,37.422-158.603,75.362-237.873,113.105c17.274,55.404-41.299,67.021-54.141,29.889
			c-11.112,10.191-20.229,65.197-16.131,67.911c0,0,1.471,1.982,3.933-2.393c4.053-7.198,9.357-12.508,15.021-16.018
			C-5823.55,1651.516-5803.896,1656.56-5802.766,1674.473L-5802.766,1674.473z M-6006.083,1668.86
			c-12.539-9.963-5.828-25.161,4.59-29.713c5.518-2.418,14.376-2.09,24.125,1.351c8.568,3.933,13.682,3.384,22.458,2.298
			c5.828-0.644,4.742,11.548-1.338,14.692c-4.287,2.216-14.118,1.168-26.07-5.638c-20.627-11.744-29.688,3.479-16.908,17.218
			C-5992.148,1676.645-6004.277,1670.577-6006.083,1668.86L-6006.083,1668.86z M-6430.711,1486.713
			c11.024-7.09,6.453-19.611-3.82-21.7c-13.833,0.29-17.351,16.169-7.457,21.656c0,1.926-4.919,0.354-7.577-1.635
			c-4.123-3.087-0.36-15.159-4.199-15.646c-2.923,0.051-31.487,10.153-34.568,12.173c-12.83,7.28-0.789,23.721,6.661,21.84
			C-6466.201,1499.498-6445.176,1496.025-6430.711,1486.713z M-6494.55,1463.225c0.265,7.318,2.317,10.576,7.122,10.639
			c10.051-1.743,19.402-6.535,28.784-9.572c7.331-2.399,10.304-5.102,4.723-9.685c-1.692-1.938-3.194-4.716-2.374-9.995
			c1.919-6.042,0.448-6.345-2.115-6.636c-2.551-0.297-8.385,2.153-23.349,7.899c-7.873,3.018-9.389,4.331-11.428,8.663
			C-6494.102,1457.852-6494.67,1459.885-6494.55,1463.225z M-6411.265,1557.718c1.73-2.033,5.569-14.793,5.569-17.95
			c-0.783-5.253-4.691-6.44-8.145-3.05c-4.205,3.763-3.081,9.452-5.568,13.808c-0.872,1.515-1.793,3.618-1.541,4.464
			C-6419.592,1559.58-6413.948,1560.42-6411.265,1557.718z M-6378.509,1488.247c128.019-136.34,207.327-325.003,68.593-585.201
			c-15.557-6.623-20.362,18.664-21.852,19.699l-17.723,15.444c93.912,161.937,77.597,348.219-37.226,480.683l0.126,8.404
			c0.271,18.5,5.594,17.698,13.379,9.042c8.24-8.694,2.728-1.61-0.638,1.97c-2.904,3.075-7.526,9.193-8.75,10.791
			C-6381.097,1460.176-6374.108,1480.86-6378.509,1488.247z M-6387,1447.277c-2.26-6.314-4.761-26.575-3.656-27.048
			c0,0-4.533-29.643-8.031-34.985c-2.93-4.464-10.083-7.728-18.07-8.246c-6.825-0.436-7.387-0.316-8.845,1.907
			c-2.494,3.82-0.783,23.071,1.755,30.129c2.854,8.284,1.174,12.779-1.143,20.987c-0.808,2.968-1.099,3.176,0.366,3.384
			c6.39-0.448,8.511-8.284,11.037-5.948c0.852,0.853-1.364,7.28-4.344,13.777c-3.145,6.857-4.079,16.296-0.341,27.913
			c2.09,6.503,1.2,8.562-0.063,12.482c-0.846,2.62-2.324,10.658-2.374,18.651c2.98,10.026,1.484,14.509-0.265,17.824
			c-3.813,8.505-6.756,20.027-4.71,26.499c0.903,2.841,3.252,0.41,4.976-4.451c2.684-9.61,5.821-11.744,13.707-11.744
			c5.746,0,6.289,2.008,8.189-0.562c4.312-5.834,14.85-26.499,15.052-32.264C-6379.695,1480.891-6379.494,1468.264-6387,1447.277z
			 M-6325.775,1543.79c3.473-1.32,8.826-8.682,8.833-11.213c0.006-2.797-21.461-23.67-30.401-29.429
			c-4.053-2.608-5.973-0.758-13.133,8.877c-6.364,8.562-7.197,8.637-6.017,10.285c1.42,1.983,23.292,16.201,30.559,20.242
			C-6333.428,1543.947-6329.172,1545.077-6325.775,1543.79z M-6285.55,1506.639c-3.201-2.462-28.892-30.938-36.519-32.352
			c-2.898-0.543-12.192,10.039-12.192,12.438c0,1.654,16.043,17.982,27.408,27.901c3.251,2.835,6.838,5.158,7.968,5.158
			C-6295.268,1517.928-6286.011,1510.453-6285.55,1506.639z M-6258.256,1479.774c0-1.692-2.835-5.165-9.749-11.958
			c-17.622-17.3-27.433-25.224-30.521-25.192c-3.378,1.118-9.477,11.384-9.843,14.958c1.149,2.14,30.622,28.867,34.435,31.462
			C-6269.223,1493.588-6258.913,1482.988-6258.256,1479.774z M-6230.62,1452.176c0.757-2.544-0.714-4.716-4.451-8.284
			c-2.64-2.538-12.041-11.737-20.88-20.444c-18.531-18.26-18.569-18.278-24.523-9.749c-6.13,8.789-6.099,8.858,11.965,26.48
			c19.263,18.79,23.778,22.603,26.758,22.603C-6237.18,1460.675-6232.199,1457.158-6230.62,1452.176z M-6437.17,1435.691
			c-3.227-0.966-6.194-0.398-8.726,1.629c-13.657,11.611,5.708,26.55,13.675,17.23
			C-6426.917,1449.316-6427.138,1438.071-6437.17,1435.691z M-6202.259,1423.537c0-1.945-3.978-6.301-17.748-19.447
			c-34.076-32.529-32.541-31.291-36.317-29.271c-2.361,1.263-6.933,10.007-6.933,13.253c0,2.437,3.271,5.809,28.526,29.391
			c14.806,13.827,19.194,17.319,21.745,17.319C-6208.951,1432.786-6202.429,1428.461-6202.259,1423.537z M-6436.305,1424.761
			c6.693-2.911,7.943-10.153,4.142-15.873c-7.273-6.415-17.395-1.117-17.559,7.154
			C-6448.465,1423.789-6441.893,1427.06-6436.305,1424.761z M-6174.257,1396.223c0-3.883-58.346-58.44-62.494-58.44
			c-2.822,0-4.843,2.285-7.488,8.46c-2.298,5.36-2.071,8.53,0.827,11.314c4.211,4.053,15.462,14.421,26.158,24.1
			c6.32,5.727,13.594,12.564,16.15,15.197c6.005,6.156,12.609,10.929,15.141,10.929
			C-6182.351,1405.669-6177.325,1402.815-6174.257,1396.223z M-6439.361,1389.19c0.057-2.191-0.505-4.426-2.071-6.093
			c-4.003-4.262-11.454-2.02-13.322,3.631C-6456.459,1400.011-6439.904,1400.592-6439.361,1389.19z M-6396.149,964.542l11.409-34.89
			l34.865-0.896l4.893-34.682l35.875-5.165l0.581-35.837l34.322-4.685l-2.122-38.375l31.834-7.532l-1.579-35.528l28.924-8.871
			l-1.162-30.925l4.976-3.896l-12.514-12.722l-10.771,3.504l-0.196,31.777l-28.886,9.3l3.043,35.162l-29.202,6.661l-0.366,38.236
			l-33.545,3.763l-2.399,33.741l-32.725,6.44l-4.874,33.046l-31.759,2.159l-9.691,29.05l-20.981,0.24v19.44L-6396.149,964.542z
			 M-6016.81,1588.744c-1.092-2.614,1.762-2.222,6.75,0.922c5.215,3.296,12.811,6.042,18.209,6.055
			c2.254,0,10.298-1.433,17.88-3.188c9.054-3.327,17.085-3.523,26.5-1.49c6.989,0.947,14.036,1.705,15.652,1.692
			c4.672,0.65,12.596-5.121,14.717-8.745c5.752-9.843,4.382,8.037,4.407,10.077c0.107,9.155,1.244,19.68-5.31,14.787
			c-3.883-2.008-10.658-3.788-16.062-0.177c-5.449,3.637-9.95,4.407-16.333,0.574c-5.241-2.065-8.006-2.507-11.92,1.136
			c-4.369,4.06-14.958,2.608-20.634,0.751c-9.749-1.623-15.21-3.037-21.745,2.128c-3.485,2.001-4.388,0.511-7.008-7.217
			C-6014.334,1598.322-6016.405,1589.71-6016.81,1588.744z M-5991.99,1582.291c-0.612-1.004,4.616-6.131,8.151-7.955
			c10.374-5.367,30.988-5.127,45.725,0.316c7.684,2.841,8.871,7.697,1.396,6.674c-15.558-3.264-35.067-5.948-50.094,1.206
			C-5987.993,1583.162-5991.7,1582.758-5991.99,1582.291z M-5978.832,1557.996c-10.632-3.946-15.854-8.151-15.854-9.49
			c0-1.439,2.279-1.174,10.645,1.105c11.39,4.23,24.857,6.453,36.096,2.519c8.082-2.986,12.116-4.88,12.116-3.081
			c0,1.9-3.34,6.851-8.896,9.698C-5955.774,1563.255-5970.359,1561.115-5978.832,1557.996z M-5747.961,1528.453l7.892-1.086
			l-2.746-32.933l29.075-8.631l-2.04-32.756l30.988-10.664l-1.85-36.873l32.2-6.345l4.199-32.264l30.401-2.166l6.301-35.105
			l32.655-1.124l6.725-29.182l21.726-0.133l-0.095-16.391l-33.849,0.107l-7.166,31.582l-31.941,0.922l-6.774,34.688l-33.495-0.246
			l-4.287,37.39l-31.493,5.165l0.019,40.263l-30.375,7.886l2.349,34.423l-30.344,11.074l3.428,32.857L-5747.961,1528.453z
			 M-5544.979,755.58c-4.344,3.094-5.985,9.224-4.641,14.219c4.274,11.295,19.333,7.772,21.114-0.448
			c0.896-3.561-1.472-8.94-5.582-10.108c-0.72-0.208-3.276,0.031-4.609-1.339c-0.959-0.991,5.026-4.06,8.562-2.898
			c4.407,1.458,8.006,7.286,8.012,12.331c0,1.957-0.549,4.855,0.158,5.828c7.286-0.177,15.626-4.186,23.437-6.345
			c13.189-3.656,17.963-11.226,15.04-20.091c-2.437-7.387-10.001-10.317-19.933-6.579
			C-5517.053,745.282-5533.059,747.732-5544.979,755.58L-5544.979,755.58z M-6108.297,1564.227
			c44.683-31.392,70.993-49.33,128.335-52.424c-20.457-8.416-23.797-19.472-29.549-30.054
			c-71.043,6.718-108.768,29.403-142.515,50.58C-6138.079,1538.896-6123.519,1546.53-6108.297,1564.227z M-5859.242,1520.687
			c-21.669-15.311-47.455-24.567-74.193-31.714l-20.507,21.24C-5955.136,1509.455-5894.581,1510.819-5859.242,1520.687z
			 M-5651.209,1319.201c-139.743-214.733-45.876-403.686,51.294-524.084c3.119-3.952,3.883-4.148,3.176-7.292
			c-0.929-4.142-2.071-25.009-1.357-37.068c-179.615,178.005-184.218,409.911-71.561,593.952
			C-5661.602,1337.511-5645.362,1327.927-5651.209,1319.201z M-5630.26,1300.828c-22.938-38.198-145.116-245.039,41.501-475.796
			c0,0-0.638-11.763-2.039-16.189c-2.501-7.917-6.396-11.112-6.396-11.112c-78.379,117.652-192.287,264.877-50.018,520.548
			L-5630.26,1300.828z M-5737.108,911.531c2.797-2.279,6.85-10.557,6.85-13.972c0-3.043-2.197-5.594-23.247-26.954
			c-28.065-28.469-32.908-32.825-36.5-32.825c-3.391,0-12.255,8.404-12.255,11.624c0,1.541,8.258,10.437,27.755,29.896
			C-5738.339,915.402-5740.044,913.931-5737.108,911.531z M-5711.253,859.089c0-1.711-2.602-5.114-8.751-11.447
			c-16.227-16.694-39.36-37.864-41.394-37.864c-2.588,0-9.666,5.733-11.529,9.332c-1.307,2.525-1.282,3.106,0.252,5.499
			c2.867,4.47,39.063,38.824,49.349,47.467C-5717.144,877.752-5711.556,863.401-5711.253,859.089z M-5697.268,837.786
			c2.866-1.534,8.302-11.699,7.646-14.301c-0.303-1.212-9.483-11.094-20.399-21.953c-21.6-21.492-22.85-22.269-28.235-17.451
			c-4.875,4.357-7.924,8.726-7.324,10.475c0.732,2.14,33.059,35.004,39.663,40.326
			C-5700.696,839.087-5700.084,839.295-5697.268,837.786z M-5532.484,836.195c10.153-9.742-1.351-20.432-9.71-15.5
			c-3.555,2.197-5.67,6.996-4.584,10.178C-5544.973,836.157-5537.8,839.042-5532.484,836.195z M-5512.387,833.707
			c17.18-4.508,25.406-7.526,28.999-12.88c2.487-3.7,2.778-5.985-0.025-12.028c-2.589-5.575-5.606-7.28-16.365-1.383
			c-7.387,4.047-23.848,5.985-29.599,9.389c-2.298,1.982-1.181,1.957,0.669,3.138c4.142,2.626,6.168,4.42,5.714,7.898
			C-5523.973,835.418-5523.19,836.58-5512.387,833.707z M-5530.571,806.779c8.34-4.268,6.655-14.566-2.658-18.651
			c-12.299-3.239-20.217,11.561-10.153,18.771C-5540.686,808.787-5533.841,808.452-5530.571,806.779z M-5502.854,802.605
			c12.06-4.129,16.7-7.368,20.179-14.035c2.753-5.278,1.579-7.634,1.218-12.748c-0.556-7.741-4.444-6.857-15.689-2.803
			c-5.487,2.122-31.746,9.509-32.112,12.198c12.679,7.248,9.439,11.068,9.547,20.312
			C-5519.048,807.631-5513.101,806.122-5502.854,802.605z M-5667.258,790.281c0-3.498-33.697-36.5-37.264-36.5
			c-5.569,0-13.537,8.65-12.35,13.398c0.543,2.153,32.144,33.956,36.083,36.317
			C-5675.265,806.722-5667.612,795.547-5667.258,790.281z M-5647.888,769.704c1.452-1.143,4.028-4.098,5.727-6.566
			c3.631-5.278,3.372-8.22-0.966-11.005c-1.591-1.017-8.656-7.412-15.709-14.206c-7.046-6.794-13.72-12.691-14.825-13.101
			c-5.815-0.77-16.315,8.53-15.229,13.297c0.632,2.488,26.455,27.926,32.22,31.727
			C-5652.945,772.306-5651.152,772.274-5647.888,769.704z M-5602.258,720.545c0-0.941-5.865-4.71-15.248-9.812
			c-28.696-15.595-29.188-15.702-38.16-8.397c-3.075,2.507-5.588,5.361-5.588,6.339c0,1.004,6.219,7.671,14.149,15.178
			c16.454,15.563,20.501,18.929,22.792,18.929C-5619.564,739.297-5602.984,724.864-5602.258,720.545z M-5562.083,705.884
			c3.536-4.237,7.52-18.941,5.625-21.903c-1.736-1.742-6.207-1.471-8.353,0.467c-2.216,2.008-7.678,20.476-6.838,22.667
			C-5570.79,709.344-5565.158,708.302-5562.083,705.884z M-5875.589,1331.74c2.715-0.36,8.038-3.681,15.772-10.323
			c8.265-7.097,34.448-22.9,37.295-29.252c1.27-3.611,0.348-8.795-2.386-9.187c-2.078-0.297-2.519,1.288-19.926,13.84
			c-11.744,8.467-32.384,23.595-35.483,26.802C-5881.663,1327.055-5878.619,1331.38-5875.589,1331.74z M-5878.026,1432.887
			c17.925-12.438,32.447-25.318,55.814-39.72c1.806-2.38,2.084-5.922,0.979-8.82c-1.357-3.58-3.245-2.166-10.316,2.747
			c-17.218,11.605-34.94,25.268-49.778,35.408c-4.754,3.22-8.764,5-7.76,6.819
			C-5887.755,1431.719-5880.4,1432.452-5878.026,1432.887z M-5860.594,1440.515c11.788-9.641,25.894-18.847,38.483-28.172
			c1.762-1.755,2.216-7.69,0.411-10.121c-1.427-1.919-0.246-1.566-3.731,0.417c-5.096,2.892-35.585,23.677-41.268,28.374
			c-3.308,2.74-6.061,4.11-5.246,5.064c3.813,2.45,7.86,3.965,11.346,4.439H-5860.594z M-5845.781,1447.984
			c2.443-1.629,23.393-15.027,25.085-16.807c1.926-2.04,1.363-11.156-0.512-11.87c-5.291,4.205-33.242,21.233-33.292,23.974
			C-5851.653,1445.837-5847.896,1448.192-5845.781,1447.984z M-5823.374,1449.853c3.22-2.948,3.864-3.447,3.927-6.756
			c0.126-5.986-1.357-5.733-9.888,0.366c-5.96,3.858-9.59,6.566-8.523,8.877C-5833.621,1458.97-5827.61,1453.742-5823.374,1449.853z
			 M-5821.062,1462.083c1.673-0.619,1.686-1.484,1.445-3.574c-0.265-2.323-0.612-2.229-3.138-2.229
			C-5829.542,1456.533-5823.424,1462.682-5821.062,1462.083L-5821.062,1462.083z M-5902.649,1428.575
			c3.074-10.165,7.394-18.209,14.446-25.836c28.185-24.977,19.573-55.726,1.774-80.754c23.033-32.244,46.028-66.408,65.815-97.706
			l-0.069-50.883l2.658,0.278c-0.916,111.047,4.147,293.125,4.147,293.125l22.907,17.47l-3.087,1.521
			C-5790.289,1485.204-5860.726,1441.108-5902.649,1428.575L-5902.649,1428.575z M-5881.953,1415.897
			c19.497-14.711,38.464-26.284,57.797-41.955c2.058-1.692,3.271-1.787,3.327-5.632c0.107-7.33-1.351-7.406-8.58-2.235
			c-3.195,2.292-14.926,10.487-26.051,18.001c-11.618,7.842-22.37,14.812-24.536,17.319c-10.878,12.609-14.9,18.55-13.783,20.356
			C-5892.611,1423.638-5890.407,1421.592-5881.953,1415.897z M-5860.688,1380.237c10.014-6.598,33.987-23.235,36.172-25.287
			c3.795-3.574,4.458-9.262,1.029-9.919c-1.673-0.316-20.229,12.053-35.906,23.942c-7.634,5.783-9.332,7.122-9.332,12.577
			C-5868.726,1384.852-5866.73,1384.214-5860.688,1380.237z M-5850.7,1354.325c30.717-21.839,29.927-19.996,29.264-28.128
			c-0.227-2.747-0.833-3.997-2.058-4.224c-0.954-0.183-6.384,3.719-12.495,8.019c-6.112,4.3-13.398,10.077-17.06,12.615
			c-10.67,7.406-14.206,9.401-14.206,13.644c0,4.186,1.124,6.825,2.98,6.825C-5863.58,1363.076-5857.468,1359.136-5850.7,1354.325z
			 M-5855.106,1337.41c14.149-9.995,29.738-21.271,31.859-23.948c2.582-3.252,2.121-10.329-1.175-10.329
			c-14.193,9.49-31.291,21.959-43.3,31.809c-1.553,1.37-3.529,2.683-4.148,4.47c-0.12,2.311,2.785,5.367,3.946,5.461
			C-5865.581,1344.886-5861.982,1342.265-5855.106,1337.41z M-5864.325,1303.593c10.81-7.324,20.634-16.018,31.361-23.405
			c8.062-5.512,10.342-7.223,9.862-14.156c-0.271-4.003-3.794-1.698-17.445,7.394c-10.008,6.667-14.61,9.3-18.159,13.865
			c-2.488,5.758-10.696,11.156-11.131,17.742C-5869.85,1307.47-5868.227,1306.315-5864.325,1303.593z M-5831.152,1259.599
			c8.297-5.493,9.086-5.619,8.183-12.925c-1.13-9.136-2.064-8.593-9.994,3.517c-5.216,7.962-7.002,10.266-6.207,11.75
			C-5837.819,1264.467-5836.329,1263.027-5831.152,1259.599L-5831.152,1259.599z M-5861.376,1192.363
			c-0.878-4.066-2.128-3.182-6.302,0.486c-7.684,6.743-8.896,11.63-4.11,14.194c2.538,1.357,4.508,1.206,6.023-2.128
			C-5862.507,1197.73-5861.598,1195.192-5861.376,1192.363z M-5904.424,1256.246c-0.991-3.712-5.524-8.77-8.984-10.557
			c-3.422-1.768-5.5-1.439-8.77,2.721c-3.012,3.833-1.61,6.112,2.917,11.838c3.315,4.199,4.666,5.531,7.273,5.531
			C-5908.818,1264.542-5903.761,1260.281-5904.424,1256.246z M-6071.052,1416.434c-2.185-4.243-6.85-8.713-8.984-7.962
			c-2.26,0.789-4.464,4.035-4.495,6.074c0.934,4.161,4.451,6.977,7.153,7.059
			C-6072.289,1420.885-6069.195,1420.001-6071.052,1416.434z M-6050.733,1409.975c-4.382-4.628-13.057-14.837-14.478-14.837
			c-2.223,0-7.52,5.556-7.52,7.842c0,2.702,7.898,13.758,10.531,14.642C-6055.558,1417.008-6043.359,1417.753-6050.733,1409.975z
			 M-6025.655,1411.275c-0.455-2.235-25.154-28.494-26.979-28.494c-2.355,0-7.008,5.165-7.008,7.552
			c0,1.919,7.975,12.318,15.349,20.021c3.668,3.833,3.997,4.388,8.492,3.687
			C-6030.896,1413.271-6024.506,1414.331-6025.655,1411.275z M-5982.008,1405.41c0-5.297-2.772-8.208-13.922-20.273
			c-4.054-4.382-10.885-11.99-15.197-16.908c-8.334-9.515-11.902-12.432-15.229-12.438c-2.621-0.013-6.642,4.249-6.642,6.958
			c0,1.743,20.526,25.274,39.12,45.257c4.123,4.432,5.979,5.72,9.932,3.612C-5981.673,1410.069-5982.008,1407.437-5982.008,1405.41z
			 M-6014.145,1342.36c-4.173,3.428-5.727,4.83-5.746,7.122c-0.032,3.485,35.401,42.416,38.559,42.416
			c1.856,0,1.572-0.252,2.664-4.438c2.197-12.703-1.256-16.435-10.437-24.82C-5995.261,1357.021-6007.673,1337.682-6014.145,1342.36
			z M-5951.657,1316.316c-9.888-11.826-15.362-17.268-17.376-17.268c-1.37,0-3.428,1.326-5.645,3.782
			c-3.7,3.498-3.346,3.372-1.01,7.532c1.218,2.166,4.622,6.421,7.563,9.458c5.449,5.626,8.24,7.412,10.866,4.71
			C-5954.935,1322.143-5949.195,1319.327-5951.657,1316.316z M-5956.822,1286.805c-2.412-0.025-6.465,4.319-6.465,6.686
			c0,2.001,8.025,12.053,13.625,17.066c4.521,4.06,6.654,5.146,9.805,2.475c2.355-3.422,1.825-6.547,0.354-9.155
			C-5943.506,1299.312-5952.264,1287.007-5956.822,1286.805L-5956.822,1286.805z M-5929.022,1289.703
			c-0.063-3.447-10.184-16.612-13.392-17.918c-2.665,0-8.315,6.2-8.315,9.06c0,1.541,2.166,4.956,5.84,9.218
			c7.223,8.385,9.073,10.228,10.645,8.921C-5931.668,1296.838-5928.966,1293.081-5929.022,1289.703z M-5917.601,1274.878
			c0.669-2.885-1.124-5.859-5.165-10.942c-5.051-6.345-7.532-6.775-12.299-1.856c-1.755,1.812-2.576,3.397-2.576,4.281
			c0,2.418,10.601,15.892,12.571,15.892C-5920.518,1281.691-5919.129,1278.376-5917.601,1274.878z M-5936.252,1308.253
			c-0.947,4.344-2.778,7.185-6.977,9.206c-32.371,23.323-31.323,61.326-38.23,96.418c-52.417-0.524-135.28,20.974-134.768,22.104
			l278.552-281.002c0,0,3.454,0.859,1.338,3.321c-22.546,16.201-21.139,47.713-35.963,63.492
			C-5897.074,1251.732-5920.095,1277.7-5936.252,1308.253z M-6087.442,1423.025c0.455-3.176-2.468-4.041-5.025-1.484
			c-2.5,2.507-1.509,4.458,2.052,4.047C-6088.541,1425.374-6087.669,1424.623-6087.442,1423.025z M-6001.6,1411.219
			c1.029-2.671-1.414-5.171-16.34-21.739c-15.116-16.769-18.544-20.697-21.158-20.697c-2.216,0-7.633,5.493-7.633,7.741
			c0,1.029,2.374,4.432,5.278,7.551c2.904,3.119,8.422,9.256,12.255,13.625c6.598,7.532,9.742,11.163,12.255,12.918
			c2.463,1.724,4.332,1.635,8.277,1.635C-6003.241,1412.254-6002.061,1412.431-6001.6,1411.219z M-5975.776,1358.486
			c1.029-3.302,2.494-6.213,2.5-7.45c0.019-2.305-19.062-21.751-22.288-23.841c-3.864-2.494-11.125,5.657-9.313,10.418
			c0.499,1.313,6.175,7.993,12.609,14.837c8.183,8.7,12.28,12.798,13.612,12.596
			C-5977.298,1364.837-5977.115,1362.785-5975.776,1358.486z M-5967.795,1338.048c1.395-2.052,2.538-4.761,2.538-6.023
			c0-1.427-3.195-5.291-7.766-10.424c-8.505-9.565-10.689-10.67-15.349-6.207c-4.641,4.439-3.068,6.497,5.089,15.74
			C-5973.067,1342.701-5971.912,1344.109-5967.795,1338.048z M-5894.846,1246.706c3.169-3.776,3.245-5.645,0.334-9.092
			c-1.238-1.465-3.031-3.605-3.984-4.748c-2.627-3.138-6.087-2.62-9.66,1.452c-1.705,1.945-2.835,3.902-2.829,4.571
			c0,0.669,1.837,3.353,4.079,5.967C-5901.873,1250.728-5898.767,1251.365-5894.846,1246.706z M-5883.67,1232.292
			c2.16-3.296,1.187-6.914-2.854-10.607c-3.826-3.491-5.72-3.637-8.41-0.65c-3.593,3.984-3.012,5.323,0.846,9.591
			C-5889.726,1235.455-5886.221,1236.181-5883.67,1232.292z M-5874.711,1220.327c2.986-2.986,2.923-5.537,0.246-8.94
			c-2.5-3.182-5.095-4.047-7.734-2.639c-4.59,2.456-4.104,6.674,0.41,11.428C-5879.042,1223.067-5877.761,1223.37-5874.711,1220.327
			z M-6087.846,1819.722c57.051,6.39,118.333,10.854,226.375-5.929l0.543-36.671c-33.697,26.284-77.938,8.271-80.482-21.985
			c-0.303-26.96,6.901-58.055,12.962-80.229c4.521-16.479,5.809-22.837,1.579-26.044c-9.319-5.253-25.861-5.916-30.085-16.87
			c-2.027-5.777-2.216-11.958,0.745-7.558c1.358,2.027,12.116,7.027,20.52,8.902c14.629,3.271,16.984,4.356,18.645,10.367
			c1.048,3.795-1.364,16.889-5.215,28.703c-2.766,8.46-5.986,22.042-5.986,24.668c0,2.86,2.248,3.327,4.761,2.532
			c1.08-0.341,6.226-5.487,9.458-8.378c14.055-12.539,18.14-12.167,6.131,0.101c-4.773,4.881-11.358,11.611-11.358,12.123
			c0,2.595,2.437,2.298,7.829,0.354c8.315-3.005,27.8-2.639,36.469,1.718c10.784,5.411,11.238,5.171,10.992-11.239
			c-1.938-30.679-6.939-66.971-16.934-95.294c-15.242-43.193-46.899-83.279-93.666-81.473
			c-57.014,2.968-91.411,25.672-130.197,52.866c23.418,51.969-10.431,91.777-22.698,97.031
			c-1.181,0.505,15.355,52.821,22.414,79.402C-6098.63,1770.967-6087.846,1819.722-6087.846,1819.722z M-5845.156,566.267
			c-1.326-3.422-33.04-106.766-41.911-149.991c-85.735-4.982-149.132-12.104-224.632,9.332c0,0-1.629,29.113-0.846,30.527
			c0.771,3.599,3.372,3.51,5.493,2.336c34.871-19.162,72.659-10.531,75.286,36.721c0.998,18.038-5.063,30.755-6.175,47.871
			c-0.959,14.951-12.716,34.871-5.594,46.223c0.916,1.402,5.935,4.148,12.805,7.09c12.804,5.48,17.817,10.512,18.752,18.885
			c1.396,5.771-2.134,9.654-3.201,3.725c-0.676-3.77-1.338-7.084-17.142-12.495c-15.406-5.278-19.56-11.39-21.094-14.61
			c-2.115-4.445-1.717-7.589,0.265-14.667c4.211-15.065,8.372-30.432,7.987-37.687c-0.139-2.608-3.03-1.339-6.724,1.806
			c-4.697,3.997-24.782,17.218-25.35,16.656c-0.265-0.265,3.321-5.594,8.94-10.967c6.819-6.522,15.311-14.427,15.311-15.873
			c0-2.57-1.004-0.783-7.614,1.181c-11.529,3.176-24.807,2.721-33.741-1.225c-7.577-3.334-12.886-5.266-14.017-3.447
			c-2.803,46.028,4.035,93.47,23.342,130.481c17.3,33.627,53.25,75.734,107.315,66.289c55.865-9.761,110.208-54.697,108.263-54.747
			C-5890.287,622.479-5866.535,587.324-5845.156,566.267z M-6287.981,1822.784l-12.097-9.452
			c2.513,0.392-65.922-40.452-117.936-54.684c-3.435-0.739-6.812-2.374-6.837,1.692l-0.505,85.079l-76.637,71.826l1.352,35.048
			l162.593-0.789l107.935-158.249c0,0,5.209-0.934,5.777-1.9c-19.813-84.037-49.639-151.146-68.593-184.786
			c0.316,0.417-27.257,22.275-51.501-4.899c-13.606-15.248-5.253-42.031,7.652-51.843c-10.891-8.012-33.45-22.534-48.244-26.726
			c-3.081-0.751-7.665,5.468-9.167,11.1c-2.703,9.155-7.198,17.344-10.216,26.569c-3.315,7.709-6.509,8.877-11.459,6.711
			c-7.709-2.285-9.749-3.087-9.749-3.087l0.246,100.017C-6366.209,1684.935-6305.325,1737.522-6287.981,1822.784L-6287.981,1822.784
			z M-6042.103,753.945l17.527-19.036c-27.73-3.403-56.799-8.359-90.811-19.036
			C-6091.773,733.425-6067.036,744.291-6042.103,753.945z M-6138.42,700.398c30.906,10.304,70.014,34.334,118.851,25.287
			c-44.519-17.66-78.316-58.92-92.724-142.919c-3.145,16.309-9.66,50.208-19.908,53.882c-14.408-55.751-72.325-23.33-49.103,22.136
			c-61.799,39.941-129.269,63.081-193.278,94.189c0,0-9.635,29.568-57.582,70.077c-8.865-47.423,5.417-116.572-3.877-165.674
			l-75.172-70.986c1.155,13.518,0.631,21.903,0.025,37.738c2.064,2.759,4.912,4.205,7.81,5.929
			c4.855,273.583-1.673,544.035-1.616,792.528c-0.745,152.289,3.283,310.955,1.055,454.739l-2.81,5.203l0.12,34.366l76.75-73.082
			c0,0-3.567-51.862,0.455-91.487c48.439,9.755,93.615,32.516,134.118,57.481c5.102,1.414-23.936-99.771-132.868-144.618
			c0,0-1.067-31.342-1.061-99.903c0-66.144-1.036-73.139-2.5-74.219c-4.407,4.792-60.158,23.576-62.974,20.4
			c1.49,0.499-15.728-117.083-0.846-134.938l53.326,1.124c15.254,12.312,9.13-2.683,17.982-5.152
			c5.31-1.427,29.978,8.183,29.978,8.183c101.633-119.975,91.474-317.281,18.537-428.291
			c-18.689,15.172-38.552,35.736-57.292,44.569c-0.221-0.644-0.334-61.212-0.334-61.212
			c97.112-62.336,202.749-242.892,196.012-243.505c0,0,30.066,29.283,41.741,45.844l-95.869,138.847
			c21.966,44.216,44.171,84.308,58.586,123.189c1.951,5.259,7.955,5.108,9.471,10.645c1.288,4.729-4.483,11.295-3.688,16.517
			c20.229,77.369,24.819,159.474,4.862,233.851c-4.205,16.744,3.498,30.312,13.802,42.902c0.853,1.099-9.603-9.048-10.538-9.61
			c-3.586-2.153-9.559,5.398-10.815,14.932c0.82,5.84,3.99,6.863,8.189,11.598c7.4,6.15,36.791,35.092,49.74,48.313
			c11.498,11.737,14.465,12.268,22.219,3.94c2.185-2.04,4.457-4.818,6.572-6.548c0.398,0.644,3.265-2.342,4.237-3.296
			l173.125-168.976c20.109-19.63-172.872,177.304-172.872,177.304s-93.577,91.866-116.534,114.513
			c-23.708,23.399-26.916,28.513-27.863,30.25c-1.692,3.106,7.652,3.018,11.895,2.386c0.341-0.051-3.561,0.903-7.513,0.871
			c-24.372-5.442-32.674,21.499-48.036,26.922c-40.648,28.86-13.322,75.216,25.514,59.912l9.458-4.552
			c23.544,43.717,57.487,123.359,73.423,192.577l-6.421,2.968l-102.397,153.615h580.738
			c-41.722-41.526-77.199-92.516-113.339-130.677c-57.916,17.325-233.036,13.789-230.271,6.257c0,0-26.518-107.341-41.513-160.08
			c47.606-40.774,42.725-105.1-26.385-133.973c50.314-39.726,100.964-53.188,150.344-56.414c16.037,40.737,53.693,43.3,71.473,6.004
			c0.113-0.417,66.774,20.489,91.348,43.117c-36.443-3.77-72.432-11.03-108.894-12.767c32.093,12.672,64.773,45.775,75.241,83.626
			c5.127,13.518,12.969,58.15,15.04,58.314c0,0,12.161-51.552,21.593-48.717c24.056,50.195,65.524,12.438,48.055-27.541
			c61.256-29.239,130.178-61.894,186.535-89c16.441-24.801,56.881-71.895,59.533-72.104c0,0,74.39-426.119,74.371-568.564
			c-2.469-171.256,3.428-361.882-3.953-522.063l-0.069-46.04l-157.094,0.069l-112.152,164.917c0,0-0.846,2.614-0.827,3.75
			c15.305,66.541,34.947,123.17,65.759,184.647c42.523-32.118,78.354,20.772,46.469,51.476c-5.985,5.765-4.381,7.223,1.604,11.232
			c5.903,3.959,46.268,24.258,48.143,24.258c7.299-10.841,9.414-26.853,14.332-39.089c1.244-4.659,4.761-5.228,11.794-4.407
			c9.035,1.067,8.991,4.824,8.688-52.689l-0.259-49.399c-54.52-25.11-126.706-88.955-130.071-155.351
			c31.525,22.938,103.957,56.281,123.296,59.268c8.499,2.374,7.191-12.432,7.457-18.373c2.298,1.541,3.132,24.416,3.132,24.416
			c-31.999-9.673-48.768-7.703-128.638-53.983c13.707,65.31,79.105,116.812,126.529,140.305c0,0,1.982,31.014,1.881,65.765
			c-0.31,105.964,0.751,110.63,0.751,110.63c0-0.057,26.101-6.655,33.343-10.247c12.943-10.361,33.678-2.418,36.544,5.215
			c4.212,39.991,0.165,77.066-0.726,115.258c-22.104,1.572-34.215,6.226-45.112,6.674c-7.091-0.947-11.396-0.998-15.021-5.026
			c-10.557-22.799-9.875-8.341-11.156,8.782c-0.973,5.064-27.39-3.757-30.029-5.278c-114.116,131.365-104.392,282.593-26.89,422.653
			c12.804-8.637,34.852-25.129,56.894-35.957c0.53,17.818,0.833,54.501,0.833,54.501c-89.34,65.544-196.321,239.192-192.71,239.672
			l-36.292-43.332c0,0,22.843-36.323,30.9-45.927c0.935-1.099,1.54-12.362,1.54-12.362l55.461-80.198
			c-25.079-44.424-42.202-82.408-60.044-126.093c-1.01-3.656-5.367-19.358-4.414-20.848c-36.999-167.177,3.094-250.33,0.139-256.663
			c0,0-0.486-3.346-1.275-3.997c-1.212-1.004,0.316-1.976,1.673-4.363c2.639-4.628,6.844-14.13,5.411-16.94
			c-1.061-2.077-31.07-32.087-56.792-56.786c-13.537-13-12.994-14.49-19.989-7.387c-2.589,2.626-8.966,10.121-8.966,10.121
			c-92.952,85.994-166.716,164.304-259.996,255.848l-4.477-4.066c135.69-134.876,272.636-268.4,407.013-404.576l-23.632,0.398
			c0.669-1.711,1.648-3.309,3.024-3.77c12.672,0.006,25.704-3.833,35.118-9.18c19.168-14.238,46.684-33.305,48.837-52.083
			c-1.376-36.147-31.866-41.381-53.876-23.708c-30.603-54.962-54.822-121.086-67.797-182.81c-0.619-3.068-4.925-8.353-5.575-11.851
			c6.56-20.501,110.479-162.113,110.479-162.113h-583.591l111.06,132.261c0-5.278,158.293-23.974,230.788-1.894l44.146,156.822
			c-40.105,38.779-51.956,102.543,21.802,135.734c1.439,3.113-6.996,8.227-6.996,8.227c1.175-1.913,3.214-3.889,2.387-5.651
			c-19.876-8.688-41.166-30.691-41.166-30.691c-44.373,34.663-85.855,53.964-126.484,55.675c0,0,21.454,14.547,25.596,30.521
			c0,0-1.989-0.24-2.513-0.878c-4.4-5.385-14.521-22.793-23.058-27.919c-14.465-3.473-23.021-0.947-34.429,6.92l-15.457,14.926
			C-6077.353,744.809-6116.726,727.175-6138.42,700.398L-6138.42,700.398z M-6144.354,1084.227l16.176-15.961
			c1.856-11.851,5.07-26.922,18.739-43.332c15.166-18.203,31.936-35.313,44.279-51.521c14.831-19.465,22.881-37.087,18.979-45.257
			c22.105-3.978,42.391-23.481,43.035-58.883c0.259-18.594,9.237-45.718,9.913-45.339c0,0,154.252-5.247,260.363-106.406
			c0,0,7.438,1.616,5.694,2.961c-40.212,40.269-82.969,69.963-133.512,88.867l-278.741,278.426L-6144.354,1084.227z
			 M-6113.493,1052.279c4.167-4.167,5.102-5.531,2.747-7.488c-3.593-2.98-10.513,3.176-10.513,9.357
			C-6121.259,1058.081-6118.146,1056.932-6113.493,1052.279z M-6099.066,1038.092c3.315-3.169,3.195-5.48,0.455-8.221
			c-3.77-3.769-9.25-1.452-11.087,4.622C-6111.555,1040.617-6104.269,1043.079-6099.066,1038.092z M-6086.362,1025.249
			c1.705-1.945,3.1-3.94,3.1-4.426c0-2.153-5.316-7.04-7.665-7.04c-2.993,0-8.334,5.02-8.334,7.829c0,2.349,5.367,7.166,7.975,7.166
			C-6090.283,1028.779-6088.073,1027.194-6086.362,1025.249z M-6074.392,1001.326c-3.794-3.195-6.289-3.214-9.414-0.088
			c-3.637,3.637-3.258,7.634,1.08,11.441c3.296,3.441,4.71,3.106,9.167,0.354
			C-6069.814,1009.212-6069.145,1005.639-6074.392,1001.326z M-6060.337,999.192c4.098-3.447,3.517-6.282-0.953-10.759
			c-4.71-4.704-8.341-4.741-11.687,0.246c-1.256,1.869-1.484,3.744-1.484,4.281c0,1.818,7.753,8.732,9.799,8.732
			C-6063.538,1001.692-6062.029,1000.619-6060.337,999.192L-6060.337,999.192z M-6046.819,985.845
			c3.485-3.637,3.037-6.238-1.963-11.384c-4.199-4.325-7.128-4.659-10.828-1.225c-3.833,3.548-3.037,7.292,1.282,11.617
			C-6053.954,989.229-6050.708,989.905-6046.819,985.845z M-6031.515,970.351c2.563-2.709,1.875-2.488,0.063-5.43
			c-2.81-4.533-10.986-12.053-13.322-12.053c-2.923,0-5.487,4.685-5.468,9.3c0.025,4.584,2.26,6.453,8.082,11.03
			c3.871,3.043,2.684,3.321,5.664,1.572C-6034.848,973.804-6032.601,971.815-6031.515,970.351z M-6019.367,959.245
			c5.487-6.238,4.445-7.444-8.789-21.391c-4.496-4.729-5.424-5.266-8.631-5c-3.049,0.259-3.258,1.01-4.824,4.224
			c-2.898,5.916-0.751,8.928,7.577,17.786C-6025.466,963.98-6024.203,964.757-6019.367,959.245z M-6005.792,944.679
			c2.115-1.863,3.536-4.022,3.536-5.398c0-2.437-10.721-14.32-14.547-16.511c-2.715-1.553-5.543-0.676-9.06,2.349
			c-2.109,1.812-2.059,2.254-1.56,4.249c0.82,3.264,14.604,17.792,16.876,17.792
			C-6009.599,947.16-6007.737,946.384-6005.792,944.679z M-5992.337,931.622c2.279-2.323,4.079-5.133,4.079-6.358
			c0-2.62-11.554-15.993-15.128-17.862c-3.037-1.591-4.805-0.928-7.804,3.283c-3.454,4.849-2.103,7.065,4.748,14.964
			c6.503,7.488,8.587,9.755,9.793,9.755C-5996.246,935.404-5994.579,933.907-5992.337,931.622L-5992.337,931.622z
			 M-5979.627,917.952c2.917-1.774,6.73-5.512,5.177-8.562c-1.642-3.125-21.858-24.561-24.037-25.722
			c-4.274-2.286-4.148,1.004-4.148,11.624v5.506l9.307,9.117C-5979.754,923.199-5982.791,919.96-5979.627,917.952z
			 M-5963.18,902.856c1.604-1.604,3.125-4.319,3.106-5.323c-8.397-10.222-32.813-42.549-37.22-41.355
			c-0.467,0.126-0.65,0.152-0.96,1.073c-1.099,3.245-1.541,9.938-0.783,15.355c7.709,7.412,25.88,31.525,29.99,33.021
			C-5966.59,906.575-5965.503,905.18-5963.18,902.856z M-5950.066,889.092c1.547-1.477,2.803-3.479,2.803-4.445
			c0-0.972-2.715-4.369-5.6-7.772c-2.886-3.403-8.536-10.285-12.558-15.298c-23.008-28.69-24.674-30.836-28.185-27.92
			c-2.311,1.913-2.866,8.669-1.705,11.201c1.995,4.357,27.118,34.656,35.218,42.473
			C-5954.94,892.3-5953.931,892.798-5950.066,889.092z M-5936.833,876.414c1.97-1.856,3.574-4.312,3.574-5.455
			c0-1.149-3.707-5.821-7.589-10.386c-3.883-4.559-10.355-12.344-14.383-17.293c-10.317-12.697-10.405-13.152-18.108-13.947
			c-11.668-1.193-10.115,1.376,3.112,16.807c3.201,3.731,9.244,11.106,13.43,16.385c9.812,12.356,14.13,16.902,16.075,16.902
			C-5939.863,879.426-5938.796,878.264-5936.833,876.414z M-5923.334,863.193c5.979-5.032,4.799-6.686-14.66-26.777
			c-6.377-6.592-6.832-7.633-11.788-7.633c-4.988,0-6.592,1.029-6.592,3.441c0,1.484,25.344,31.607,27.194,32.346
			C-5926.687,865.567-5926.396,865.769-5923.334,863.193L-5923.334,863.193z M-5909.159,848.677
			c1.598-1.711,2.898-3.921,2.898-4.912c0-2.166-5.5-9.155-10.658-13.676c-2.412-2.115-5.455-4.306-7.406-4.306
			c-3.308,0-8.984,1.869-9.963,3.454c-0.631,1.023,6.901,10.317,14.301,18.114C-5915.088,852.516-5913.168,852.971-5909.159,848.677
			z M-5896.715,836.328c3.132-3.132,3.106-6.004-0.095-10.203c-2.323-3.043-3.024-3.346-7.797-3.346
			c-9.054,0-9.313,2.317-2.311,9.805C-5901.703,838.152-5900.27,839.882-5896.715,836.328z M-5883.386,823.22
			c3.517-4.477,0.505-6.939-5.272-4.306c-1.37,0.625-2.103,2.254-2.387,3.005C-5892.832,826.566-5886.771,827.52-5883.386,823.22z
			 M-6105.904,861.04c-12.868,8.132-34.499,23.544-49.197,33.842c-0.392,2.21-0.676,7.835,0.006,12.217
			c8.334-5.67,35.13-22.78,47.291-32.428C-6107.191,871.06-6106.308,864.683-6105.904,861.04z M-6082.303,823.706
			c-0.429-2.185-1.875-0.802-5.683,2.418c-4.988,4.218-47.303,35.566-58.542,43.452c-4.268,2.999-8.29,5.531-8.75,6.585
			c-0.43,0.998-0.846,9.509,0.776,11.655c9.167-7.002,52.67-36.172,53.32-37.182
			C-6096.686,843.456-6086.646,830.942-6082.303,823.706z M-6087.152,918.199c0,0-51.899,62.38-68.593,93.463
			c0,0-0.113,35.547-0.593,56.016l-2.829,0.796c0,0-0.24-54.867-0.94-114.419c-1.749-148.81-3.214-184.938-3.214-184.938
			l-16.852-12.344l-0.701-5.853c0,0,74.781,52.361,111.275,60.714C-6096.263,853.413-6120.918,869.532-6087.152,918.199z
			 M-6148.743,992.809c1.042-2.507,0.334-2.386-1.812-2.292c-1.572,0.069-2.463,1.521-2.538,3.113
			c-0.083,1.818,0.082,2.248,1.502,1.983C-6150.574,995.417-6149.242,994.015-6148.743,992.809z M-6136.261,974.316
			c7.47-9.193,13.645-15.16,14.75-21.922c-4.786,0.789-32.314,20.091-32.75,22.13c0.271,10.222-2.064,11.447,6.339,6.939
			C-6144.235,979.462-6141.249,976.999-6136.261,974.316z M-6133.905,951.529c8.024-6.674,37.295-22.414,40.642-30.167
			c1.301-3.561-2.873-6.907-3.523-6.579c0.53,0.467-41.911,25.893-57.393,39.234c-1.382,1.718-1.029,4.647-0.107,7.072
			C-6152.588,965.559-6149.204,961.928-6133.905,951.529z M-6143.647,939.261c8.732-5.821,29.372-20.09,34.511-23.658
			c8.732-6.068,10.468-8.107,7.324-12.602c-1.263-1.793-2.967-2.854-5.847-1.585c-25.28,17.597-27.458,20.577-46.646,32.908
			c-1.288,3.46-0.972,8.631,1.029,10.462c1.459,0.088,3.902-1.705,9.635-5.525H-6143.647z M-6143.742,920.27
			c23.026-16.656,35.445-25.078,36.26-26.916c0.909-2.027,1.175-9.944-0.328-10.796c-8.568,6.522-31.474,20.539-47.126,33.236
			c-0.404,2.607-0.884,8.46,0.379,9.723C-6151.382,926.83-6150.435,925.112-6143.742,920.27z M-6146.489,860.15
			c16.763-12.432,32.251-23.254,49.702-34.909c14.781-9.818,17.25-12.002,11.58-14.932c-1.957-1.01-5.891-2.608-8.41-1.755
			c-19.648,15.86-41.475,31.032-62.298,46.444c-0.512,2.298,0,6.812-0.126,8.852
			C-6156.244,866.994-6152.089,864.304-6146.489,860.15z M-6148.787,842.408c1.37-1.206,10.146-7.021,19.497-13.789
			c25.072-18.146,28.033-19.907,28.033-21.839c0-5.266-7.235-6.383-13.827-1.023c-12.084,9.843-40.938,27.781-41.015,30.325
			c-0.101,3.75-0.732,7.444,0.366,9.086C-6154.343,847.25-6152.316,845.508-6148.787,842.408z M-6141.551,817.828
			c25.507-17.792,24.498-16.965,24.498-20.16c0-2.784-2.481-1.534-6.383-1.818c-3.681-0.265-3.75,0.764-10.752,6.055
			c-14.888,11.251-20.331,14.326-21.896,17.647c-0.486,1.042-0.833,5.171,0.076,6.08
			C-6154.217,827.425-6152.146,825.222-6141.551,817.828z M-6139.866,800.131c4.994-4.155,8.998-7.204,9.332-8.075
			c0.726-1.894-3.043-5.272-5.891-5.272c-3.075,0-5.474,1.591-13.101,8.157c-6.737,5.796-8.101,4.577-7.57,7.848
			c0.31,1.901,0.341,6.087,0.973,6.851C-6154.495,811.596-6151.003,809.399-6139.866,800.131z M-6150.201,788.646
			c5.392-4.54,6.528-5.474,2.601-9.407c-3.561-3.561-7.715-4.445-9.9-2.26c-1.212,1.604-0.038,10.992-0.164,12.868
			C-6157.879,792.857-6153.876,791.74-6150.201,788.646z M-6034.671,690.725c0-1.945,9.382-8.808,16.429-10.374
			c8.978-1.995,20.242-0.966,28.128,2.974c6.793,3.39,14.168,11.548,3.251,6.585c-10.026-4.464-31.519-4.521-39.303-0.916
			C-6031.944,691.925-6034.671,692.676-6034.671,690.725z M-6041.642,656.346c0.726-0.726,10.108,1.692,15.273,3.056
			c13.853,3.649,25.236,1.503,39.751-2.69c3.403-0.979,5.102,1.376,2.999,3.1c-7.374,5.108-16.939,8.088-25.186,8.852
			C-6026.95,670.35-6046.478,661.088-6041.642,656.346z M-6130.641,629.557c7.747-3.788,17.205-56.913,14.156-66.055
			c-9.478,14.484-20.11,20.981-35.25,18.474c-24.794-4.11-25.716-34.625-6.554-37.693c7.646-1.231,17.016,3.813,18.55,2.633
			c8.164-3.833,14.56-31.26,16.555-40.137c1.465-8.694,3.624-32.819,3.946-40.497c0.688-16.327,0.038-40.408,0.038-40.408
			l-120.644-144.333l-264.245-1.137c0,0-0.846,202.174-0.215,305.601l74.818,71.801l0.947,116.061
			c83.601-36.481,164.525-74.8,243.738-116.244c-9.187-10.98-8.915-38.64,7.829-49.102
			C-6152.31,593.114-6131.828,613.507-6130.641,629.557L-6130.641,629.557z M-6064.403,654.162
			c0.562-6.547,5.424-11.927,5.765-18.582c0-1.484,1.2-3.201,5.133-1.111c5.126,2.721,6.705,0.802,12.501-1.863
			c10.285-4.742,13.233-4.635,21.157-1.465c5.127,2.746,6.699,2.728,11.498,0.24c6.579-4.344,13.568-5.752,19.352-3.725
			c8.625,3.005,11.624,4.66,16.548,2.279c2.481-1.199,5.582-5.695,6.125-5.36c3.542,5.266,2.828,13.549,5.089,18.209
			c4.009,7.905,2.443,13.568-2.279,9.679c-9.913-8.177-17.641-8.378-31.872-4.849c-8.328,2.058-12.514,3.662-21.745,2.57
			c-28.595-3.391-30.533-2.532-36.342,1.351C-6059.118,655.311-6063.456,655.696-6064.403,654.162z M-5987.652,602.338
			c-8.252-2.064-17.685-9.565-24.523-7.557c-8.429,0.568-13.234-9.37-8.909-14.812c7.4-7.198,18.885,0.063,23.349,3.441
			c9.685,7.362,11.062,7.943,14.976,7.943c16.082-0.316,13.006-15.343,5.234-20.823c-4.616-4.83-5.07-7.962-4.085-9.142
			c1.591-1.919,6.175-0.303,11.207,4.988c9.629,9.041,9.856,27.055-1.957,32.504
			C-5978.238,602.155-5982.096,603.727-5987.652,602.338L-5987.652,602.338z M-5954.095,550.262
			c-7.481-5.424-20.797-17.584-24.276-21.922c-5.885-7.324-8.233-12.009-7.501-17.887c0.575-4.578,1.269-7.305-1.673-8.82
			c-3.119-1.604-6.125-8.524-5.519-12.154c0.17-1.004,3.694-0.404,5.828,2.26c2.703,0.442,2.141-1.162,5.077-3.106
			c30.571-20.52,55.106-16.568,84.119-2.462c8.417,4.041,30.388,20.703,18.613,15.298c-0.694-0.322-8.41-3.662-16.188-7.589
			c-25.154-12.04-53.181-19.333-75.999-3.851c-3.927,2.747-6.301,4.862-3.246,4.862c12.83-2.5,25.514-7.835,38.685-7.002
			c19.648,0.259,31.531,9.951,46.268,16.65c15.993,7.141,19.074,9.584,13.246,15.481c-1.642,1.818-2.968,1.768-10.683,1.174
			c-8.31-0.631-8.998-0.391-13.663,2.595c-12.249,7.848-28.153,12.129-42.284,10.942c-16.643-1.395-18.424-2.734-18.771-0.335
			c-0.215,1.534,3.359,4.186,8.29,8.694c3.744,3.422,8.77,8.467,9.212,9.243C-5943.178,554.782-5949.517,553.576-5954.095,550.262z
			 M-5958.761,523.63c-0.038-1.97-3.706-10.538-5.891-12.748c-2.103-2.121-3.75-1.294-8.227,1.856
			c-3.365,2.368-3.719,4.237-0.625,6.983C-5966.924,525.568-5958.704,527.033-5958.761,523.63z M-5933.701,524.804
			c6.718-3.252,13.556-14.774,10.456-18.512c-1.85-2.229-3.454-0.114-6.983,6.131c-1.686,2.993-4.59,6.787-5.834,7.659
			c-5.486,3.845-12.729,0.253-15.784-8.227c-1.837-5.12-3.776-8.378-5.922-6.434c-3.871,3.51,0.518,16.17,8.214,19.447
			C-5945.003,526.806-5938.411,527.09-5933.701,524.804z M-5912.802,522.917c6.812-2.109,10.064-5.171,9.496-8.139
			c-0.473-2.462-5.379-5.367-8.713-5.367c-1.49,0-4.413-0.063-5.468,1.332c-2.311,3.087-5.992,12.451-6.162,13.461
			C-5922.854,526.269-5920.549,525.31-5912.802,522.917z M-5889.258,472.141c-33.975-13-60.809-18.209-93.123-4.432
			c-10.354,4.495-16.264,4.963-16.782,1.301c-0.436-3.094,7.015-12.249,15.065-16.479c22.559-10.317,49.646-11.289,72.344-0.398
			c8.479,4.148,32.282,21.069,32.282,22.61C-5879.472,476.428-5881.625,475.121-5889.258,472.141z M-5491.57,852.844
			c8.094-4.268,11.813-12.653,6.856-17.609c-1.452-1.452-3.485-1.446-5.165-1.446c-2.834,0-24.093,5.695-28.21,7.905
			c-2.69,1.439-1.717,3.952,0.852,6.27c1.188,1.073,2.065,3.372,2.248,5.885c0.233,3.226-0.404,6.143,1.73,5.645
			C-5508.921,858.495-5502.077,857.542-5491.57,852.844L-5491.57,852.844z M-5521.782,860.629c2.305-4.192,1.326-9.95-4.729-13.48
			c-3.157-1.635-5.657-0.764-8.195,2.86C-5540.724,860.989-5525.778,865.699-5521.782,860.629z M-5552.107,865.781
			c1.301-14.029,0.663-55.467,0.663-55.467s-7.545,6.377-12.306,6.598c1.749-6.061,3.644-8.29,6.352-14.225
			c1.554-6.295,2.412-17.42,1.982-23.778c-0.479-6.97-5.392-7.154-0.328-19.68c2.589-6.396,3.056-13.126-0.303-21.044
			c-1.439-3.915-1.907-6.156,1.856-11.112c3.498-4.609,2.115-6.914,2.052-16.517c-0.095-13.31-0.013-15.469-4.041-4.735
			c-6.017,8.89-8.789,7.191-17.956,6.118c-8.871,19.876-19.238,40.718-19.649,57.847c-0.252,10.74-0.398,12.413,6.308,34.998
			c2.494,8.41,3.353,11.213,3.498,21.378c0.139,9.704,0.859,13.12,2.336,18.48C-5579.017,854.177-5568.334,869.942-5552.107,865.781
			L-5552.107,865.781z M-5860.606,1759.677l0.038-19.983c0,0-31.967,9.856-48.187,3.795c-16.707-4.521-16.65-5.348-16.321-3.542
			c0.587,3.233,12.981,9.774,24.459,12.463c8.069,1.888,24.232-0.019,32.163-2.368c4.502-1.332,4.981-0.082,3.182,1.301
			c-19.598,15.317-44.456,8.265-60.069-4.451c-8.347-8.17-13.941-8.214-9.433,2.759
			C-5913.326,1793.115-5860.069,1767.475-5860.606,1759.677z M-5882.181,1729.977l7.268,0.139c0,0-2.229-12.666-5.998-16.359
			c-7.709-7.558-18.594-6.408-25.508,1.017c-3.163,3.403-5.588,15.425-5.588,15.425l5.847,0.126
			C-5903.988,1724.711-5894.77,1698.377-5882.181,1729.977L-5882.181,1729.977z M-5911.274,1710.821
			c-4.129-1.13-13.196,2.987-17.603,5.853c-1.636,1.806-1.654,2.071,0.296,4.628c4.237,5.582,10.708,8.246,11.169,6.156
			C-5915.53,1724.522-5910.839,1711.958-5911.274,1710.821z M-5863.239,1724.907c0.954-3.896-2.715-10.557-8.441-12.893
			c-2.475-0.612-4.925-1.111-4.198,1.623c0.808,3.05,2.513,8.056,4.116,11.403c1.162,2.519,1.9,3.782,4.344,2.829
			C-5865.499,1727.231-5863.896,1726.631-5863.239,1724.907z M-5551.299,1459.993l0.063-33.848
			c-17.091,17.325-39.436,46.4-46.198,57.279L-5551.299,1459.993z M-6073.362,527.197c7.242-3.106,12.558-12.564,10.721-17.35
			c-1.136-2.968-4.142-0.587-7.185,3.807c-4.887,7.071-6.13,7.842-10.43,7.842c-4.578,0-6.39-1.181-9.534-7.337
			c-2.159-5.821-3.693-6.731-5.714-4.192c-0.947,1.143-0.871,2.784,0.36,7.027C-6091.918,528.088-6083.616,531.592-6073.362,527.197
			z M-6053.625,523.693c8.031-2.759,9.667-3.643,9.288-6.314c-0.397-2.803-6.787-6.541-10.405-5.847
			c-2.62,1.578-9.407,12.318-9.022,14.238C-6062.837,527.267-6060.147,525.941-6053.625,523.693z M-6099.95,519.015
			c-0.278-2.475-0.625-4.906-1.307-5.733c-2.576-3.106-8.019-0.916-8.019,3.037c0,2.993,4.269,6.39,7.729,6.39
			C-6099.116,522.708-6099.464,523.302-6099.95,519.015L-6099.95,519.015z M-6054.566,498.779c11.428,4.3,17.218,4.78,11.005-1.061
			c-8.549-9.477-47.708-20.299-68.72-4.836c-1.496,2.14-1.187,10.304,0.448,9.856
			C-6094.734,491.209-6072.845,491.821-6054.566,498.779z M-6093.674,466.092c-9.604,3.195-18.613,8.221-19.769,12.893
			c-1.856,7.526,1.509,7.608,14.067,3.656c16.163-5.291,34.252-2.892,48.035,5.07c10.468,7.608,13.562,5.089,11.794-1.301
			C-6045.392,465.24-6078.104,461.433-6093.674,466.092z"/>
		
			<path id="path3027" style="fill:#FFFFFF;" d="
			M-5477.421,330.181l-70.607,69.963l0.991,82.793c7.09,13.013-108.977-37.1-127.299-52.266
			c2.127,55.309,77.615,118.327,126.699,141.385l1.338,175.625c0,0,19.756-7.659,30.629-11.441
			c8.05-2.791,26.461-2.526,32.535-5.436C-5473.507,610.413-5465.28,453.781-5477.421,330.181z M-5870.14,416.838
			c-6.876,0.114-11.005,1.983-10.904,6.402c-2.071-0.341,26.089,103.376,38.906,146.689c-24.952,25.211-50.99,69.004-13.72,109.532
			c7.949,8.65,22.516,15.974,36.374,24.283c6.175,5.992-75.778,58.82-148.715,58.845c-23.386-51.268-56.054-22.919-74.067-5.032
			c-14.074-1.238-66.598-32.522-93.47-50.435c-0.43-0.29-0.146-7.709-0.095-9.067c1.869,12.224,105.27,38.59,109.942,26.348
			c-2.986,0-46.388-29.353-58.845-58.314c-15.911-32.667-28.658-77.533-28.658-77.533c-5.784,16.593-3.801,39.588-19.75,47.814
			c-4.773-54.002-81.884-26.461-43.502,26.341c-21.562,6.326-40.004,17.489-60.935,26.783
			c43.799,59.59,104.077,99.228,167.751,122.595c-8.397,17.887-57.979,58.156-17.25,105.624c1.831,1.458-38.924,45.914-58.971,80.69
			c-15.09,26.171-10.538,46.255-8.814,46.905c55.22-63.283,86.253-116.812,86.253-116.812c-0.474,7.355,65.537,3.378,64.432-56.067
			c1.465-16.037,4.369-33.425,10.531-48.313c100.73,4.742,187.331-31.14,260.533-106.495c0,0,14.913,4.249,24.314,5.714
			c4.716,0.739,11.396-2.336,12.501-2.652c4.237-0.221,10.355-1.048,16.062-4.255c7.816-4.388,15.709-11.952,24.062-18.714
			c10.955-8.871,21.89-17.426,25.786-26.562c4.363-10.159,0.947-22.408-2.784-33.255c-23.5-27.661-39.089,2.084-49.5-1.78
			c-36.146-49.141-66.301-188.158-71.22-189.25C-5774.088,442.801-5843.161,416.377-5870.14,416.838L-5870.14,416.838z
			 M-6118.266,511.71c-2.696,0.183-12.388,43.407-20.968,43.067c-36.354-23.418-37.138,25.047-5.878,22.843
			c26.411-1.863,41.172-44.481,26.973-65.878C-6118.178,511.722-6118.222,511.71-6118.266,511.71z M-6506.862,593.928
			c1.206,262.781,5.941,525.467,12.097,788.159c23.746-5.859,41.015-10.33,64.312-0.152c2.185-74.68-4.382-263.14-2.816-445.628
			c88.772-69.035,151.115-145.173,194.907-244.685l-135.532,63.466c0,0-44.292,63.485-58.434,67.564
			c-2.015-9.035-4.274-116.509-2.438-162.593L-6506.862,593.928z M-6205.7,756.464l-26.631,38.527c0,0,0.619,132.337,2.159,196.1
			c1.099,12.697,12.64,24.34,3.409,35.717c5.626,0,30.237,171.679,6.844,241.282c-4.192,12.463-0.271,21.271,6.276,24.125
			l50.75,51.495c16.012,5.316,31.594,3.245,45.03,0c48.048-43.944,116.288-120.935,116.288-120.935l-180.411-170.53
			C-6197.454,1010.879-6205.7,756.464-6205.7,756.464z M-5548.23,1308.341c-130.62,97.637-186.763,236.591-187.627,235.656
			c0.461,1.623-0.657,7.318,7.533,2.81c33.804-18.304,120.72-57.778,120.72-57.778c20.64-24.807,36.519-48.742,60.151-72.344
			c0,0,2.557,107.669,0.474,161.684c21.315,15.854,71.934,65.373,71.934,65.373c-0.007-0.006,13.979-764.993-16.183-784.408
			c-29.296,5.676-44.001,16.378-54.93-17.59C-5553.888,997.494-5546.242,1153.786-5548.23,1308.341z M-5831.885,877.803
			c-31.506,25.748-139.825,131.996-139.598,133.095c28.728,48.174,142.181,144.681,196.562,198.626l7.874,274.846
			c7.999-10.759,13.821-20.886,22.502-31.657c0,0-1.42-139.163-4.779-204.403c-0.998-19.295-5.417-34.499-4.035-36.254
			c-15.304-79.188-21.65-166.666,0.013-251.567C-5804.723,916.248-5821.044,886.825-5831.885,877.803z M-5823.449,1191.713
			c-0.082,0.032-0.164,0.088-0.253,0.189c-26.594,37.876-77.445,120.095-81.094,119.906c-1.073-2.462-52.543-0.164-62.279,32.219
			c-8.17,24.106-8.795,46.293-14.749,71.157c-103.281-3.372-178.883,29.277-258.5,102.656c-22.647,0.89-42.479,2.747-56.408,7.905
			c-11.674,4.325-17.95,12.11-25.129,17.312c-20.204,14.648-25.678,27.143-24.687,42.441c1.799,27.711,50.775,31.657,53.282,12.122
			c2.481,0,47.928,103.812,52.341,121.503c10.721,28.595,22.199,82.098,23.563,82.187c18.297,1.174,121.004,29.978,121.376,19.529
			c9.679-4.148-35.717-152.699-35.717-152.699c79.346-66.56-8.132-137.698-28.689-135.096
			c45.182-32.163,97.018-53.819,154.189-56.673c8.852,31.771,49.873,48.099,70.531,5.878c0,0,88.86,31.803,88.501,42.34
			c-36.595-5.518-66.674-8.397-103.313-11.908c70.197,38.104,72.356,88.324,86.688,138.316c1.945-8.852,20.469-47.53,20.469-47.53
			c23.803,52.796,69.086,16.157,50.403-26.474l56.344-26.12c6.491-3.296-84.22-105.327-166.716-119.785
			c4.155-7.596,5.796-14.749,10.09-20.937c20.69-20.292,36.721-50.005,5.095-85.565c20.879-29.17,69.288-99.588,66.219-100.844
			C-5821.89,1223.743-5820.949,1190.835-5823.449,1191.713z M-6501.792,1516.261c0,0-1.149,244.18-0.537,365.393
			c-2.027,5.02-3.346,31.841-3.346,31.841l75.128-70.557l2.248-91.222c19.617-4.691,141.877,57.374,132.098,57.033
			c9.332-3.934-56.439-128.132-133.158-141.909c-1.427-70.361-2.147-150.022-4.155-171.439
			C-6460.159,1500.489-6501.792,1516.419-6501.792,1516.261z M-5834.795,1663.152c-21.038,6.276-29.814,50.485-23.001,71.939
			c1.263,3.965,0.461,4.824,3.813,0.935c8.195-12.034,5.607-35.995,20.09-48.654
			C-5795.644,1698.907-5799.438,1649.173-5834.795,1663.152z"/>
		
			<path id="path3020" style="fill:#010101;" d="
			M-6321.501,1951.156l99.448-150.237c118.738,39.676,239.944,40.396,362.438,20.817l109.481,129.42h-44.758l-68.909-98.401
			c-24.971,5.765-50.921,8.284-76.782,11.839l32.251,86.562h-35.099l-25.337-85.622c-59.432,2.304-99.91-2.993-141.171-7.823
			l-14.869,93.444h-35.717l24.112-96.488c-28.071-5.259-56.407-9.774-79.92-17.306l-73.013,113.794H-6321.501z M-6207.613,1862.744
			l41.286,11.176l-20.16,77.237h-75.532L-6207.613,1862.744z M-6100.979,1951.156l11.668-68.227
			c27.724,5.468,63.908,6.566,102.056,6.175l17.938,62.052H-6100.979z M-5905.554,1887.898l32.566-8.631l48.824,71.889h-59.343
			L-5905.554,1887.898z M-6116.852,413.473l-105.555-131.933h51.11l62.86,93.362l75.292-8.593l-26.499-84.769h31.197l22.029,83.405
			c46.179,1.099,91.316,4.691,135.141,9.079l22.521-92.484h31.771l-28.829,96.784l85.015,22.313l75.759-119.097h37.637
			l-107.366,153.766C-5895.13,393.149-6007.869,397.979-6116.852,413.473L-6116.852,413.473z M-5812.539,358.253l24.043-76.795
			l71.939,0.082l-55.057,87.718L-5812.539,358.253z M-5986.636,339.57l-15.204-58.03h126.819l-16.372,64.881
			C-5924.887,340.763-5955.471,339.684-5986.636,339.57z M-6138.672,281.54h50.624l19.712,60.051l-29.195,3.308L-6138.672,281.54z"
			/>
		
			<path id="path3016" style="fill:#010101;" d="
			M-6238.948,273.042l122.235,146.234c25.463-9.111,153.817-23.759,230.82-6.188c13.417,52.562,27.616,105.643,42.631,153.501
			c0,0-4.812,5.613-8.284,9.187c-49.172,56.666-14.37,111.401,30.628,129.256c-8.113,16.852-94.347,58.807-146.853,53.819
			c0.082-0.524-16.131-38.508-48.995-25.672c-11.232,4.395-15.866,12.842-24.561,21.094c-31.373-9.458-72.798-30.085-94.328-52.758
			c40.295,20.059,79.971,30.856,119.811,25.54c0,0-4.943-4.11-10.544-6.687c-3.372-1.547-11.485-6.427-18.032-10.841
			c-18.519-12.482-30.817-27.522-43.502-53.25c-14.598-26.07-16.972-54.122-24.978-78.853c-4.23,12.678-6.055,46.16-17.117,53.099
			c-2.867,1.882-3.391,1.313-5.531-5.777c-8.441-25.748-39.335-22.49-49.532-4.161c-5.165,15.759-4.419,22.679,2.109,37.314
			l-18.733,10.405l-0.031,3.094l-11.529,5.499l-2.412-1.623c-53.598,25.886-106.147,52.834-160.837,77.635
			c0,0-29.043,48.187-55.625,67.362l-1.036-163.654l-78.721-71.093l-0.373,38.937c0,0,3.776,3.952,5.657,5.941
			c1.073,273.956,0.17,543.467,0.341,792.187l0.366,228.964l-4.805,0.284l-0.246,26.701l5.411,1.212l-0.758,37.712l-2.81,0.189
			l-0.411,23.873l4.293,0.676l-0.076,134.762l-4.25,5.474l0.095,38.464l82.187-78.089l1.837-88.823
			c64.83,12.236,132.59,58.826,132.59,58.826c-11.409-74.396-90.262-135.696-135.551-147.939l0.146-176.262
			c0,0-33.666,14.042-50.302,16.195c-8.233,1.168-11.409-0.082-15.343-6.03c-2.866-4.331-2.936-8.29-0.347-17.249
			c1.212-4.192,1.174-5.291-0.341-9.502c-2.122-5.916-2.134-8.587-0.063-19.03c2.172-6.137,1.218-9.407-1.061-15.096
			c-2.45-6.08-2.64-7.217-1.591-10.715c2.753-9.231,2.911-10.727,1.465-14.85c-2.829-8.05-2.917-13.865-0.31-19.093
			c12.116-20.337,39.291-15.317,54.027-14.591c7.476,8.315,11.939,12.95,12.627,0.909c5.228-14.383,25.521,0.335,34.991,6.447
			c80.646-108.061,120.43-254.371,19.257-437.484l-56.281,45.036l0.133-56.37c74.623-47.96,158.597-157.005,194.951-242.98
			c12.085,14.168,25.969,28.09,39.058,42.372l-8.556,14.313l-2.519-1.433c-23.159,44.171-86.025,127.716-87.042,126.87
			c23.273,43.123,43.995,86.676,61.617,130.746l4.615-2.077l4.129,13.278l-8.145,2.437c27.534,90.325,28.438,173.958,7.715,251.081
			l4.862,20.495c0,0,29.138,28.223,36.999,36.519c20.526,19.869,43.401,42.062,43.401,42.062l26.594-26.032l-1.541-2.216
			l233.105-231.439l14.541,13.897c-142.774,143.784-390.755,392.037-390.755,392.037l-8.599,1.25
			c-4.887,0.726-12.11,1.042-16.719,0.72c-7.577-0.53-8.511-0.36-14.591,2.532c-6.856,3.258-12.514,8.082-20.097,17.155
			c-3.46,4.148-5.84,5.935-9.686,7.311c-48.604,28.987-4.659,87.345,36.677,56.628c30.3,57.885,55.959,125.31,70.102,191.997
			c0,0.492-5.436,2.349-5.436,2.349l-108.932,161.532h41.898l4.382-7.438h-31.411l100.219-144.75
			c127.501,34.726,244.521,39.67,363.284,18.998l103.376,125.752h-41.001l5.846,7.438l53.061,0.84l-121.509-143.386
			c-43.509,11.624-158.262,20.974-230.239,8.795c-11.018-53.478-29.17-111.59-42.6-157.845
			c68.701-53.775,17.117-124.754-25.28-134.655c-2.058-3.883,85.975-57.399,148.69-53.693c17.956,43.13,57.278,36.746,71.396,4.653
			c26.006,9.546,59.76,19.08,86.549,40.389c-35.73-7.835-77.136-12.11-111.205-12.634c64.811,25.129,82.995,78.083,90.982,128.031
			c1.402,8.284,5.84,18.979,5.84,18.979c5.525-18.039,10.033-36.664,20.905-52.102c4.994,17.66,23.393,31.38,41.937,20.874
			c10.759-7.791,14.503-21.17,11.1-39.657c-0.947-5.14-1.427-7.956-1.427-7.956l14.401-7.797l1.875,1.597
			c0,0,15.778-6.737,23.614-10.55c1.231-0.594-1.439-3.05-1.439-3.05l145.603-68.663c-0.549-0.303,36.715-51.173,58.1-70.79
			c0.644,60.947,0.492,86,0.461,158.363l8.214,8.031c7.293,7.122,23.197,21.89,59.034,54.817
			c8.069,7.412,13.708,11.074,13.708,11.074l-1.105-1065.915h-1.193l-0.025-20.507l1.68-0.088l0.031-53.333l-1.509-0.871
			l-0.013-16.807l2.002-1.465l0.139-143.98l-2.311-0.391l-0.139-34.536l-81.158,85.836l0.612,80.949
			c-36.222-4.685-81.031-27.863-111.881-46.564c-9.963-6.08-15.532-7.697-15.216-4.218c4.337,48.193,74.099,121.901,127.716,141.183
			l0.095,181.307c0,0.101,12.659-6.326,20.394-9.578l1.155,3.226l17.287-7.154l1.401-3.731l14.983-1.894
			c0.17,3.062,0.682,2.646,0.682,2.646c13.354,3.731,19.263,12.83,13.884,23.058c-1.882,3.428-2.248,8.29-0.688,9.559
			c5.784,9.13,7.299,17.173,0.31,25.817c-2.689,4.413-2.671,6.907,0.095,11.592c7.223,14.566,3.119,13.606-2.311,22.281
			c-1.231,6.56,5.96,10.828,3.592,17.003c-1.105,4.066-5.398,8.839-8.309,10.999c-3.416,2.469-6.226-2.128-6.226-2.128
			s-10.815,4.641-18.587,6.124c-7.652,2.481-20.817,6.926-25.381-3.372c-2.608-5.903-0.512-11.289-0.682-17.874l-11.22-1.219
			l-0.411,29.934c-6.415,3.416-31.935-9.622-31.935-9.622c-109.494,141.916-106.426,299.319-25.218,431.189
			c0.789,2.115,57.216-38.596,57.216-38.596s-0.114,33.375,0.379,51.47c-71.737,59.325-141.025,139.15-190.563,237.563
			l-30.685-36.374c5.278-4.666,5.48-12.066,5.373-17.66l22.282-33.217l0.189-8.625l57.936-80.93
			c0.902,4.843-59.779-108.642-67.861-145.59l4.016-1.086c-27.237-103.035-21.65-175.189-1.982-259.226l-5.613-5.417l-76.435-76.34
			c-6.207,5.739-12.394,11.491-18.569,17.268c-0.947,0.89-5.607,0.36-6.554,1.25c-40.232,37.712-78.897,75.576-117.171,114.911
			c-0.992,1.01,0.675,5.209-0.31,6.226c-38.344,39.486-78.089,76.959-116.888,116.382l-14.168-13.512
			c137.388-137.35,396.217-392.472,396.217-392.472s1.124-2.027,2.91-2.09c7.204-0.278,13.638-1.913,20.754-3.971
			c8.53-1.982,9.906-2.607,13.499-6.314c2.197-2.267,5.796-5.442,7.999-7.059c3.744-2.753,12.318-9.957,25.716-21.625
			c8.189-7.135,13.24-17.514,13.063-26.783c-0.315-16.504-11.238-30.571-25.312-32.592c-5.847-0.84-17.319,2.204-23.128,6.124
			c-4.426,2.987-6.509,4.35-8.416,3.018c-28.04-56.862-55.321-128.385-66.895-187.394c-0.619-3.725-0.284-4.824,2.746-9.502
			c1.895-2.911,5.998-9.332,9.161-14.282c25.06-36.241,54.135-80.267,81.404-120c4.533-6.598,13.315-19.308,13.315-19.308
			l6.648-10.923h-43.23l-5.335,8.498h35.584l-105.857,152.358c-195.078-63.763-354.937-23.349-358.77-22.477l-105.459-129.881
			h48.225l-5.84-8.498H-6238.948z M-6144.007,273.042l5.367,8.498h50.592l-2.866-8.498H-6144.007z M-6059.636,281.54h31.19
			l-1.793-8.498h-31.998L-6059.636,281.54z M-6003.822,273.042l1.982,8.498h126.819l2.254-8.498H-6003.822z M-5848.755,281.54
			h31.771l2.386-8.498h-31.954L-5848.755,281.54z M-5785.87,273.042l-2.728,8.498h72.041l5.398-8.498H-5785.87z M-5477.794,331.836
			l1.124,23.62l-51.938,54.741l0.063,76.429l-15.115-3.51l-0.606-78.986L-5477.794,331.836z M-5492.359,382.182
			c0.441,23.412-3.353,45.851,2.847,69.717c3.043,11.744,9.225,25.52,10.001,39.404l-17.136-0.404
			c-2.172-7.008-3.019-14.743-5.588-23.374c-6.326-21.278-11.453-43.698-6.781-66.251L-5492.359,382.182z M-5866.263,420.361
			c0.619,1.162,2.67,11.049,4.559,20.223c8.997,50.359,21.05,87.724,33.343,125.752c15.633,47.916,38.767,108.231,61.256,136.189
			c2.98,3.485,4.445,7.457,3.372,9.187c-1.812,2.936-10.999-1.162-17.154-7.658c-2.526-2.658-7.375-10.102-10.942-16.776
			c-7.854-14.711-18.411-36.121-19.465-39.505c-0.43-1.37-4.571-11.946-9.219-23.5c-8.132-20.198-12.956-34.031-19.749-56.496
			c-5.398-17.824-10.361-36.475-16.378-55.252c-9.837-30.71-15.526-55.132-21-83.374c-0.802-4.148-2.185-8.991-1.673-9.976
			C-5876.214,416.927-5867.76,417.823-5866.263,420.361L-5866.263,420.361z M-5860.764,422.275
			c-0.973-0.814,8.928-0.966,12.091,1.686c0.94,0.941,2.62,6.85,4.066,14.44c8.947,46.324,22.427,94.202,38.091,139.56
			c12.514,36.241,26.189,71.125,43.218,99.379c5.348,9.408,12.571,19.472,21.783,30.344c5.159,6.086,5.582,6.945,4.186,8.625
			c-1.705,2.052-4.685,1.793-10.437-0.941c-5.36-2.544-11.169-8.12-16.624-15.999c-1.869-2.696-4.698-6.743-6.314-8.997
			c-25.116-43.433-40.37-84.687-54.185-126.598c-14.168-42.965-26.91-86.423-35.566-136.498
			C-5860.556,425.608-5860.663,423.941-5860.764,422.275z M-5829.208,428.803c2.197,2.241,3.46,6.522,5.379,15.469
			c10.456,42.959,19.017,81.341,31.38,116.597c6.642,18.967,12.4,37.914,19.528,55.782c11.384,28.538,25.318,54.539,42.435,76.189
			c5.645,7.122,15.898,15.917,24.498,21.031c5.967,3.542,6.863,4.445,6.472,6.497c-0.524,1.844-6.339,2.614-8.252,2.469
			c-9.414-1.604-23.336-8.909-27.308-14.313c-28.797-31.114-49.393-82.042-64.388-123.82
			c-25.773-71.933-46.564-161.791-42.612-158.994C-5842.334,423.619-5831.758,426.019-5829.208,428.803z M-5816.826,431.398
			c0.928,0.019,1.982,0.183,3.157,0.499c5.379,1.471,6.08,2.222,7.374,8.157c9.206,41.078,18.961,77.3,29.846,111.754
			c11.068,35.054,22.464,68.126,40.219,102.808c13.019,25.318,29.498,42.808,47.215,51.66c5.089,2.538,9.635,4.981,10.096,5.436
			s0.334,1.781-0.284,2.936c-0.935,1.755-2.008,2.109-6.339,2.033c-8.044-0.139-13.682-2.639-22.313-8.435
			c-22.635-15.608-42.429-50.952-51.16-71.005c-10.651-24.46-20.444-49.879-29.277-77.59
			c-15.854-49.728-25.735-82.635-32.971-124.597C-5821.265,432.642-5819.623,431.348-5816.826,431.398z M-5477.642,498.526
			l-0.152,14.56c-56.988,3.782-115.429-20.312-162.391-42c35.382,46.931,73.146,88.576,162.385,97.176l0.158,15.033
			c-116.231-1.648-198.096-119.356-193.79-148.69C-5623.624,465.486-5537.257,501.197-5477.642,498.526z M-5798.421,436.866
			c2.791,0.126,6.56,1.313,8.031,2.784c9.502,35.458,16.422,74.831,32.125,114.343c19.295,48.553,30.003,91.405,65.784,131.409
			c11.125,11.434,32.939,11.094,32.939,11.094s-2.759,6.188-6.472,7.217c-7.665,1.162-13.221,1.503-18.815-0.297
			c-20.722-8.757-36.563-30.894-44.746-45.889c-7.665-11.245-26.367-57.563-41.785-104.784
			c-16.782-51.413-30.609-104.866-29.031-115.625C-5799.798,436.891-5799.355,436.828-5798.421,436.866L-5798.421,436.866z
			 M-5779.266,442.839c1.37,0,3.188,0.518,5.38,1.56c2.33,1.118,3.346,1.806,4.559,6.188c0.795,2.86,0.656,7.28,2.064,14.471
			c8.075,37.024,19.219,67.084,30.281,96.374c10.506,27.825,21.782,55.145,35.686,79.844c7.021,12.438,13.985,24.075,18.373,28.469
			c11.978,11.971,32.295,12.564,38.28,0.688c3.321-6.756,2.64-17.458-3.927-22.995c-5.096-4.862-16.637-2.81-16.946,3.056
			c0,1.56,2.873,0.865,7.033,0.373c11.618-1.339,15.254,19.225,0.31,22.66c-18.916,4.344-32.042-21.233-15.343-36.91
			c28.305-19.188,49.911,7.033,43.218,32.251c-6.459,14.907-17.287,22.502-31.594,23.033c-18.462,0.594-26.102-5.114-45.03-32.624
			c-21.694-34.833-31.114-68.82-46.406-106.905c-14.465-36.02-24.094-74.427-28.627-107.972
			C-5781.551,443.363-5780.636,442.832-5779.266,442.839L-5779.266,442.839z M-5761.315,448.786c1.673,0.057,5.19,0.934,6.737,1.894
			c0.928,0.574,2.267,1.85,2.267,1.85c25.451,92.864,46.665,148.494,68.271,187.754c0,0-0.354,7.223-1.787,9.275
			c-2.576,3.675-3.833,2.772-7.186-3.037c-13.593-26.31-26.537-55.359-38.596-85.312c-14.194-35.244-26.783-71.725-32.125-106.438
			C-5763.456,450.302-5764.459,449.045-5761.315,448.786L-5761.315,448.786z M-5589.637,501.866c3.599,0,6.529,2.904,6.529,6.503
			s-2.93,6.528-6.529,6.528c-3.599,0-6.534-2.93-6.534-6.528S-5593.235,501.866-5589.637,501.866z M-6118.456,500.679
			c-7.545,10.279-13.726,47.088-21.581,47.53c-8.637-0.133-19.144-5.089-25.918,2.721c-8.227,9.49-3.176,19.97,6.97,25.748
			c4.666,2.311,14.591,2.854,20.627,1.13C-6113.663,569.525-6104.281,529.458-6118.456,500.679z M-5564.949,510.339
			c5.202,0,9.407,4.23,9.407,9.433c0,5.203-4.205,9.408-9.407,9.408c-5.203,0-9.408-4.205-9.408-9.408
			C-5574.357,514.57-5570.152,510.339-5564.949,510.339z M-6118.014,514.803c8.441,21.227-0.903,46.609-11.188,55.157
			c-9.471,7.867-24.333,8.884-32.813,1.219c-7.071-6.642-3.927-22.591,9.25-21.404c4.432,0.145,9.71,4.173,12.685,8.435
			C-6131.494,559.095-6121.612,515.574-6118.014,514.803z M-5532.143,519.993c5.872,0,10.632,4.754,10.632,10.626
			c0,5.865-4.761,10.626-10.632,10.626c-5.866,0-10.62-4.761-10.62-10.626C-5542.763,524.748-5538.009,519.993-5532.143,519.993z
			 M-5494.513,527.494c5.992,0,10.841,4.849,10.841,10.841s-4.849,10.847-10.841,10.847s-10.847-4.855-10.847-10.847
			S-5500.504,527.494-5494.513,527.494z M-5844.67,576.805c1.616-0.013,2.753,1.547,3.807,4.66c2.21,6.465,2.16,7.223-1.275,11.561
			c-33.356,46.167-2.949,93.375,45.371,98.502c4.079,0.29,6.125,4.874,8.284,10.216c-0.297,2.526-0.315,2.519-11.283,2.721
			c-7.167,0.133-12.912-0.316-16.498-1.282c-16.934-4.559-37.681-19.857-46.154-34.031c-9.774-16.334-11.403-33.223-5.379-55.751
			c3.871-14.458,8.776-24.005,16.378-31.872C-5848.389,578.383-5846.293,576.818-5844.67,576.805z M-5528.481,581.932l0.562,158.407
			l-16.877,6.156l0.688-168.471L-5528.481,581.932z M-5496.559,588.044c21.025,52.19,21.953,100.023,2.974,143.551l-19.168,2.772
			c26.29-61.313,15.108-105.207,0.252-147.579L-5496.559,588.044z M-6504.797,596.744l68.252,64.407l2.374,717.532l-10.879-3.845
			l-4.337-705.757l-55.41-50.807V596.744z M-5838.299,598.809c0.114,0,0.234,0.013,0.347,0.031c1.825,0.215,3.498,2.519,5.032,6.869
			c1.806,5.133,1.78,5.285-0.253,10.38c-9.363,22.951-1.717,44.797,21.404,51.685c5.493,1.736,6.402,2.633,9.628,9.439
			c2.09,4.42,3.031,6.017,2.216,7.002c-1.2,0.871-4.142,1.282-12.843-0.6c-34.41-11.737-46.898-49.38-31.247-79.244
			c1.951-3.416,3.738-5.272,5.373-5.531C-5838.526,598.815-5838.413,598.802-5838.299,598.809z M-6112.293,595.961
			c0,0,7.185,25.394,6.497,31.159c-1.825,11.131-17.641,28.911-31.468,35.408c-12.836,4.912-32.207,2.443-40.313-6.099
			c-29.454-34.467,25.495-69.067,39.31-33.185c8.302,23.544-25.47,29.113-26.966,11.03c-0.013-4.66,1.496-6.118,5.84-9.155
			c3.864-2.696,3.422-5.095,0.102-5.095c-12.754,4.653-13.051,16.41-7.312,23.822c11.491,12.009,25.71,5.013,35.509-3.801
			c13.189-11.883,15.778-28.93,18.796-44.083H-6112.293z M-5827.345,622.157c0.663,0,14.162,32.257,15.948,36.854
			c-0.448,3.239-3.971,2.999-9.995-1.206c-6.112-4.268-7.943-7.286-10.531-17.186
			C-5832.692,637.102-5834.012,624.285-5827.345,622.157z M-6101.326,635.776c2.968,0,6.055,10.91,4.653,16.498
			c-2.425,9.679-27.781,26.032-45.592,29.41c-3.58,0.676-7.4,1.395-8.505,1.591c-3.681,0.657-7.98-1.402-12.463-5.967
			c-3.164-3.22-4.666-6.427-3.908-7.185c0.619-0.619,8.789,0.802,15.715,0.695c19.409,0.221,34.391-13.695,45.914-30.294
			C-6103.757,637.91-6101.875,635.776-6101.326,635.776z M-6487.106,643.851c0,0,13.139,11.889,20.059,18.708
			c-0.739,31.632-12.419,65.935-12.407,94.215c0.278,24.605,16.201,45.093,17.811,66.503c0.96,13.846-3.112,34.417-9.938,49.999
			c-6.358,14.509-9.698,29.978-9.686,44.999c0.808,34.953,25.912,73.171,17.091,107.751c-8.284,32.485-17.716,51.243-15.216,68.499
			c4.824,33.286,22.515,62.784,17.812,90.47c-4.382,25.779-16.031,51.527-14.781,74.781c1.439,26.846,11.479,49.292,14.313,73.783
			c1.843,15.949-2.658,40.762-2.658,40.762l-18.411,1.515c10.121-37.706-4.962-71.807-10.746-108.061
			c-4.918-30.862,8.909-55.423,13.032-81.751c2.563-16.346-0.334-31.923-8.435-52.745c-16.012-38.458-10.254-63.517,1.282-97.005
			c14.263-35.66-5.354-63.896-10.254-98.06c-2.519-29.441-0.556-50.258,10.5-76.441c8.246-25.198,10.569-39.815-1.717-63.997
			c-7.766-15.286-9.799-24.314-9.812-44.437C-6495.251,713.41-6484.479,691.022-6487.106,643.851L-6487.106,643.851z
			 M-6092.544,659.775c2.86,0,4.281,2.021,4.281,6.093c0,7.45-11.112,16.889-30.755,26.126c-10.184,4.792-16.1,5.506-22.061,2.69
			c-5.562-2.633-5.291-4.937,0.814-6.718c15.355-4.483,26.247-10.614,38.653-21.751
			C-6097.664,662.673-6093.579,659.775-6092.544,659.775L-6092.544,659.775z M-6181.43,664.914
			c50.675,54.236,100.364,82.149,138.349,95.193l-5.973,14.174c-49.917-19.333-100.832-46.229-143.961-104.032L-6181.43,664.914z
			 M-6083.799,673.772c1.37,0,6.535,6.541,6.535,8.284c0,1.016-1.881,4.293-4.192,7.248c-3.353,4.3-6.308,6.51-14.686,11.093
			c-11.346,6.213-18.203,7.728-23.121,5.127c-4.893-2.589-3.245-4.754,8.966-11.939c6.307-3.706,14.724-9.686,18.688-13.278
			C-6087.644,676.715-6084.14,673.772-6083.799,673.772L-6083.799,673.772z M-6218.018,681.778
			c41.513,56.793,94.966,94.537,157.807,114.665l-9.875,13.354c-57.417-19.775-113.554-55.555-164.854-118.561L-6218.018,681.778z
			 M-6073.047,688.774c2.084,0,6.781,5.291,6.781,7.659c0,1.13-0.922,3.208-2.033,4.622c-2.222,2.823-13.808,11.542-18.752,14.099
			c-3.857,1.995-6.756,1.964-10.967-0.126c-4.994-2.488-4.142-4.571,4.003-9.812c3.984-2.57,10.014-7.33,13.404-10.563
			C-6077.22,691.413-6073.817,688.774-6073.047,688.774z M-6240.041,692.916c-1.181,1.484-61.111,138.765-188.094,236.098
			l-0.6-22.799c70.336-55.782,121.471-132.154,160.042-198.847L-6240.041,692.916z M-6060.987,702.778
			c1.926-0.057,3.277,1.25,4.628,3.807c1.61,3.069-0.145,5.796-7.248,11.156c-4.438,3.353-6.086,4.003-9.755,3.94
			c-9.445-0.171-9.212-2.45,1.162-11.719C-6066.821,705.152-6063.456,702.841-6060.987,702.778z M-5815.766,709.559l26.468,2.027
			c7.128,4.963-103.452,77.338-180.126,70.847l2.033-17.344C-5900.08,767.008-5813.928,712.684-5815.766,709.559z
			 M-6042.816,716.334c6.081,3.409,13.657,7.438,11.769,8.757c-2.816,1.755-20.772,0.619-24.908-1.597
			c-3.094-1.654-2.923-2.519,1.345-7.312C-6049.382,710.317-6048.479,713.183-6042.816,716.334L-6042.816,716.334z
			 M-6278.763,712.028c-41.949,73.998-91.904,141.536-149.732,185.544l-0.77-39.139c55.038-42.365,96.696-119.76,96.803-120.032
			L-6278.763,712.028z M-5753.41,716.744l12.83,7.488c-79.983,74.03-166.369,105.939-249.383,97.946l6.68-14.995
			C-5848.578,817.828-5759.124,718.171-5753.41,716.744z M-5733.97,719.371c0,0,4.299-0.543,3.845,0.335
			c-26.562,26.025-63.018,53.806-86.896,69.307c-113.093,116.136-209.903,207.787-308.411,311.239l-15.747-16.479l14.256-15.09
			c0.044-29.801,36.551-63.226,58.188-88.968c9.029-10.178,25.988-36.349,24.062-47.347c-0.657-2.513-0.751-3.466-0.751-3.466
			c34.227-6.832,42.422-34.587,43.155-59.123c1.604-16.403,3.789-31.304,9.313-44.784
			C-5838.047,837.407-5738.232,723.367-5733.97,719.371z M-6003.923,736.494c17.571-0.057,30.849,13.846,30.811,33.564
			c-0.139,8.246-3.043,14.503-14.225,36.311c-10.828,18.638-12.242,29.99-16.491,51.521l-11.012-9.894l-20.027,18.045l0.278-26.297
			c0,0,6.914-8.776,18.083-21.322c14.155-15.715,26.972-35.957,26.385-47.322c-0.379-11.371-12.388-20.627-24.674-13.196
			c-10.677,7.457-15.602,20.956-21.884,61.313c-1.118,7.147-2.159,15.563-2.74,17.401c-1.579,4.969-17.022,19.573-17.022,19.573
			c-1.313,0-7.412-29.618-7.412-29.618l-15.595,2.576c18.076-19.623,32.099-43.281,41.216-68.063
			C-6029.86,745.8-6019.196,736.658-6003.923,736.494z M-6343.328,742.776c0,0-31.064,64.514-85.583,106.476l-0.354-25.255
			c31.676-24.573,55.814-66.907,55.782-66.813L-6343.328,742.776z M-5595.812,744.411
			c-107.802,111.635-248.511,317.18-73.891,605.955l23.064-26.619c-140.608-261.164-40.958-396.532,51.597-532.361
			L-5595.812,744.411z M-6178.765,753.617c31.563,22.446,64.515,44.727,107.12,58.889c-2.273,7.589-60.846,56.875-18.815,102.448
			c1.755,2.387-2.715,8.189-9.559,16.416c-20.078,27.44-40.118,46.987-56.9,77.874l-0.688,58.03l-16.782-14.812L-6178.765,753.617z
			 M-5599.953,758.965l0.72,33.091c-160.182,194.68-142.149,369.97-51.603,531.427l-17.344,17.59
			C-5816.586,1085.641-5723.994,893.082-5599.953,758.965z M-5995.134,778.537c-7.059,18.657-37.958,50.618-37.958,50.618
			s4.091-31.121,6.667-40.945c1.97-7.494,6.409-17.622,10.784-22.464C-6003.166,752.032-5990.728,767.595-5995.134,778.537z
			 M-6207.657,761.042l2.999,260.83l-22.515-22.698l-3.315-199.453L-6207.657,761.042z M-6238.07,812.083l4.476,177.096
			c-22.471-53.055-54.059-111.142-54.696-110.574C-6288.291,878.605-6262.436,844.308-6238.07,812.083z M-6060.242,867.492
			c0,0,3.435-2.879,8.82-9.06c11.681-11.8,12.735-11.883,11.655,4.028c-0.41,6.124-0.063,13.972-0.063,13.972
			c6.838-3.965,22.951-23.001,27.503-19.573c3.523,3.308,6.364,10.203,6.434,20.918c-0.391,20.968-12.261,40.219-31.058,46.501
			c-51.906,16.075-86.714-43.792-50.674-81.745c3.58-3.77,13.789-10.759,18.695-9.376
			C-6062.856,844.251-6063.071,856.563-6060.242,867.492z M-5545.25,848.684c3.018,8.252,6.882,16.429,17.395,20.122
			c-1.616,253.6-0.411,702.581-0.411,702.581l51.003,47.859l-0.334,20.911l-67.59-61.875
			C-5545.188,1578.282-5548.817,1048.8-5545.25,848.684L-5545.25,848.684z M-5494.607,860.434
			c1.818,24.529-2.336,50.365,1.875,75.564c4.155,17.42,10.456,33.135,10.967,50.277c0.474,15.683-0.549,24.605-7.249,46.501
			c-4.678,15.279-5.146,17.717-6.219,33.002c-2.525,21.271,4.35,40.547,9.622,57.5c7.015,22.471,5.058,49.652-6.149,85.502
			c-4.041,12.899-4.812,18.335-4.224,30.028c1.547,24.542,10.323,47.878,14.781,71.971c2.418,13.802-0.051,31.866-8.562,62.5
			c-3.163,11.396-6.497,31.241-6.497,38.748c-0.006,8.05,2.57,23.203,5.058,29.751c11.794,30.994,12.375,36.551,12.981,55.176
			c0.088,13.985-3.953,28.141-8.915,40.446c-8.265,19.674-2.835,39.865,0,61.97l-20.331-17.369
			c-5.998-18.922-3.889-36.614,1.673-50.725c7.911-22.092,9.887-24.144,9.78-36.854c-0.145-16.852-9.812-36.784-13.814-48.648
			c-7.097-21.044-7.115-41.677-0.057-63.934c3.466-10.929,8.467-32.365,9.591-41.065c2.165-16.725,0.53-29.927-7.874-63.498
			c-4.098-16.378-4.962-22.698-5.247-39c-0.266-15.103,1.926-30.799,6.781-49.001c6.983-28.924,6.901-46.293-2.191-73.126
			c-7.349-22.174-9.407-37.214-7.532-54.873c1.086-10.241,3.889-19.851,8.593-29.435c8.707-21.751,10.045-42.555,3.567-63.315
			c-11.15-42.498-10.961-64.085-9.862-102.448L-5494.607,860.434z M-5551.734,874.337c-1.769,173.794,0.031,372.767,0.031,372.767
			s-51.489,36.045-51.281,34.17c-66.339-109.387-91.626-270.534,24.251-415.872
			C-5578.732,865.403-5560.082,873.358-5551.734,874.337z M-6334.76,915.761c93.893,175.315,106.104,352.418-49.134,534.11
			c5,16.062,4.18,31.026,1.692,45.68c30.262-23.557,272.978-265.975,68.568-603.518L-6334.76,915.761z M-5856.294,901.492
			l46.116,2.708l3.1,39.67l-14.907,14.781c0,0-0.271-8.202-0.467-15.532c-0.24-8.966-1.509-16.807-2.342-16.53
			c-0.777,0.252-1.623,10.714-2.286,22.124l-0.688,17.028l-5.152,5.158c-6.882,6.869-8.271,6.333-8.536-3.34
			c-0.568-21.038-0.524-22.477-2.059-20.943c-0.865,0.871-1.351,8.069-1.565,18.941c-0.165,8.631-0.771,16.908-1.339,18.373
			c-1.174,3.012-9.938,10.847-12.16,10.847c-2.134,0-2.015-3.043-2.033-16.125c-0.013-11.043-1.162-17.104-2.936-13.032
			c-0.417,0.96-1.155,11.933-1.307,20.842c-0.158,8.909-0.745,17.053-1.288,18.064c-1.913,3.574-10.967,11.232-12.558,10.626
			c-2.286-0.878-2.86-7.431-2.785-18.38c0.038-5.36,0.877-9.887-1.187-11.34c-2.059-1.458-2.431,4.748-1.875,20.501l-0.158,17.123
			l-5.777,6.314c-9.162,9.433-9.792,8.985-9.812-7.318c0.404-12.893-0.05-18.55-2.595-17.527c-2.544,1.023-1.534,7.255-1.035,19.964
			c0.454,11.365,0.309,17.06-0.468,18.506c-0.612,1.149-3.586,4.502-6.591,7.438c-3.005,2.93-6.718,6.996-7.16,6.996
			c-0.695-13.688-1.869-43.155-1.869-43.155l-48.099-2.128c0,0,9.85-11.687,14.036-13.935c2.172-1.168,5.562-1.301,17.622-0.783
			c8.22,0.354,19.27-0.341,20.254-0.72c3.611-1.383-3.921-2.627-14.534-3.309c-7.084-0.511-8.921-0.322-16.782-1.471l7.002-7.217
			l5.247-5.221l15.342,0.499c9.288,0.316,16.182,0.259,17.25-0.341c9.085-1.793,0.581-3.858-9.774-3.877
			c-10.108-0.012-15.816-0.031-15.816-2.248c0-2.26,11.308-12.52,14.528-13.19c1.667-0.341,9.887-0.682,18.285-0.751
			c14.421-0.114,19.655-0.322,18.841-2.715c-0.809-2.393-10.354-1.692-16.719-1.97c-17.653-0.025-18.468-0.695-6.402-11.251
			l5.84-5.127l11.068,0.316c16.693,0.467,24.775-0.202,24.775-1.781c0-1.427-10.866-2.816-20.091-2.816
			c-5.518,0-10.001,0.094-10.001,0.094c4.123-5.367,8.543-9.717,13.373-14.496l14.906-0.284c10.885,0.164,17.571,0.581,17.755-1.408
			c0.183-1.982-3.902-1.964-8.909-1.995c-6.768-0.044-14.812-0.625-15.873-1.692c-1.143-1.143,0.991-4.325,5.72-8.562
			L-5856.294,901.492L-5856.294,901.492z M-6312.857,902.01c128.997,210.73,82.433,438.443-61.408,580.169l-4.218-27.655
			c135.791-165.131,159.5-335.629,49.652-536.25L-6312.857,902.01z M-6072.952,930.309c-23.159,34.827-58.573,69.174-71.939,97.611
			c-2.734,3.201-3.624,10.418-7.873,11.857c-2.122,0-2.816-4.022-2.286-13.316c0.404-6.996,1.061-9.351,4.438-16.188
			c18.279-33.362,39.461-57.342,62.848-89.031L-6072.952,930.309z M-6067.528,933.68l21.41,1.357
			c-4.754,15.141-11.182,25.95-18.752,35.78c-9.717,12.603-21.397,25.306-35.01,40.806c-19.718,22.458-29.599,45.321-28.677,55.372
			c-4.938,5.203-8.353,8.782-14.623,14.105l-12.482-11.478C-6146.407,1022.136-6101.572,978.502-6067.528,933.68z
			 M-5805.606,952.962l6.933,0.404c23.746,1.395,38.552,2.847,39.411,3.876c0.53,0.638,1.225,4.287,1.56,8.094
			c0.518,5.79,0.019,9.641-3.031,23.437c-2.008,9.073-4.262,17.123-5,17.874c-2.734,2.778-3.82,0.013-5.095-12.874
			c-0.764-7.772-1.073-13.442-2.09-12.811c-0.486,0.303-1.56,8.65-1.25,14.875c0.795,16.208,0.688,20.173-4.344,25.06
			c-8.82,8.562-9.307,7.696-9.97-7.501c-0.278-6.301-1.78-15.494-2.223-15.936c-1.907-1.907-2.544,6.825-2.557,21.593v15.753
			l-4.187,4.559c-5.468,5.929-7.242,6.825-9.256,4.817c-1.237-1.244-0.776-3.94-0.776-12.937c0-10.55-1.844-16.618-3.846-14.597
			c-0.378,0.379-0.473,10.582-0.499,19.472c-0.032,8.884-0.145,16.744-0.252,17.464c-0.322,2.134-10.323,12.192-12.123,12.192
			c-2.103,0-3.782-11.605-3.782-21.094c0-6.339-1.352-7.45-2.69-3.971c-0.334,0.871-0.593,9.768-0.593,17.755v14.496l-5.872,6.061
			c-7.86,8.132-9.143,7.659-9.155-3.466c-0.019-9.584-0.663-14.654-2.601-14.654c-1.105,0-1.37,4.54-1.37,15.311
			c0,7.387-0.486,14.698-1.067,16.252c-0.581,1.547-3.157,4.95-5.714,7.558c-2.563,2.614-5.19,4.754-5.847,4.754
			c-1.08,0-2.633-9.085-2.216-13c0.088-0.827,0.088-6.547,0-12.722c-0.209-14.73,0.795-14.105-22.718-14.844
			c-27.591-0.865-27.995-1.029-19.686-9.06c7.879-7.627,6.768-7.343,25.059-6.124c14.687,0.979,16.46,0.916,17.938-0.562
			c0.903-0.903,1.402-1.875,1.124-2.159c-0.277-0.278-5.872-0.789-12.438-1.156c-18.171-1.004-19.75-2.311-12.059-10.001
			l4.344-4.375h18.588c12.552,0,21.088-0.549,21.555-1.301c1.2-1.951-3.776-2.437-15.708-3.132
			c-6.409-0.379-12.445-0.909-13.404-1.193c-3.037-0.89-1.907-3.952,3.214-8.745l4.937-4.628h16.41
			c15.235,0,22.686-0.991,22.686-2.999c0-1.421-3.024-1.995-10.841-2.096c-11.062-0.139-18.442-1.206-18.936-2.715
			c2.69-5.221,6.421-8.145,10.778-12.501l16.687,0.594c16.795,0.594,22.061-0.013,22.061-2.936c0-1.528-7.185-2.626-16.498-2.064
			c-5.992,0.36-13.252-1.073-13.252-3.188c0-0.909,2.412-4.066,5.379-7.002l5.405-5.31l16.346,0.657
			c9.117,0.366,18.834,0.278,19.561-0.221c2.721-1.856-3.58-3.309-13.846-3.902c-15.829-0.922-16.864-2.153-8.499-10.064
			L-5805.606,952.962z M-6375.484,961.713c84.675,151.626,71.984,294.47-18.19,416.029c-10.354-6.023-21.385-9.313-33.185-10.557
			l-2.286-366.1L-6375.484,961.713z M-5769.89,1020.962c1.699-0.259,1.661,2.526,1.188,8.41c-0.385,4.723-1.093,9.673-1.598,10.999
			c-0.972,2.557-1.742,2.671-9.963,1.496c-9.363-1.332-9.231-3.024,1.061-13.152
			C-5774.221,1023.81-5771.386,1021.196-5769.89,1020.962z M-6224.483,1027.775c0,0,11.157-0.07,16.726,0.133
			c0,0,0.865,28.368,3.144,44.733l36.292,1.743l-14.086,14.654l-27.521-0.878C-6209.93,1088.16-6218.296,1047.891-6224.483,1027.775
			z M-5792.013,1044.929c5.107-0.082,18.524,2.216,20.09,3.782c1.231,1.231,1.269,4.255,0.189,22.565
			c-0.391,6.598-0.79,20.772-0.877,31.5c-0.158,19.415-0.158,19.497-2.406,19.813c-2.961,0.423-3.296-0.619-4.091-13.404
			c-0.448-7.204-1.446-13.505-2.279-13.783c-0.973-0.322-0.878,6.03-0.878,19.156v16.965c-2.892,2.399-5.562,5.569-8.877,7.255
			c-2.033,0-3.119-3.188-4.123-12.066c-0.997-8.814-1.976-15.027-3.157-13.063c-0.278,0.461-0.164,10.058,0.404,17.938l1.036,14.345
			l-6.377,6.408c-6.541,6.598-7.362,7.128-8.41,5.436c-2.431-6.535,1.017-36.462-4.875-40.25c-0.941-0.499-8.763-0.714-17.843-1.092
			c-15.324-0.65-24.018-0.903-26.152-2.753c-1.301-1.117,5.935-9.509,9.654-11.188c2.677-1.206,5.708-1.282,18.342-0.436
			c14.629,0.979,22.01,0.871,20.065-0.998c-0.505-0.486-7.955-1.578-13.783-2.159c-11.756-1.162-15.905-2.349-15.905-4.527
			c2.74-4.862,6.093-7.722,10.127-11.876l5.683,0.594c3.131,0.309,10.525,1.105,16.441,1.781c5.91,0.676,17.85,0.789,13.032,0.372
			c1.566-1.559-4.54-3.169-13-4.218c-15.955-1.976-17.407-3.782-9.376-11.687l4.937-4.843c8.379,0.638,16.846,0.846,25.154,2.122
			c6.087,0.966,9.376,0.625,9.376-1.433c0-1.439-3.03-1.389-10.373-2.847c-2.665-0.531-16.397-0.322-16.625-4.375
			C-5803.649,1053.478-5797.847,1045.296-5792.013,1044.929L-5792.013,1044.929z M-6163.89,1079.34
			c2.437-0.139,2.557,5.796,2.81,21.467c0.284,17.161,0.562,20.122,2.033,21.593c1.408,1.408,4.925,1.894,20.002,2.658
			c23.077,1.168,23.67,1.509,15.526,9.344c-5.657,5.449-5.897,4.76-10.557,4.218c-12.191-1.427-30.022-1.099-30.723,0.032
			c-1.2,1.951,0.101,2.336,11.251,3.188c13.568,1.035,17.281,1.509,17.281,3.813c0,1.01-2.311,3.99-5.121,6.623l-5.127,4.78
			l-14.282-0.562c-15.027-0.606-22.755-0.821-22.755,1.219c0,1.238,8.587,2.595,22.193,3.94c3.53,0.347,7.147,0.404,7.343,0.998
			c0.486,1.477-6.39,9.995-10.626,13.158c-3.454,2.57-4.615,1.136-19.687,0.814c-15.387-0.335-16.719,0.246-13.846,3.094
			c0.688,0.676,3.227,0.751,8.972,1.155c9.414,0.657,13.935,2.071,13.935,4.407c0,2.229-8.492,11.018-12.47,12.905
			c-3.504,1.661-5.013,1.736-12.779,0.657c-6.118-0.859-7.286-2.134-7.128-7.88c0.076-2.589,0.53-19.352,1.004-37.277
			c0.916-34.612,1.206-36.374,5.777-35.723c1.957,0.284,2.418,2.639,2.942,14.376c0.556,12.495,1.08,14.97,3.157,14.97
			c0.77,0,0.896-4.957,0.404-17.003c-0.757-18.683-0.789-21.461,4.906-26.872c2.538-2.412,4.552-4.344,5.752-2.595
			c2.412,7.375,1.724,15.418,2.437,22.812c-0.07,7.444,2.829,9.003,3.498,1.907c-0.341-11.239-0.423-21.328-0.499-33.343
			l6.939-6.876C-6167.665,1081.707-6165.354,1079.422-6163.89,1079.34z M-6208.856,1093.337c2.753-0.455,18.196-0.196,20.431,0.316
			c-3.883,6.143-12.16,14.13-17.811,17.653C-6207.657,1111.388-6209.128,1096.412-6208.856,1093.337L-6208.856,1093.337z
			 M-5771.449,1127.306l3.277,23.096l-25.217-1.718L-5771.449,1127.306z M-6111.264,1131.056c0.164-0.012,0.322,0.025,0.436,0.063
			c1.818,0.701,2.336,5.152,3.062,26.594c0.341,10.096,1.035,18.001,1.661,18.752c0.726,0.878,3.87,1.313,9.717,1.313
			c4.742,0,13.682,0.297,19.869,0.657c13.499,0.777,13.853,1.345,5.815,9.281l-5.437,5.373l-16.908-0.688
			c-17.331-0.707-20.217-0.417-20.217,1.97c0,1.623,2.955,2.393,8.499,2.248c2.204-0.057,7.715,0.233,12.249,0.656
			c10.127,0.947,10.33,1.711,2.785,9.843l-5.436,5.847l-5.285-0.72c-8.492-1.168-30.805-0.884-32.093,0.404
			c-2.083,2.083,0.625,2.974,10.784,3.593c15.753,0.966,18.499,1.427,18.499,3.22c0,0.871-2.229,3.826-4.938,6.535l-4.906,4.906
			l-20.002-1.036c-14.023-0.233-18.809,0.006-19.125,0.909c-0.543,1.579,1.755,2.065,16.22,3.561
			c13.884,1.44,15.904,2.866,10.626,9.439c-5.796,7.21-7.98,8.025-18.91,6.97c-12.028-1.162-24.314-1.193-26.095-0.063
			c-2.765,1.755,0.076,2.923,8.625,3.561c12.95,0.966,20.5,2.355,20.5,4.249c0,2.147-4.287,7.646-8.435,10.815l-3.403,2.595
			l-14.787-1.566c-14.724-1.566-22.25-0.783-20.154,1.313c0.606,0.612,6.086,1.465,12.154,1.907
			c11.106,0.802,16.624,2.241,16.624,4.533c0,0.682-2.829,4.041-6.276,7.469c-3.504,3.466-7.438,5.771-7.438,5.771l-45.498-4.085
			c0,0-2.33-8.119,2.248-30.186c4.117-19.895,5.802-24.359,7.778-20.659c0.549,1.029,1.055,5.859,1.44,9.155
			c0.915,7.987,2.879,13,4.06,13c1.319,0,1.313-4.741-0.41-15.904c-2.393-15.557-2.671-16.176,3.251-22.439
			c5.076-5.367,7.949-6.629,9.534-4.186c0.448,0.688,1.055,7.735,1.654,13.657c1.061,10.405,1.68,12.792,3.037,11.434
			c0.871-0.871,1.515-3.851,0.556-19.276l-1.212-15.002l6.655-6.781c6.086-6.2,6.781-6.629,8-5.032
			c0.839,1.092,1.774,7.539,2.216,15.216c0.656,11.359,1.565,15.096,3.22,13.442c0.783-0.789,0.398-26.568-0.436-32.535
			c-0.549-3.896-0.278-4.47,4.653-10.001c5.872-6.585,8.959-9.306,10.563-9.344c2.115-0.038,3.264,6.427,3.283,15.033
			c0.012,9.18,0.732,12.817,1.591,13.973c2.204,2.955,2.456-7.413,1.938-17.66l-0.593-18.689l6.061-6.061
			c5.739-5.739,6.2-5.986,7.816-4.375c1.326,1.332,1.238,4.508,1.781,13.941c0.802,13.038,3.359,19.396,4.091,10.342
			c0.385-2.046,0.328-6.036-0.126-8.877c-0.455-2.835-0.821-9.275-0.808-14.282c0.019-7.633,0.385-9.673,2.248-12.684
			C-6121.694,1138.102-6113.765,1131.309-6111.264,1131.056z M-5848.42,1145.275c0,0,10.159,8.682,10.159,11.156
			c0,1.105-4.021,5.872-9.471,11.22c-10.045,9.856-10.992,11.548-12.16,22.124c-0.43,3.946-2.418,9.174-7.059,18.5
			c-3.562,7.154-8.688,15.5-8.688,15.5c-16.037,19.156-31.152,36.696-59.261,77.136c-1.604,3.713-1.686,7.438-3.328,10.519
			c-1.269,2.292-4.104,4.174-5.348,4.691c-1.85,0.777-5.562,3.075-8.252,5.127c-10.493,8.012-17.262,18.562-20.312,31.689
			c-1.654,7.09-2.633,13.467-5.499,35.338c-1.181,8.991-5.127,24.662-5.127,24.662c-60.385-0.859-116.913,9.597-167.31,38.041
			L-5848.42,1145.275z M-5767.736,1154.556l13.442,61.036l-13.847-0.284l-1.376-44.31l-43.187-4.129l15.438-14.938
			L-5767.736,1154.556z M-5833.261,1160.15c3.7,3.77,8.303,7.905,11.655,12.003c-11.555,38.603-48.118,88.69-84.441,138.373
			l-26.625-2.904c-0.467-1.092,36.879-53.168,54.747-72.906c6.812-8.246,11.44-16.062,17.515-28.21
			c2.197-4.394,6.036-15.772,8.991-27.635C-5845.144,1171.3-5833.223,1160.264-5833.261,1160.15L-5833.261,1160.15z
			 M-5818.922,1173.68l20.128,20.406l4.912,288.958c-31.039-24.365-67.621-42.404-106.634-56.143l6.807-15.532l7.507-8.063
			c26.53-28.709,20.614-59.621,0.436-81.467c24.586-35.856,46.861-62.563,65.594-97.561l-0.247-24.005
			C-5820.64,1178.157-5818.922,1173.68-5818.922,1173.68L-5818.922,1173.68z M-6059.699,1185.746
			c2.103-0.215,2.368,5.127,2.904,20.28c0.499,14.162,1.092,20.874,2.033,22.344c1.256,1.976,2.469,2.147,19.181,2.658
			c17.647,0.537,21.315,1.042,21.315,2.936c0,0.537-2.267,3.252-5.032,6.03l-5.032,5.032l-15.722-0.253
			c-8.372,0.271-18.266,0.107-18.524,0.347c-1.389,1.288,3.839,3.05,11.497,3.062c4.767,0.006,12.35,0.853,13.215,1.187
			c2.98,1.143,1.585,4.085-4.899,10.311l-6.472,6.25l-14.282-0.278c-7.842-0.145-17.388,0.088-18.625,0.499
			c-4.338,1.439-2.179,2.62,5,2.715c12.016,0.17,20.299,1.168,20.659,3.037c0.17,0.903-2.059,4.237-5.001,7.406l-5.348,5.714
			l-21-0.871c-19.851,0.145-22.528,1.623-5.966,3.277c6.326,0.631,16.302,2.197,16.655,2.254c0.354,0.057,0.922,0.802,1.25,1.654
			c0.701,1.818-7.299,10.828-11.561,13.031c-2.197,1.136-3.725,1.212-7.533,0.341c-4.477-1.01-23.708-0.827-25.779,0.41
			c-1.742,1.042,2.033,2.235,7.375,2.342c8.037,0.164,17.622,2.488,17.622,4.407c0,1.572-4.072,6.617-8.404,10.405
			c-2.008,1.755-6.774,0.189-20.065,0.625c-9.098,0.303-15.153,1.149-15.153,1.749c0,0.556,4.508,2.336,10.311,2.753
			c5.746,0.41,13.625,1.78,14.155,2.311c1.351,1.351-8.871,13.423-8.871,13.423l-43.667-0.613l-4.028-46.249l3.725-4.281
			c8.354-9.654,10.178-8.252,11.845,9.06c1.219,12.685,2.128,16.561,3.965,14.724c0.669-0.676,0.398-7.911-0.278-18.563
			c-0.562-8.763-1.035-16.757-1.035-17.754c0-2.406,9.931-12.842,11.876-12.47c1.907,0.373,2.974,4.691,3.997,16.536
			c0.846,9.729,1.301,12.388,3.22,10.468c0.896-0.896,1.022-5.992,0.126-18.316l-1.187-16.094l4.217-4.994
			c8.46-10.039,10.127-8.921,11.157,7.375c0.694,10.992,1.755,16.776,3.782,16.776c0.682,0,0.701-8.214,0.278-20.621l-0.619-18.626
			l5.278-5.373c2.911-2.948,5.878-5.348,6.566-5.348c2.052,0,3.232,4.679,4.527,15.721c1.452,12.375,1.938,14.503,3.125,13.31
			c0.505-0.505,0.397-7.993-0.278-17.622l-1.471-18.436l6.434-6.535c3.548-3.58,7.109-6.371,7.912-6.219
			c1.938,0.373,3.188,5.954,3.34,13.846c0.139,7.368,1.396,13.707,3.03,15.343c0.814,0.808,1.048-3.725,0.846-16.877
			c-0.315-20.242-0.833-21.789,8.284-31.279C-6062.396,1187.489-6060.804,1185.854-6059.699,1185.746L-6059.699,1185.746z
			 M-5823.961,1194.017l0.196,28.26c-11.327,24.232-37.504,59.754-64.035,97.877l-13.84-7.501
			C-5868.448,1269.145-5840.699,1228.592-5823.961,1194.017z M-6202.953,1202.901c0.625-0.006,1.313,0.019,2.09,0.063
			c7.166,0.417,7.362,2.892,0.694,9.124c-2.797,2.614-5.973,4.691-7.191,4.691c-2.064,0-2.166-0.309-1.534-5.689
			C-6208.111,1204.473-6207.31,1202.932-6202.953,1202.901L-6202.953,1202.901z M-5770.42,1223.275l19.561,19.251l4.906,206.941
			l-20.589,33.577L-5770.42,1223.275z M-5745.916,1250.551c17.628,41.501,35.957,80.413,56.244,111.963l-52.297,73.84
			L-5745.916,1250.551z M-5921.856,1315.059c24.043-0.335,46.18,18.695,48.97,38.028c5.253,22.206-6.188,46.129-24.952,53.472
			c-6.541,2.343-10.373,2.507-10.373,2.507c-2.279-13.392-1.294-26.291-4.338-39.884c0,0-11.251,14.844-17.584,20.04
			c-3.283,1.818-4.754,2.304-4.325-1.995c0.214-7.52,0.789-24.201,0.789-24.201l-27.787,28.753c0,0-2.26-3.125-4.937-10.285
			c-8.72-23.361,2.607-47.758,20.507-58.965C-5938.089,1317.402-5929.875,1315.167-5921.856,1315.059L-5921.856,1315.059z
			 M-5552.233,1313.31l0.53,25.293c-43.603,33.804-105.794,105.036-159.089,197.875l-23.475,9.894
			C-5698.107,1459.967-5621.773,1371.966-5552.233,1313.31z M-5551.76,1346.572l0.461,37.706
			c-38.47,36.986-71.902,75.197-100.989,124.382c-16.984,8.151-48.446,23.645-48.446,23.645
			C-5704.674,1531.351-5615.03,1391.797-5551.76,1346.572L-5551.76,1346.572z M-5939.851,1378.86
			c1.755-0.019,1.667,3.378,1.118,8.29c-1.25,11.131-2.551,15.172-6.624,20.596c-14.092,16.637-36.481,39.266-39.537,60.316
			c-1.54,11.239,7.236,21.764,15.86,20.684c26.79-3.346,29.669-50.946,31.923-74.427c0.947-5.821,1.376-10.708,2.349-12.539
			c5.645-7.21,11.712-14.225,19.327-19.92l3.283,36.386l15.09-5.039c-42.561,57.847-30.332,61.471-52.777,85.167
			c-20.867,22.016-61.345-3.069-50.984-36.544c8.998-22.521,22.932-45.131,26.688-69.262c1.023-7.166,1.617-12.141,1.617-12.141
			l9.679,20.192C-5957.915,1395.762-5943.551,1379.713-5939.851,1378.86z M-5550.169,1391.343l-0.095,25.969
			c-19.844,22.351-36.974,39.512-57.247,70.399l-32.2,14.68C-5618.692,1462.348-5584.2,1424.882-5550.169,1391.343z
			 M-5943.626,1414.255c0,0,2.134,12.129-2.576,34.145c-2.235,10.443-12.28,40.926-28.166,33.741
			c-13.486-11.914,2.948-34.012,11.226-44.455C-5956.734,1430.185-5949.789,1422.078-5943.626,1414.255L-5943.626,1414.255z
			 M-5986.017,1417.368l-8.776,18.783c-78.897,0.291-155.521,28.507-223.723,86.127l-17.25-5.657
			C-6163.511,1448.287-6073.943,1415.063-5986.017,1417.368z M-5903.079,1431.808c88.917,29.77,129.97,73.208,163.604,118.775
			l-14.061,7.204c-35.244-45.611-78.74-87.345-159.727-111.477L-5903.079,1431.808z M-6004.946,1459.904l-3.782,16.094
			c-49.797,1.49-102.34,19.162-153.469,54.652l-18.437-2.936C-6129.176,1487.338-6070.407,1464.28-6004.946,1459.904z
			 M-5777.39,1568.622l-15.791,7.457c-47.126-61.136-89.732-78.544-138.146-94.114l5.215-13.562
			C-5861.055,1485.665-5813.315,1518.692-5777.39,1568.622z M-6434.493,1496.537l1.364,163.143l-11.358-2.273l-1.616-157.776
			L-6434.493,1496.537z M-6460.803,1505.383c-21.656,81.151-4.868,102.164,2.968,149.511l-17.938-2.866
			c-17.458-47.966-19.251-91.62-4.527-142.553L-6460.803,1505.383z M-5915.827,1517.84c1.358,1.294-1.099,5.279-4.438,7.248
			c-3.233,1.913-2.519,1.623-7.69-0.246c-5.026-1.818-11.434-6.573-11.434-8.378
			C-5935.722,1516.533-5919.047,1516.35-5915.827,1517.84z M-5900.547,1518.995c2.967,0.36,11.548,0.196,12.084,2.879
			c0.196,1.604-3.163,4.199-10.051,8.902c-10.462,7.147-14.023,8.555-17.091,5.158c-2.911-3.214-2.059-6.547,2.841-11.062
			C-5907.991,1520.473-5905.232,1518.976-5900.547,1518.995z M-6257.7,1520.776c5.985,0,16.719,7.412,23.185,15.999
			c6.554,10.266,14.099,20.81,20.185,31.19c13.846,23.601,24.529,47.543,33.469,72.066c23.431,58.289,37.176,114.81,48.598,170.965
			c-0.215,4.735-4.325,4.647-7.69,3.529c-1.755-0.562-3.491-1.73-3.845-2.62c-4.842-13.758-6.516-27.825-10.215-41.627
			c-9.25-34.53-12.564-54.312-30.376-103.003c-9.243-25.262-22.629-60.436-37.251-87.465c-9.37-17.325-20.217-33.343-34.278-47.499
			c-3.725-3.706-8.347-7.091-8.347-7.817C-6264.267,1522.102-6261.931,1520.776-6257.7,1520.776z M-5877.735,1522.651
			c5.556,1.364,18.96,2.936,13.878,7.375c-18.847,7.248-24.952,15.103-34.941,23.096c-1.509,0-7.463-7.381-7.463-9.187
			C-5898.161,1533.971-5887.951,1529.722-5877.735,1522.651z M-6230.45,1522.714c7.873-0.284,15.576,9.9,19.213,16.315
			c24.226,35.648,44.967,86.487,62.033,136.309c18.367,53.629,30.028,105.2,35.092,141.783c-0.43,1.136-2.709,1.56-5.316,1.541
			c-4.963-0.044-5.664-1.187-6.933-5.133c-12.634-60.524-29.599-122.999-50.125-176.029c-11.03-28.267-23.531-56.641-41.122-85.129
			c-11.996-17.584-18.809-26.815-18.285-28.185c0.36-0.934,2.343-1.408,4.66-1.408
			C-6230.98,1522.746-6230.708,1522.727-6230.45,1522.714L-6230.45,1522.714z M-6284.609,1523.775
			c10.626-0.031,28.216,12.583,40.155,28.785c25.318,34.701,39.809,75.254,54.842,114.595
			c17.269,45.081,29.719,95.181,37.157,134.623c1.269,5.651,3.34,8.132-2.002,9.906c-8.075-2.304-7.892-2.077-10.184-11.908
			c-3.15-10.563-4.11-21.233-7.09-31.967c-17.072-61.414-36.19-129.572-67.943-185.032c-38.142-61.054-49.241-44.07-55.372-54.842
			C-6294.579,1525.498-6290.33,1523.794-6284.609,1523.775L-6284.609,1523.775z M-6192.832,1538.682
			c32.781,57.039,47.233,92.055,57.203,126.503c15.109,52.202,33.002,93.893,40.863,154.846c0,0-8.612,0.158-12.059-1.25
			c-1.427-1.421-2.949-7.513-3.846-12.501c-7.873-43.041-20.684-93.968-34.315-134.093c-14.68-44.67-32.149-87.149-57.967-128.189
			c-6.769-11.055-8.057-15.406-3.908-15.595C-6199.468,1528.908-6196.21,1534.596-6192.832,1538.682L-6192.832,1538.682z
			 M-5851.331,1532.589c1.528,0.012,2.134-0.202,4.912,0.751c4.338,1.496,5.72,2.437,5.967,4.155c0.354,2.5-2.33,3.321-10.721,5.285
			c-6.591,1.541-19.453,8.404-28.406,15.841c-4.148,3.454-7.722,7.154-8.719,7.154c-2.052,0-6.964-5.405-6.964-7.652
			C-5888.418,1547.654-5866.61,1533.29-5851.331,1532.589z M-6302.983,1533.997c27.743,0.846,49.462,33.072,60.84,54.81
			c4.439,8.505,10.19,17.754,14.535,27.471c22.521,50.346,41.633,113.497,50.965,153.842c4.496,19.409,9.679,33.646,7.848,37.441
			c-2.286,1.446-7.116,0.341-9.344-1.534c-1.421-1.2-2.197-5.645-4.717-13.751c-6.478-20.785-17.192-80.211-45.131-142.654
			c-0.619-1.395-14.143-40.901-37.498-78.373c-9.508-15.26-24.882-24.845-38.905-27.97c-7.059-1.156-9.155-0.316-8.72-4.123
			c0.278-2.424,1.036-3.087,4.812-4.287C-6306.62,1534.338-6304.852,1534.041-6302.983,1533.997L-6302.983,1533.997z
			 M-6129.549,1662.779c-1.9,0-3.574-3.624-4.843-9.565c-0.619-2.923-1.471-5.001,4.003-8.435
			c34.423-36.607,4.824-90.357-38.438-95.035c-4.016-0.606-9.18-0.619-10.689-1.187c-2.197-1.238-6.219-9.022-7.974-12.148
			C-6127.699,1521.912-6064.245,1607.502-6129.549,1662.779z M-5831.701,1543.183c3.561,0.896,11.308,8.094,10.342,9.654
			c-1.162,1.882-7.867,1.945-17.533,3.656c-20.558,3.643-29.372,17.047-38.931,27.004c-2.128,0.644-4.016-0.827-5.91-4.066
			c-1.402-2.38-2.532-5.247-2.532-6.371C-5875.576,1557.497-5846.956,1541.763-5831.701,1543.183z M-6317.05,1547.78
			c17.483,0,34.947,8.473,44.784,22.281c35.881,53.705,76.195,173.087,85.811,231.969c-0.973,1.894-3.523,2.096-8.499,0.657
			c-2.778-0.808-2.437-1.692-4.186-7.16c-11.27-42.896-23.626-84.548-38.154-122.747c-7.495-19.693-16.302-38.937-24.599-56.224
			c-5.253-10.929-15.804-30.395-19.812-36.342c-9.433-17.729-28.501-22.926-40.522-17.199c-12.432,6.731-13.991,22.799-4.527,29.927
			c7.854,5.487,20.249,4.584,24.801-3.915c1.56-3.005,1.067-6.743,0.063-7.69c-0.972-0.909-2.734-0.65-3.094,0.347
			c0.644,10.437-12.666,11.106-18.48,6.996c-9.281-6.939-3.106-28.898,22.199-20.059c9.761,5.133,13.032,14.844,8.404,25.154
			c-4.735,10.55-12.072,15.349-23.405,15.286c-13.758-0.252-29.353-9.9-29.466-27.25c0.031-12.956,6.036-23.721,17.281-30.938
			C-6324.286,1548.197-6322.657,1547.78-6317.05,1547.78L-6317.05,1547.78z M-6169.017,1555.843
			c42.423,1.945,61.907,51.874,39.594,81.997c-5.688,7.198-9.287,5.885-11.718-3.403c-1.193-3.82-2.519-4.395,0.903-7.349
			c19.87-19.03,3.555-56.035-29.182-57.531c0,0-6.112-8.896-6.718-13.625C-6173.954,1555.142-6171.012,1555.836-6169.017,1555.843
			L-6169.017,1555.843z M-5815.298,1559.277c3.22,0.789,10.032,7.324,10.032,9.622c0,2.715-1.332,2.204-8.877,0.909
			c-17.837-3.188-35.705,7.135-50.624,29.656c-7.236,13.524-8.132,12.242-11.934,0.594c-1.957-5.979-1.988-5.84,5.594-16.877
			C-5856.95,1565.023-5836.052,1556.733-5815.298,1559.277z M-5798.699,1582.184c14.919,13.556,7.955,43.42-12.211,46.508
			c-17.792,2.052-33.589-17.174-22.389-30.256c7.286-7.905,16.397-8.707,22.004-1.907c5.796,7.008,3.34,16.574-4.906,17.559
			c-0.966,0.341-1.755,1.092-1.755,1.66c0,1.749,7.324,1.269,9.817-0.751c5.02-5.537,5.108-13.991,0.625-20.034
			c-3.971-5.342-12.438-9.597-19.219-6.844c-11.965,4.287-24.157,20.507-31.127,40.939c-1.958,5.746-3.106,11.144-3.94,12.407
			c-1.699,2.601-1.579,2.538-3.157,1.534c-1.377-0.884-3.934-13.392-3.934-18.158c0-3.618,3.119-13.177,7.248-21.372
			C-5848.686,1579.387-5819.554,1563.242-5798.699,1582.184z M-6162.431,1576.122c17.369,1.048,31.114,25.647,23.557,42.782
			c-2.336,3.151-5.701,5.291-7.267,3.308c-0.562-0.713-3.239-8.757-6.939-17.281c-3.7-8.524-7.103-16.858-8.157-18.935
			C-6163.997,1580.087-6165.992,1576.066-6162.431,1576.122z M-6280.455,1590.404c19.787,35.042,36.336,75.235,50.062,114.469
			c10.702,30.565,19.459,60.549,24.504,87.061c0.48,2.677,1.137,4.079-0.032,5.247c-1.944,1.945-11.39-2.885-11.39-2.885
			c-16.549-57.02-29.915-114.185-69.313-186.794c0,0-1.711-2.879-2.165-4.767c-0.531-4.546,0.795-10.298,3.567-13.518
			C-6284.104,1588.03-6282.602,1587.942-6280.455,1590.404L-6280.455,1590.404z M-6502.486,1656.598
			c93.577,6.289,165.965,45.718,204.624,149.871c-13.732-7.747-83.424-61.212-203.563-68.303l-0.196-14.44
			c86.127-0.701,170.145,44.121,168.389,43.47c-32.036-66.055-112.543-92.819-169.507-94.568L-6502.486,1656.598z
			 M-5853.263,1677.655c-5.903,9.243-5.645,8.865-8.473,16.839c0.328,2.589,0.802,18.739,1.187,28.16
			c0.499,12.002,0.84,17.237,1.781,18.373c1.61,1.932,4.861,2.241,6.288,0.499c0.556-0.688,1.528-3.271,2.185-5.746
			c7.729-29.182,11.359-40.105,14.472-43.723c2.045-2.639,2.746-2.393,11.213-1.433c19.081,1.692,25.559-21.044,13.095-30.193
			C-5828.197,1651.156-5845.889,1666.707-5853.263,1677.655z M-5833.135,1683.855c-13.625,11.213-14.035,27.364-18.158,42.233
			c-2.223,10.007-5.348,15.28-6.598,0.189c-2.324-20.937,0.6-36.57,9.679-48.863c5.613-9.041,14.837-15.128,23.134-15.709
			c17.849-1.256,19.674,12.893,14.711,20.488c-3.605,5.512-13.606,7.917-22.768,1.654V1683.855z M-6477.736,1690.592
			c6.73,0,12.186,5.455,12.186,12.186s-5.455,12.186-12.186,12.186s-12.186-5.455-12.186-12.186
			S-6484.467,1690.592-6477.736,1690.592z M-6438.894,1698.932c6.017,0,10.91,4.862,10.91,10.879c0,6.011-4.894,10.904-10.91,10.904
			c-6.011,0-10.873-4.893-10.873-10.904C-6449.766,1703.794-6444.904,1698.932-6438.894,1698.932z M-6403.486,1710.872
			c4.899,0,8.846,3.978,8.846,8.877c0,4.893-3.946,8.871-8.846,8.871c-4.9,0-8.877-3.978-8.877-8.871
			C-6412.363,1714.849-6408.386,1710.872-6403.486,1710.872z M-6378.357,1726.776c3.776,0,6.844,3.094,6.844,6.876
			s-3.068,6.844-6.844,6.844c-3.789,0-6.882-3.062-6.882-6.844S-6382.146,1726.776-6378.357,1726.776z M-6466.391,1748.647
			c-2.607,13.215-0.568,26.802,2.469,36.159c6.933,20.179,3.776,56.294,3.776,56.294l-20.305,20.337
			c1.452-18.954,3.7-38.855,2.658-54.772c-0.726-10.563-5.5-20.438-6.743-31.045c-1.149-9.805,0.587-29.454,0.587-29.454
			L-6466.391,1748.647z M-6433.477,1754.734l0.707,86.139l-69.527,67.375l-0.095-17.78l59.28-58.781l-1.25-79.813
			L-6433.477,1754.734z M-6262.019,1951.156l-4.559,7.438h78.436l1.654-7.438H-6262.019z M-6160.486,1951.156l-1.844,7.438h36.311
			l1.212-7.438C-6124.807,1951.156-6143.894,1951.169-6160.486,1951.156z M-6100.985,1951.156l-1.155,7.438h134.812l-2.001-7.438
			H-6100.985z M-5943.424,1951.156l2.16,7.438h35.906l-2.967-7.438H-5943.424z M-5883.393,1951.156l2.626,7.438h61.724l-5.127-7.438
			H-5883.393z"/>
	</g>
</g>
</svg>
