<?xml version="1.0" encoding="iso-8859-1"?>
<!-- Generator: Adobe Illustrator 16.0.0, SVG Export Plug-In . SVG Version: 6.00 Build 0)  -->
<!DOCTYPE svg PUBLIC "-//W3C//DTD SVG 1.1//EN" "http://www.w3.org/Graphics/SVG/1.1/DTD/svg11.dtd">
<svg version="1.1" id="Layer_1" xmlns="http://www.w3.org/2000/svg" xmlns:xlink="http://www.w3.org/1999/xlink" x="0px" y="0px"
	 width="163.067px" height="262.11px" viewBox="0 0 163.067 262.11" style="enable-background:new 0 0 163.067 262.11;"
	 xml:space="preserve">
<g id="g3870" transform="matrix(0.1545569,0,0,0.1545569,111.19177,-36.949191)">
	<g id="g3887" transform="translate(4008,112)">
		<g id="g3134">
			
				<path id="path3012" style="fill:#FFFFFF;" d="
				M-4013.347,141.086c0,0,163.661,236.551,219.162,278.53c4.082,1.915,72.511-11.152,72.511-11.152
				c-35.08-83.966-57.637-170.832-34.878-268.219L-4013.347,141.086z M-3922.406,515.196
				c-112.823,31.845-225.437,61.788-347.743,9.882l-133.572,129.048c-1.106,3.33,173.088,78.368,175.823,70.154l-42.871,136.871
				l98.853,21.761l45.379-145.59c0,0,136.479-13.092,199.815-34.827c48.159-16.523,97.968-28.509,140.971-64.404
				C-3874.575,584.705-3922.501,514.564-3922.406,515.196z M-4601.002,553.359c-42.763-26.241-76.182,27.763-44.874,54.73
				c-3.677,15.752-4.929,39.2,10.312,49.499c14.008,8.852,40.129-0.329,43.901-0.234c0.265,0.006,0.676,28.357-1.504,28.281
				c-4.044-0.133-19.334-13.161-28.768-15.986c-31.87-9.553-76.7-14.267-75.903-12.624c1.327,2.755-7.942,9.294,27.624,31.624
				c13.206,8.296,54.945-1.049,88.181,9.44c20.257,6.388,40.167,17.009,51.161,11.714c13.9-5.807,30.114-24.149,35.339-39.092
				c1.479-16.321-83.391,18.987-78.235,19.562l-0.266-32.888c34.202,3.76,65.067-21.021,31.453-63.52
				C-4517.548,568.985-4552.565,509.686-4601.002,553.359z M-4458.515,703.789c-84.118,84.787-256.049,243.918-256.049,243.918
				l1.838,118.765l167.97,150.303c13.307-159.554,103.983-308.47,190.318-382.971
				C-4346.507,811.152-4440.229,711.738-4458.515,703.789z M-3859.215,733.119c-12.675,98.113-24.2,231.9-190.641,380.627
				c28.844,49.12,65.554,99.111,118.389,122.97c3.747,8.429,152.705-154.133,244.341-231.003l-0.487-104.119L-3859.215,733.119z
				 M-4609.374,754.179c-0.348,2.142-6.489,27.909-8.082,27.226c0.126,1.403,17.047-6.281,18.961-13.351
				c1.675-6.192,5.554-14.589,5.807-15.777C-4596.497,725.752-4603.713,744.594-4609.374,754.179z M-4670.67,822.974
				c-0.587,0.019-2.192,1.479-2.451,1.643c-3.324,2.136-9.275,35.687-7.19,39.092c0.998,1.636-3.355,13.629-0.278,17.938
				c3.001,4.221,20.725,2.224,23.341-4.84c3.248-8.782,14.33-44.627,5.832-48.216
				C-4656.219,826.563-4666.588,822.829-4670.67,822.974z M-3751.397,1107.251c-2.768,12.372-2.18,16.049,3.323,18.463
				c9.648,4.221,13.983-0.885,21.729-21.028c4.613-11.992,8.719-30.051,4.998-37.229
				C-3739.619,1054.707-3749.28,1097.9-3751.397,1107.251z M-4202.061,1078.186c-5.851,0.038-11.48,0.518-16.687,1.719
				c-49.189,11.247-45.468,97.19-53.814,131.462c-154.512,22.051-195.379,32.553-237.719,49.941
				c-65.826,27.043-86.677,43.547-104.09,57.157c10.943-1.289,129.061,108.854,135.152,124.398
				c-7.513-21.306,228.513-73.193,354.219-21.091c15.417,5.522,132.865-113.972,129.156-127.304
				c15.247-26.689-148.029-56.677-168.621-73.345c-16.896-90.935,114.061-140.75,23.372-138.096
				C-4157.598,1083.506-4181.179,1078.009-4202.061,1078.186z M-3791.127,1180.343c-2.906,3.425-6.243,5.889-9.623,9.275
				l-8.625,11.373l6.281,10.16l16.093-17.755L-3791.127,1180.343z M-3906.338,1294.695c16.953-7.646,77.13-36.824,79.714-30.076
				l-1.276,29.204c-9.206-3.02-68.618,6.811-34.259,68.138c-21.641,48.715,26.582,73.85,60.367,41.626
				c70.798,24.288,61.321-46.542,46.712-57.991c11.512-17.881-2.957-55.956-10.16-56.095c0,0,61.782,13.926,55.741,2.932
				c-2.761-5.017-6.211-13.673-19.935-22.847c-15.828-10.564-43.629-6.723-66.129-11.437c-24.054-5.03-39.541-13.635-59.754-14.848
				C-3885.828,1246.081-3914.312,1272.871-3906.338,1294.695z M-4594.842,1524.624l-85.129,22.747c0,0,27.536,63.892,37.064,120.872
				c11.651,69.693,2.344,145.464,2.344,145.464l247.065,1.251L-4594.842,1524.624z"/>
			
				<path id="path3084" style="fill:#010101;" d="
				M-4725.375,127.065l-2.047,1695.689l1055.063,0.189l-0.354-1693.13L-4725.375,127.065z M-3761.19,140.34
				c-8.568,93.823-10.065,167.351,38.612,264.655c-8.795,9.219-75.038,11.834-95.914,22.753c-0.385,2.622,5.364,7.159,5.364,7.159
				c21.837-10.135,106.997-19.379,106.997-19.379c-35.661-62.167-65.004-181.738-42.915-273.438l61.466,0.196l-0.392,451.802
				c0,0,4.84,87.208,6.66,136.346c-32.73-42.296-76.125-101.367-104.469-145.224c-34.385-48.368-72.662-105.108-111.969-158.341
				c-11.588-16.776-28.111-38.53-41.594-58.124c-21.167-30.259-38.669-53.739-60.619-86.317
				c-23.448-33.728-45.922-64.335-73.787-103.496c-23.618-33.336-24.718-37.285-24.718-37.285L-3761.19,140.34z M-4164.877,142.09
				c39.844,69.244,111.167,92.692,129.118,97.361l10.432,15.246c-84.086-16.479-129.124-70.463-150.265-103.844
				c-1.649-2.597-1.466-8.568-1.466-8.568L-4164.877,142.09z M-4204.316,142.09c-11.02,26.146-26.443,41.171-41.064,57.005
				l0.505-16.813c0.455,1.049,21.894-22.734,29.273-40.192H-4204.316z M-4185.02,142.09c0,0,0.322,4.467-1.011,8.138
				c-8.447,27.264-60.872,79.012-59.362,71.253l-0.531-13.345c-0.233,0.575,39.383-37.721,49.758-66.047H-4185.02z
				 M-4223.146,142.09c-4.082,7.607-19.328,30.594-20.706,24.231l1.353-24.231H-4223.146z M-4103.373,142.09
				c6.609,9.56,12.612,16.554,19.556,26.335c1.295,1.864,2.079,4.069,1.75,4.903c-1.055,2.717-4.195,0.701-12.871-6.988
				c-14.236-12.618-23.916-24.25-23.916-24.25H-4103.373z M-4156.391,142.09l12.877,0.032c26.67,44.286,74.514,67.854,91.074,73.01
				c4.417,4.865,9.181,13.774,11.032,15.746C-4086.067,218.778-4136.096,181.025-4156.391,142.09z M-4125.077,141.901
				c14.198,20.497,36.451,34.865,48.987,44.672c6.748,5.282,15.645,16.074,14.811,18.216c-27.915-8.821-60.562-39.768-75.55-62.698
				L-4125.077,141.901z M-4179.813,154.582l7.759,12.353c-18.797,30.998-42.378,58.926-73.818,80.94l-0.171-16.188
				C-4210.363,205.989-4194.94,180.166-4179.813,154.582z M-4167.228,172.489c22.418,30.19,70.723,76.921,148.193,90.891
				c0,0,4.398,3.968,10.817,12.706c8.138,11.089,8.264,11.525,9.339,29.69c0.72,33.241,11.525,78.362,22.254,106.75
				c-1.327,7.058-2.565,10.653-15.872,28.623c-55.451,74.893-173.587,145.735-231.787,49.05
				c-19.41-30.979-21.299-90.36-22.531-127.393c0,0,0.366-2.603,0.518-3.311c1.396-6.723,3.317-5.661,13.825-2.78
				c10.653,4.568,21.742,0.878,33.014-2.193c12.833-5.181,13.901-1.188,1.523,10.369c-4.278,3.993-9.516,10.097-8.966,9.806
				c0.55-0.297,7.752-3.235,10.931-5.655c9.888-7.532,12.226-4.65,8.562,3.64c-15.544,35.15-18.305,36.546,3.563,46.314
				c4.562,2.035,7.67,4.303,10.229,6.54c14.956,14.071,9.585,6.489,5.402,0.025c-6.432-10.109-0.619-15.455,10.242-9.193
				c7.26,4.183,16.794,7.563,21.982,5.958c10.059-3.273,13.129-14.299,10.147-26.424c-2.388-6.71-16.144-18.564-12.972-6.161
				c8.265-0.373,15.398,11.348,8.221,19.284c-5.421,7.304-15.089,3.361-29.905-6.438c-8.195-6.154-18.141-3.008-17.749,4.562
				c0.252,5.086-6.944,3.917-11.62-2.559c-2.597-3.602-0.84-13.958,4.044-23.764c30.727-61.782,4.821-121.687-48.394-104.804
				c-5.857,1.858-11.133,3.368-11.133,3.368l-0.291-23.637C-4215.083,234.46-4182.669,200.511-4167.228,172.489z M-4136.153,283.403
				c-8.024,9.686-5.181,18.305,12.435,9.623c14.343-7.07,16.333-7.904,31.971-8.467c22.191-0.802,42.1,6.255,66.748,21.375
				c16.333,10.015,18.715,10.773,14.28,4.499C-4023.912,285.185-4101.9,246.851-4136.153,283.403z M-4211.514,286.29
				c15.398,3.88,30.184,14.052,27.605,18.267c-0.922,1.516-1.819,1.807-3.778,0.784c-11.266-5.567-29.229-14.665-55.186-3.564
				c-2.868,1.219-4.454-0.676-4.442-4.126c0.025-6.698,11.304-12.049,23.214-12.479
				C-4219.86,285.166-4215.235,285.38-4211.514,286.29z M-4122.05,305.878c-9.174,4.771-12.333,7.311-16.232,5.181
				c-9.313-5.093-7.349-1.099-1.561,9.156c4.082,7.235,4.044,8.719,3.438,13.155c-0.657,4.821-0.556,5.004,4.126,10.154
				c8.764,11.519,17.477,22.62,30.594,31.359c4.088,2.723,9.553,5.819,9.964,5.832c1.308,0.038,0.809-1.005-1.529-3.279
				c-16.794-16.163-30.051-30.645-12.94-24.49c19.916,6.489,38.865-1.599,54.402-6.881c6.331-1.952,12.985-3.602,14.634-3.602
				c14.343,0.019,17.736-5.958,8.562-15.063C-4059.63,292.596-4085.384,284.407-4122.05,305.878z M-4048.402,312.398
				c6.413,5.927,9.794,9.149,9.149,10.691c-0.682,1.655-5.624-1.15-13.901-5.567c-16.656-8.877-35.535-10.963-59.128-4.151
				c-18.311,5.288-12.908-3.109,7.5-11C-4088.442,294.833-4065.892,297.082-4048.402,312.398z M-4219.431,300.412
				c13.989-0.221,28.56,4.366,38.303,12.77c6.799,5.864,1.833,7.222-9.212,2.654c-16.712-6.906-30.796-8.012-44.501-1.592
				c-4.303,2.016-9.269,4.41-10.627,4.284c-2.294-1.554-3.267-6.059-1.283-9.25
				C-4241.242,303.868-4230.311,300.589-4219.431,300.412z M-3988.844,305.214c1.024,0.044,2.578,1.674,4.878,4.903
				c4.183,5.876,4.341,8.776,0.872,19.063c-4.233,12.561-5.933,10.527-7.001-7.001
				C-3990.784,310.812-3990.803,305.126-3988.844,305.214z M-3974.969,324.151c1.599-0.228,3.463,2.591,6.439,8.404
				c2.079,4.063,1.586,5.276-4.91,24.282c-2.717,7.955-5.27,14.292-5.339,14.343c-2.003,1.58-1.738,1.441-2.597,0.347
				c-4.625-5.914-4.297-17.452-0.31-31.283C-3978.666,329.761-3977.023,324.441-3974.969,324.151z M-4101.029,325.585
				c0.5-0.038,3.608,0.638,3.608,0.638c-0.322,28.149,21.445,22.487,24.326,2.49c0,0,5.371-0.556,6.192,0.783
				c2.584,4.183-3.412,16.226-12.372,20.169c-6.54,2.919-15.43,2.205-20.737-2.679c-1.484-2.755-5.983-13.218-5.143-17.553
				c1.042-2.534,2.61-3.715,4.12-3.848H-4101.029z M-4114,328.877c0.221-0.013,0.43-0.013,0.657,0
				c2.136,0.107,3.69,0.689,4.53,3.273l4.663,14.299c-3.431,4.107-16.472-4.208-16.447-10.444
				C-4120.578,331.695-4117.337,329.041-4114,328.877z M-4202.522,328.845c3.286-0.316,4.448,0.051,4.834,3.121
				c1.112,9.294-8.183,19.391-20.238,19.941c-11.664,1.302-17.963-7.746-17.603-16.567c0.025-6.71,5.8-7.551,6.438-2.249
				c1.851,15.31,14.93,16.194,20.908,7.74C-4205.928,337.514-4206.439,329.357-4202.522,328.845z M-4059.283,331.96
				c0.929-0.038,2.174,0.316,4,0.941c12.037,3.842,12.353,5.699,2.066,9.408c-12.27,4.417-13.066,4.998-10.185-3.564
				C-4061.797,333.969-4061.323,332.049-4059.283,331.96z M-4186.821,333.312c8.916,0.55,9.667,8.1,1.82,10.621
				c-11.683,5.15-15.613,4.815-11.089-2.786C-4193.639,335.758-4191.439,333.413-4186.821,333.312z M-4242.625,336.023
				c1.068-0.006,2.287,0.404,3.595,1.377c1.339,4.044,3.614,7.159,5.409,11.342c-1.833,1.82-6.205,1.788-8.985-0.417
				C-4248.192,343.896-4247.238,336.067-4242.625,336.023z M-3962.187,344.742c3.463,0.025,6.982,5.51,8.132,9.598
				c-12.1,15.55-10.198,44.577-13.01,53.34c-2.439,7.127-3.229,0.973-9.958-17.496c-2.717-7.456,10.981-44.526,14.147-45.348
				C-3962.648,344.78-3962.421,344.742-3962.187,344.742L-3962.187,344.742z M-3949.809,360.684
				c2.692,1.535,6.35,5.067,7.001,10.621c0.373,3.229-1.226,7.513-2.256,11.752c-2.445,10.078-5.743,29.122-6.938,46.719
				c-0.506,7.487-0.48,14.223-0.809,14.874c-3.646,7.134-11.323-12.062-10.666-27.346
				C-3961.087,405.103-3959.754,362.358-3949.809,360.684z M-3932.718,382.622c1.712,2.376,2.793,4.196,3.317,6.243
				c0.923,3.557,0.152,7.81-1.946,16.883c-5.548,24.029-4.745,49.935-1.125,76.529c0.765,5.592-3.121,2.793-8.998-6.843
				c-3.26-5.345-5.345-12.669-6.344-21.312c-2.047-18.905,1.896-44.532,5.257-64.745
				C-3941.064,380.429-3940.034,372.544-3932.718,382.622L-3932.718,382.622z M-3923.499,397.243l9.718,11.721
				c0,0-4.151,26.942-4.126,41.31c-0.676,5.383,4.834,63.924,6.628,68.656c-5.977-6.691-8.77-10.621-15.316-19.031
				c-0.746,0.126-6.413-57.675-2.502-79.777C-3926.728,406.745-3923.499,397.243-3923.499,397.243z M-3908.246,420.526
				c1.63-0.063,3.703,1.775,6.306,5.434c2.357,3.305,3.5,6.015,3.627,10.129c0.095,2.995-1.39,5.307-1.434,10.653
				c-0.278,31.845,4.025,61.896,9.446,90.872c1.908,10.362-1.807,6.135-7.961-0.423c-5.636-6.003-5.737-8.29-8.745-16.826
				c-0.6-1.7-6.603-60.423-6.546-64.859c0.208-18.248,0.733-28.414,2.837-32.793
				C-3910.028,421.284-3909.232,420.564-3908.246,420.526z M-3943.573,484.507c0,0-11.31,5.826-14.273,3.785
				c-4.777-13.035-22.02-47.913-22.317-54.092c0.303-2.028,7.064-11.203,7.064-11.203
				C-3963.571,443.658-3955.003,464.8-3943.573,484.507z M-4156.511,442.615c-3.412,4.012-7.475,2.338-15.708-1.276
				c-4.215-1.295-3.563,0.442-10.527,4.063c-5.409,2.805-7.304,2.881-10.887,2.85c-4.72-0.038-6.426-1.693-6.438,1.624
				c-0.012,1.839-0.284,10.141-1.396,14.431c-1.523,5.838-2.85,8.416-2.01,9.434c2.401,2.199,4.417,0.859,9.484-4.038
				c8.397-8.113,14.065-5.788,23.422-2.768c10.64,3.431,12.845,4.695,22.576,1.295c13.793-4.821,22.096-4.827,27.587-1.333
				c9.465,6.028,12.321,5.674,8.422-10.805c-1.257-5.307-1.346-13.547-2.116-14.975c-0.878-1.618-3.286,2.995-5.801,4.688
				c-4.814,3.241-7.304,3.178-18.159-0.373C-4144.494,443.323-4151.696,436.436-4156.511,442.615z M-3981.957,444.77
				c4.195,9.895,20.914,42.966,20.408,46.662c-3.26,2.919-7.62,5.055-10.198,2.439c-8.359-15.253-10.868-23.473-17.654-40.59
				C-3991.429,449.193-3985.369,438.767-3981.957,444.77z M-3892.185,443.551c1.188-0.164,3.658,2.294,5.497,4.758
				c5.724,7.658,6.066,8.606,6.249,16.813c0.657,29.754,4.398,64.771,12.782,91.776c1.649,5.32,4.777,11.784,4.436,12.662
				c-2.805,4.094-15.847-6.881-19.777-23.568c-5.428-21.186-8.606-43.3-10.331-57.688
				C-3895.514,462.986-3895.496,444.871-3892.185,443.551z M-3992.471,459.96c4.821,9.288,10.887,25.312,14.968,34.928
				c1.864,4.17-7.658,7.462-9.85,6.041c-3.804-2.837-5.604-10.83-8.1-15.619c-7.949-17.376-9.376-17.742-4.973-23.157
				C-3997.716,458.393-3994.474,453.78-3992.471,459.96z M-3873.312,470.619c0.701,0,1.605,0.682,2.749,2.155
				c5.023,5.939,8.442,10.476,9.75,14.874c0.954,3.197,0.189,5.592,0.531,11.379c0.904,15.158,4.884,35.845,16.156,78.185
				c1.099,4.132,2.591,9.017,2.407,10.344c-1.093,7.778-12.492-4.827-15.815-17.844c-3.842-14.772-10.868-33.646-12.934-51.091
				C-3874.727,490.926-3877.09,470.619-3873.312,470.619z M-4002.511,481.815c9.484,22.121,10.229,22.083,4.265,23.833
				c-6.312,1.851-6.691,1.245-14.103-13.819c-5.409-10.994-6.483-12.372-1.934-16.333
				C-4007.339,467.314-4005.513,475.111-4002.511,481.815z M-4134.561,476.539c-1.081,0.019-4.259,2.426-7.45,3.69
				c-7.835,3.102-21.742,3.317-30.221,0.758c-15.025-6.028-10.792,1.801,2.496,6.571c10.318,3.469,30.746,0.777,33.911-5.649
				C-4133.878,479.85-4133.171,476.508-4134.561,476.539z M-4020.329,488.172c8.467,13.079,11.013,18.304,9.579,19.322
				c-1.352,1.352-8.056,3.879-10.811,2.534c-3.462-1.7-6.47-9.775-7.993-16.106
				C-4028.493,490.825-4022.933,485.278-4020.329,488.172z M-4232.345,493.681c3.785,0.013,13.623,13.237,11.626,15.626
				c-0.556,1.226-4.24,0.057-12.858-2.332c-2.875-1.055-9.383-1.908-7.323-6.078
				C-4239.877,499.001-4233.849,493.675-4232.345,493.681z M-4029.409,511.809c-0.847,2.256-7.229,2.793-9.933,2.622
				c-2.338-4.846-2.945-7.165-3.595-10.375c0.878-1.927,5.25-6.919,7.411-5.939
				C-4034.236,499.273-4030.066,509.414-4029.409,511.809z M-3853.313,499.058c1.352,0.044,3.69,2.414,7.159,7.374
				c6.559,9.377,5.668,8.694,10.375,31.093c5.339,25.4,11.733,43.49,18.185,69.44c0.088,4.303-1.649,3.159-6.438,0.247
				c-7.81-4.758-10.381-10.04-12.839-23.814c-4.202-22.74-13.067-43.787-16.472-70.653
				C-3855.139,503.86-3855.285,498.989-3853.313,499.058z M-4050.159,508.132c4.613-0.158,3.993,6.95,2.667,8.1
				c-3.368,2.938-12.662,2.06-14.254,2.224C-4065.317,512.864-4053.167,508.321-4050.159,508.132z M-3829.872,532.306
				c1.352,0.19,4.992,5.333,11.809,14.905c6.546,9.206,5.112,7.702,9.029,22.848c5.548,20.927,14.722,36.021,20.093,55.28
				c-0.006,2.199-2.667,1.914-5.213,0.872c-4.966-2.079-9.396-5.592-13.597-9.029c-2.875-3.102-2.85-7.052-11.342-36.249
				c-3.064-10.539-3.861-13.275-7.689-29.28C-3829.979,538.264-3831.414,532.097-3829.872,532.306z M-4539.757,594.827
				c22.26,40.969,14.021,59.135-33.867,64.809c-3.456-0.487-0.196,20.99-0.291,30.588c23.991-13.724,53.005-16.934,79.745-25.546
				c-7.279,23.309-20.061,49.726-58.768,45.657c-40.458-31.257-88.073-12.479-120.386-25.167
				c-17.565-6.546-24.276-26.063-24.491-29.412c21.079,2.11,44.868,6.622,65.289,5.149c-22.304-17.186-15.783-40.962-12.637-51.836
				c-26.102-32.913-4.309-69.933,33.602-61.327c3.917,0.891,11.651,4.701,11.651,4.701
				C-4563.338,519.707-4520.947,550.459-4539.757,594.827L-4539.757,594.827z M-3799.847,574.899
				c1.516-0.145,4.865,3.81,11.563,13.187c19.891,27.82,37.108,53.7,36.849,55.16c-0.859,4.789-21.584-3.608-26.816-10.47
				c-5.958-7.816-22.708-48.071-22.683-54.471C-3800.927,576.169-3800.636,574.975-3799.847,574.899z M-4609.722,694.059
				c10.35,1.516,13.237,2.388,13.13,6.432c0.884,3.437-25.104,3.892-28.623,1.346c-2.818-2.035,0.809-6.489,3.589-7.563
				C-4617.595,693.06-4613.614,693.484-4609.722,694.059z M-3893.347,697.742c-145.186,68.574-204.58,250.963-131.298,390.73
				l-10.084,7.292c-71.854-147.779-18.406-306.133,98.334-386.105c4.733-3.362,15.183-5.958,20.049-9.181
				c0,0-47.629,10.868-63.747,17.174c-3.267-0.114-12.877,3.273-23.195,14.463c-9.023,8.359-37.235,47.256-36.331,48.608
				l-74.956,3.014l0.062,2.774l73.566-1.7c-75.752,124.733-57.144,243.409-10.362,326.472l1.15,0.771
				c2.723,1.833,9.882-3.399,24.718-17.464c6.116-5.788,13.825-12.991,17.129-15.999c9.175-8.403,22.241-22.911,31.22-33.374
				c-50.939-103.828-0.714-240.117,118.484-301.741c0.208-3.279-1.238-13.749-1.238-13.749s-4.511-4.05-7.172-3.633
				c-132.801,58.496-186.009,203.764-132.011,335.867l-8.909,9.693c-67.848-136.804,4.985-307.788,131.968-356.225
				c-0.057-3.09-2.805-7.039-6.224-4.663c-137.092,63.652-196.833,226.182-129.68,364.73l-8.46,7.469
				c-76.403-151.69,4.101-321.67,130.306-379.749C-3886.309,702.348-3893.347,697.742-3893.347,697.742z M-4632.298,699.158
				c0,0-0.96,8.081,1.89,10.836c1.314,5.762-0.784,5.137-5.687,3.968c-12.068-2.875-2.654,3.987,7.222,9.535
				c9.724,5.459,8.422,5.276-0.063,10.653c-5.705,3.621-5.111,4.973-4.34,7.721c1.137,4.075,1.915,1.358,4.277-0.815
				c4.966-4.562,8.935-5.706,13.345-5.687c6.628,0.025,7.298,5.333,6.123,9.471c-2.628,8.682-11.575,8.22-18.905,6.059
				c-11.993-3.532-31.58-24.332-31.276-36.577C-4660.547,703.353-4645.535,698.658-4632.298,699.158z M-4578.376,701.837
				c4.65,1.712,10.501,3.993,16.94,6.691c8.89,2.824,17.894,7.418,23.707,11.291c17.692,11.79,16.611,35.377,15.329,37.721
				l-91.391,86.613c0,0-5.156-2.521-10.021-5.004c-15.367-7.841-19.056-11.973-10.533-16.314c4.139-2.104,5.472-6.635,6.065-11.057
				c0.79-5.939,0.48-4.922,4.031-7.626c6.173-4.707,6.47-6.647,6.502-14.469c0.019-5.175,0.55-7.563,2.433-10.811
				c1.497-2.584,3.07-7.974,4.126-14.16c0.177-1.017,0.228-3.557,0.423-4.448c1.081-4.84,2.61-6.261,3.64-7.361
				c1.023-1.099,2.673-4.827,3.81-8.062c2.553-7.216,2.073-6.148,6.192-5.345c5.978,1.163,5.125,4.65,4.467,10.185
				c-0.316,2.686-2.11,4.575-1.498,3.968c0.815-0.809,4.486-2.546,5.245-2.717c1.921-0.436,3.823,0.221,4.315,3.216
				c0.272,1.674-0.455,4.751-0.404,7.127c0.12,6.167,0.373,13.547,1.782,18.406c6.78,23.422,5.434,20.175,3.121,0.689
				c-0.55-4.663-1.2-11.519-0.53-17.218c0.474-4.019,1.624-8.997,3.19-11.721c4.006-6.988,4.227-8.372-4.474-11.809
				c-3.229-1.283-8.732-3.52-9.869-5.75c-1.396-2.736-5.541-6.451-10.943-7.721c-13.13-3.09-20.769-15.771-18.874-17.654
				c1.245-1.239,6.533,0.379,9.876,0.499c11.986,0.423,14.532-0.189,19.846-4.751c2.824-2.426,4.094-4.587,6.344-4.745
				C-4583.153,699.455-4580.126,701.218-4578.376,701.837z M-3956.298,715.87c-122.78,99.333-144.295,260.011-83.05,384.001
				l-10.596,8.328c-76.971-145.441-25.274-302.329,69.288-388.134L-3956.298,715.87z M-4665.122,727.711
				c2.161-0.202,4.537,2.976,13.155,12.188c5.807,6.205,11.853,11.594,15.031,13.408c7.209,3.45,5.63,2.016-0.373,7.721
				c-6.148,7.045-2.755,12.839-10.097,9.307c-19.107-8.966-32.515-35.383-20.093-41.746
				C-4666.562,728.109-4665.849,727.78-4665.122,727.711z M-4674.625,755.493c0.468-0.031,0.973,0.038,1.466,0.158
				c2.363,0.575,5.219,5.004,8.284,8.094c8.492,8.549,12.435,12.34,19.221,15.341c6.666,2.951,6.849,3.671,2.155,8.877
				c-1.706,1.896-2.724,4.17-3.122,5.434c-0.404,1.27-0.505,2.881-1.94,3.159c-7.437,1.428-32.154-13.566-33.127-23.909
				C-4680.887,762.974-4678.448,755.784-4674.625,755.493z M-4622.251,758.368c4.291-0.107,6.805,3.709,6.78,9.907
				c-0.013,4.29-2.426,6.034-7.342,7.873c-10.495,3.93-16.965-3.576-9.623-11.872
				C-4629.354,760.788-4625.183,758.444-4622.251,758.368z M-4628.652,783.585c7.917,0.031,10.21,6.71,4.404,12.473
				c-5.453,5.408-16.459,5.434-16.44-0.499C-4640.67,790.902-4633.694,783.566-4628.652,783.585z M-4677.753,791.578
				c5.358,1.58,18.394,10.975,24.13,12.081c0.303,3.166-3.513,4.031,1.908,9.99c2.452,2.704,2.667,4.549,0.531,5.687
				c-6.546,3.488-29.204-7.531-30.72-18.873C-4682.643,794.927-4680.805,791.774-4677.753,791.578z M-4648.188,805.15
				c7.797,0.328,16.617,0.556,15.688,4.284c-0.676,2.698-3.462,9.832-7.032,8.499c-1.731-0.651-3.418-2.376-4.625-3.532
				C-4648.315,810.407-4649.421,805.099-4648.188,805.15z M-4353.356,837.425c22.708,20.56,105.215,235.341-66.723,391.823
				l-36.489,10.931c165.082-129.617,137.622-313.645,93.077-393.03c0.006-2.332-0.651-2.066-4.758,1.655
				c-3.595,3.26-3.98,3.962-2.534,4.562c50.345,77.471,69.162,296.27-129.188,401.851c-3.323,3.45,3.412,2.919,3.412,2.919
				c0.354-2.831,89.305-24.452,83.031-24.996c82.911-73.294,155.1-248.075,65.238-400.429
				C-4350.463,831.289-4353.356,837.425-4353.356,837.425z M-4381.998,861.744l-1.156,4.846
				c71.961,141.284,3.273,314.372-130.501,378.428c2.205,1.617,4.65,2.729,7.102,3.892
				c151.757-81.723,195.512-254.659,129.313-388.614L-4381.998,861.744z M-4394.028,871.765l-0.84,5.124
				c59.577,120.243,12.283,287.101-129.908,354.785c-1.352,7.279,0.019,5.156,6.672,4.815
				c164.52-88.231,179.988-256.011,128.511-364.97L-4394.028,871.765z M-4404.246,886.184c-4.65,6.142-13.155,9.32-15.985,17.224
				c41.253,129.588-16.207,249.033-118.547,299.176c-0.088,6.356-4.65,22.089,6.426,19.574
				c129.194-58.534,185.403-214.095,128.916-336.543C-4403.437,885.615-4404.169,886.153-4404.246,886.184z M-3755.302,1130.415
				c4.751,0.328,9.016,1.782,13.433,2.35c16.049,2.085,26.462,13.787,19.284,20.902c-2.351,2.338-5.649,0.986-16.074-4.107
				c-4.789-2.35-5.56-4.537-6.546-9.819c-1.188-6.344-2.452-6.988-4.063-2.073c-1.624,4.966-3.38,8.05-8.859,6.799
				C-3773.511,1140.891-3767.698,1130.301-3755.302,1130.415L-3755.302,1130.415z M-3926.968,1237.968
				c-38.536-21.875-86.127-61.302-113.328-106.112c-13.528,25.375-29.419,71.563-29.419,71.563l-60.556-16.466l-0.638,0.834
				l59.785,17.224l-5.832,19.941c-0.626,2.161-9.888,24.869-9.888,24.869l93.374,43.572c-5.781,9.048-12.094,14.899-20.118,23.34
				c-4.53,4.764-4.657,10.944-4.657,10.944l129.459-123.488c0,0,16.706,24.756,22.917,30.379c5.825,5.27,7.633,6.546,0.84,8.113
				c-30.417,4.461-54.029,27.485-45.796,58.383c1.327,3.437,4.006,2.174,9.781-1.453c20.194-18.286,69.554-35.219,71.241-30.923
				l0.196,19.676c-53.145,0.771-47.698,39.832-43.806,60.796c0,0.442-15.366,13.888-15.366,13.888
				c5.434,2.843,10.754,5.788,15.777,9.301c-4.669,26.07,17.534,63.842,61.156,44.507c3.772,3.867,7.336,7.759,11.493,12.612
				c4.461-5.168,9.61-17.338,9.61-17.338c21.666,9.794,66.628-12.144,43.629-62.414l12.681-12.094l-12.176-7.683
				c-0.316-12.776-2.3-24.2-9.926-35.333c0,0,20.453,5.219,35.592,6.091l0,0c9.345,0.847,17.224,1.087,16.441-4.562
				c-0.228-1.668-1.624-9.806-2.54-12.46c-4.511-13.18-27.934-22.847-50.674-24.124c-3.715-0.202-7.708-0.089-8.505-1.049
				c-1.485-1.807,1.181-4.373,3.627-3.943c12.454,2.161,24.44-7.039,26.594-18.753c0.43-2.06,2.969-5.813,6.628-9.819
				c6.477-7.089,6.988-6.9,6.862-17.148c-0.082-7.127,1.163-8.707,4.448-13.471c4.233-6.799,6.205-15.67,4.069-24.857
				c-0.67-2.906-3.425-7.026-1.08-14.267c3.823-11.803-4.568-22.582-15.575-28.724c-0.878-0.253-0.613,0.607-1.339,1.479
				c-9.983,3.109-22.14-4.044-22.14-4.044c-2.515-1.239,8.498-65.207,31.308-59.482c1.194,0.645,5.339,11.638,5.339,11.638
				c2.148-0.051,1.321-19.056-11.98-16.542c-5.27,0.998-11.361,7.999-14.115,11.512c-10.659,13.572-10.779,22.241-14.337,36.685
				c-1.712,6.837-1.902,6.432-11.348-0.948c-6.786-5.295-10.072-6.988-7.715-10.097c1.062-1.403,5.459-5.813,5.459-5.813
				l82.57-79.461v795.671h-466.934l3.267-102.258c8.764-71.891-6.653-222.865-18.317-237.069
				c8.997-10.11,36.912-34.474,35.371-35.573l-3.703-2.186l-14.76,13.572l-36.439-11.032
				c-15.549-10.741-31.415-20.661-47.875-24.895c-26.873-6.9-78.634,15.089-78.678,15.316
				c-82.69,6.116-148.907,39.693-147.979,39.44c-3.602-3.311-8.366-13.863-8.492-13.8c-42.624-59.318-84.528-92.54-141.773-133.092
				l72.511-40.046l-171.831-179.533l-1.517-145.783l248.916-237.966c1.466-4.113,79.417,55.047,108.438,103.193
				c5.566-23.536,15.929-44.905,24.566-68.012c0.904-2.117,49.524,17.976,63.943,18.829c2.161,0.126,3.898-2.148,3.898-2.148
				l-64.17-20.87l13.124-37.582c0,0,4.575-10.211-0.581-11.904c-29.254-9.465-56.702-26.139-84.68-40.35
				c0,0,13.066-14.526,13.269-15.171c0.184-0.6,5.479-8.397,4.215-11.083c-14.229,13.806-130.363,121.504-130.363,121.504
				c-3.304-18.481-8.498-24.945-19.783-36.35c6.147-0.297,15.777-6.375,21.337-10.425c17.022-12.403,26.291-34.524,24.061-47.452
				c-16.339,5.194-31.093,11.291-51.559,15.006c-11.494,2.085-22.405,7.279-29.021,12.852l-1.017-20.624
				c0.038,0.234,27.53,4.815,40.268-13.635c10.969-15.897,6.47-34.094,3.956-43.376c0.278-2.06-0.329-1.833,4.404-6.186
				c3.494-3.222,8.94-7.38,8.94-7.38c0.234-1.169-14.197-6.514-16.636-11.399c3.842-38.227-26.702-52.987-52.551-46.194
				c-4.833,1.459-7.14,2.363-12.883-4.038c-0.859-0.948-7.753-8.233-7.753-8.233s-3.045,7.02-4.6,10.091
				c-5.067,9.996-6.464,6.988-17.388,7.525c-27.688,1.359-40.047,23.713-33.69,51.154c1.491,6.445,0.821,5.453-3.405,13.597
				c-2.161,4.157-5.693,9.465-5.693,9.465s5.08,2.818,8.505,4.347c5.067,2.262,5.333,4.916,5.313,9.971
				c0.702,11.133,3.153,18.589,9.554,28.155c-21.691,0.499-38.328-1.523-57.972-8.05c3.007,30.202,25.273,41.449,52.538,45.872
				c0,0-2.862,2.673-5.87,3.861c-6.382,1.851-10.375,7.456-10.312,12.473c-0.923,4.789-4.019,9.604-6.875,12.163
				c-4.246,3.677-7.734,8.852-6.066,18.867c-0.43,7.26-2.18,9.358-4.309,12.125c-4.284,5.567-5.725,11.095-4.663,18.406
				c0.499,3.406,1.554,10.691,0.847,18.222c-1.175,12.549,3.324,17.256,9.036,26.089c3.689,5.725,2.913,5.876,2.06,10.034
				c-2.054,9.971-4.189,15.101-6.407,22.69c-4.96,16.971-5.15,29.842-1.093,33.153c6.11,4.991,13.035,3.488,16.251,2.496
				c24.124-7.449,19.947-31.137,21.218-47.028c0.688-4.088,2.085-6.053,3.443-5.864c6.817,7.987,14.027,12.599,23.315,17.635
				c-32.11,32.673-53.075,52.664-93.659,88.307l1.106-795.854h462.979c0,0,0.48,5.889-0.619,34.682
				c-2.009,58.528-4.474,119.836-0.632,179.501c0.645,20.649,0.228,41.038,3.19,61.472c2.888,19.903,4.164,41.367,13.465,59.905
				c3.741,10.046,3.861,9.275-10.381,22.437c-6.982,6.458-12.921,13.326-12.663,14.539c0.088,0.404-0.31,1.921,0.765,1.062
				c0.708-0.569,5.87-5.68,6.445-6.35c3.854-4.549,10.312,1.289,32.338,7.5c4.322,1.219,10.406,5.282,15.063,8.656
				c32.919,27.744,79.246,19.094,113.871,3.962c9.832-4.296,12.239-4.739,28.035-6.609c58.484-6.938,120.98-32.49,120.847-32.407
				l7.633,12.504c0,0,2.875-0.531,4.922,2.616c33.64,63.532,143.467,136.131,141.515,132.77l-71.79,39.743
				c52.266,64.574,171.78,174.124,171.78,174.124l-2.755,157.459c-32.085,25.653-60.303,55.072-88.522,83.795
				c-8.106,8.037-13.837,12.624-10.754,12.776c7.323-1.125,13.648,6.104,19.606,11.108c3.778,4.208,2.862,3.829-1.491,9.579
				c-3.058,4.031-4.177,5.206-4.189,8.125c0.101,5.649,0.063,9.44-4.966,13.673c-3.121,3.917-4.903,6.432-5.472,11.07
				c-0.556,4.638-0.518,7.62-3.709,11.727c-5.402,1.15-5.92,9.023-4.966,12.536c5.661,5.623,3.077,11.702,3.602,10.425
				c-10.811,11.727-22.165,21.9-14.918,5.497c3.273-6.116,4.385-11.171,4.385-11.171s-5.181,5.383-7.911,7.936
				c-4.17,3.854-5.693,1.58-5.813-10.4c-0.537-9.061-4.36-21.71-5.876-24.124c-0.853-1.352-0.998,0.986-0.594,9.718
				c0.518,11.474,1.889,14.811-2.155,26.272c-5.465,15.493-9.345,17.679-0.474,17.148c8.404-0.505,15.506-0.594,19.183,4.423
				c1.239,1.693,2.837,4.587,6.23,6.293c6.912,3.779,12.416,7.974,16.258,12.144c12.428,13.521,8.865,25.602-15.171,17.414
				c-12.65-4.322-4.366-9.743,9.238-8.492c8.353,0.783,9.762-2.3,2.527-4.524c-13.446-2.477-15.613-3.993-24.484,6.546
				c-37.247-3.677-58.161-24.503-68.214-41.475c-4.202-7.089-5.491-8.441-2.565-12.46c1.156-1.592,0.455-1.099-1.529,1.087
				c-1.984,2.199-7.399,4.031-9.187,5.611C-3903.014,1214.4-3915.696,1227.807-3926.968,1237.968L-3926.968,1237.968z
				 M-3764.842,1150.52c6.318,0.783,6.198,6.091,0.556,11.196c-5.307,4.019-8.941,4.79-11.929,1.782
				C-3781.46,1158.216-3774.693,1150.482-3764.842,1150.52z M-3746.43,1154.21c5.093-0.025,11.594,2.313,19.316,8.732
				c9.219,7.658,11.323,26.209,2.862,29.419c-3.545,1.352-4.094,0.038-11.651-7.152c-5.099-4.84-10.621-9.225-16.062-11.803
				c-11.114-5.295-12.536-7.292-5.03-10.893c1.58-0.809,3.627-2.717,4.562-4.221
				C-3750.506,1155.208-3749.918,1154.223-3746.43,1154.21z M-3758.436,1178.903c1.479,0.038,3.45,0.935,6.533,2.591
				c18.728,10.223,27.883,26.26,21.546,35.308c-4.157,5.939-10.925,3.677-16.081-4.739c-2.906-4.751-10.621-10.817-19.379-15.253
				c-10.021-5.08-10.236-5.813-2.995-9.288c2.969-1.415,5.2-3.437,6.653-5.99
				C-3760.47,1178.549-3760.331,1178.839-3758.436,1178.903z M-3752.433,1217.104c14.147,14.103,12.53,21.748,3.336,27.485
				c-6.268,3.917-16.34,4.903-19.638,1.656c-5.333-4.663-5.194-10.009,0.701-11.715c5.503-1.175,3.437-3.387-1.7-4.688
				c-18.343-5.207-29.621-14.937-9.68-12.826c5.725,0.606,11.26-3.842,14.255-7.393
				C-3760.83,1204.366-3754.986,1214.564-3752.433,1217.104z M-4717.25,1222.538l412.912,591.13l-333.811-0.657
				c0,0-1.257-4.334,1.459-39.768c4.019-48.071-2.148-89.76-13.528-136.681c1.435-0.164-15.986-56.967-29.532-84.731
				c-2.464-5.813-2.06-6.369,5.939-7.405c23.625-3.791,49.076-9.516,72.688-19.499c10.969-0.96,27.081,3.311,26.215,1.971
				c-0.392-0.632-14.279-13.37-14.279-13.37c-38.543,15.404-74.109,21.041-107.591,24.857c44.444,75.645,60.303,178.61,46.978,271.1
				l-63.962-0.19l-0.196-455.195L-4717.25,1222.538z M-4643.45,1310.086c5.832-0.227,20.364,10.034,22.14,17.742
				c0.36,1.58,4.138,11.07,8.372,19.878c0.088,1.63,14.4,27.485,8.107,25.223c-12.511-16.997-34.865-45.948-40.489-60.063
				C-4645.313,1310.996-4645.08,1310.15-4643.45,1310.086L-4643.45,1310.086z M-4598.841,1335.942
				c0.784,4.271,5.112,15.442,8.53,22.797c8.909,19.183,22.708,49.259,19.903,57.814c-1.89,5.775,0.05,5.472-4.998-1.655
				c-2.471-3.488-10.179-14.229-12.03-16.719c-4.518-6.053-1.479-0.493-4.057-10.362c-6.147-27.89-16.074-42.549-22.531-58.85
				C-4616.325,1321.321-4601.798,1332.858-4598.841,1335.942z M-4590.905,1340.2c1.2,0.834,17.565,12.346,19.221,14.002
				c5.8,20.624,28.989,86.702,22.986,98.518c-2.091-1.643-10.931-12.296-12.157-17.793c-2.672-31.592-12.7-54.313-23.454-77.869
				C-4587.342,1349.956-4589.718,1342.854-4590.905,1340.2z M-4560.122,1363.402c5.181,2.527,10.54,8.315,13.579,13.484
				c2.028,3.513,3.071,7.645,4.985,16.327c5.927,26.967,17.243,54.288,12.157,83.062c-3.178,4.309-10.078-5.459-11.07-15.063
				c-3.267-31.858-6.072-47.123-17.274-84.592C-4559.92,1369.354-4561.569,1363.654-4560.122,1363.402z M-4533.843,1388.119
				c1.105,0.051,3.374,2.111,7.159,5.661c7.354,6.9,8.391,9.44,8.435,20.902c0.24,16.832,5.845,36.066,6.716,53.062
				c0.506,9.806,2.3,35.181,0.784,36.685c-2.142,2.957-11.639-7.797-10.906-24.275c1.213-19.815,0.228-34.726-8.22-69.01
				c-3.898-15.834-5.876-22.607-4.189-22.999C-4534.001,1388.132-4533.913,1388.119-4533.843,1388.119L-4533.843,1388.119z
				 M-3771.502,1288.048c29.507,18.943,19.101,53.896,12.789,58.193c40.735,51.47-22.595,77.831-42.688,59.318
				c-29.747,29.558-80.8,4.79-61.137-43.938c-0.025,0-37.367-71.361,36.318-66.597c0,0,1.27-28.837-0.809-30.152
				c-26.304-1.769-62.06,23.555-72.188,30.556c-5.617,3.399-6.849,1.782-6.849,1.782c-1.403-14.975-1.44-21.824,4.644-30.177
				c10.615-14.558,28.161-19.486,51.211-24.541c28.528,8.782,55.685,22.569,82.121,20.421c14.552,0.088,29.438,2.439,43.547,10.009
				c9.516,4.486,14.469,21.331,14.469,21.331C-3725.004,1302.075-3771.502,1288.048-3771.502,1288.048z M-3785.529,1182.213
				c0.12-5.105,5.889-10.804,11.575-10.147c7.81,0.569,8.833,9.819,1.889,13.218c-2.003,1.618-8.486-0.771-8.839,1.024
				c0.474,3.146-2.698,1.82-3.311,0.682C-3785.289,1185.663-3785.535,1183.742-3785.529,1182.213L-3785.529,1182.213z
				 M-3790.268,1202.369c2.868-2.009,5.263-2.186,8.151-2.565c4.429-0.543,10.097,0.126,11.354,4.764
				c1.232,4.562-7.506,7.241-14.577,7.367c-3.602,0.063-7.772,0.758-8.852-1.769
				C-3795.209,1207.803-3791.715,1203.431-3790.268,1202.369z M-4683.218,876.871c5.693-19.789,2.136-30.866,11.626-55.255
				l23.094,7.689c0,0,0.979,23.922-3.678,37.247C-4656.839,879.872-4672.148,890.487-4683.218,876.871z M-4511.186,1411.965
				c2.724,0.329,9.415,9.857,12.435,18.564c2.774,8.075,1.857,18.323,3.873,27.03c4.537,29.811,4.271,59.684,3.064,68.72
				c-0.6,4.499-3.5,2.654-7.468-1.63c-5.769-6.243-4.973-6.369-4.91-23.682c0.063-14.848-3.229-51.521-4.745-58.977
				c-2.805-13.774-3.974-26.929-3.317-29.179C-4512.063,1412.167-4511.691,1411.902-4511.186,1411.965z M-4241.078,1415.529
				c29.741,4.739,53.518,25.046,67.14,58.458c13.155,33.993,16.39,80.371,18.431,122.995c-0.145,10.198-4.347,7.633-15.36,1.289
				c-12.037-5.876-14.596-4.17-32.161-0.152c-10.969,2.502-9.97-4.941,8.062-17.312c6.135-4.006,13.281-9.351,10.931-10.16
				c-1.188-0.404-6.685,1.074-10.653,4.284c-17.691,14.305-22.494,17.78-17.388,3.879c1.289-3.513,5.383-13.269,7.102-17.932
				c6.407-17.477-0.979-24.945-22.747-36.015c-5.447-2.767-9.029-7.38-3.589,2.287c4.442,7.898-4.751,14.28-16.125,5.03
				c-7.911-6.432-23.808-2.148-28.939,5.876c-4.966,7.772-2.312,22.266,7.488,26.955c8.631,3.728,11.847,1.049,3.5-4.739
				c-10.735-7.443-8.65-20.017,3.412-19.966c2.976,0.013,8.239,3.336,21.533,10.564c9.516,5.143,16.289,2.97,16.302-4.714
				c0.006-5.143,2.951-4.726,9.206-1.63c8.429,4.158,7.506,7.936,3.058,19.575c-3.007,8.138-4.499,17.376-7.253,25.88
				c-7.102,28.61-8.043,61.011-0.189,71.108c20.876,26.866,43.054,24.023,62.034,6.268l-0.809,29.419
				c-19.36,15.531-41.98,26.121-76.896,83.719c-12.176-15.291-64.423-77.818-148.2-91.946l-18.854-25.792
				c0.322-1.592-14.084-95.927-23.511-128.05c0,0,10.362-15.733,19.783-27.334
				C-4368.154,1461.034-4304.572,1407.997-4241.078,1415.529z M-4350.343,1442.307c-3.222,1.024-4.265-5.409-2.515-6.622
				c3.873-0.329,5.244-0.215,9.13,0.076C-4340.795,1435.938-4340.871,1439.299-4350.343,1442.307L-4350.343,1442.307z
				 M-4491.718,1437.492c4.183,2.982,9.288,11.007,14.28,18.311c2.768,4.044,1.2,10.754,1.63,17.376
				c0.607,9.389,1.649,24.869,2.313,34.372c1.289,18.551-0.449,34.069-3.16,39.667c-2.767,6.685-8.391,2.06-9.781-7.102
				c-0.335-2.199,1.498-24.945,1.498-37.431C-4484.938,1481.203-4490.429,1454.691-4491.718,1437.492z M-4364.907,1437.365
				c1.479-0.088,2.603-0.038,3.583,1.213c4.512,5.788,6.337,9.276,2.23,12.448c-5.446,4.549-10.4,3.399-13.427-5.244
				C-4374.46,1439.64-4369.873,1437.694-4364.907,1437.365z M-4381.701,1442.458c4.865,3.26,9.686,11.841,10.191,18.02
				c-0.31,1.706-1.8,3.146-5.067,5.788c-3.241,2.957-4.258,2.768-7.873-2.932c-5.667-8.846-8.315-14.671-7.209-17.729
				C-4388.828,1442.66-4385.139,1441.485-4381.701,1442.458z M-4183.668,1443.57c8.119,0.695,16.137,4.398,24.036,6.268
				l-12.049,11.651C-4175.265,1455.525-4179.346,1449.548-4183.668,1443.57z M-4399.722,1449.649
				c4.455,5.8,12.22,20.952,11.803,26.588c-1.137,1.921-2.894,3.627-4.758,4.701c-1.485,0.404-2.818-2.199-7.841-11.083
				c-8.732-15.442-11.291-19.802-6.761-21.66C-4404.89,1447.93-4401.263,1448.044-4399.722,1449.649z M-4417.325,1453.238
				c4.853,4.322,16.51,27.346,16.845,33.829c-0.133,1.82-0.676,3.399-1.757,4.625c-7.329,7.873-5.472,6.609-16.384-15.847
				c-9.212-18.475-11.645-20.295-5.554-22.367C-4422.822,1453.01-4419.448,1452.404-4417.325,1453.238z M-4434.839,1459.253
				c3.197-0.051,4.094,5.295,10.324,17.477c10.438,23.025,14.355,26.234,11.993,28.686c-2.913,3.677-4.613,6.255-7.38,1.794
				c-6.293-10.236-12.536-23.29-18.399-34.752c-4.688-8.555-5.112-9.591-2.098-11.689
				C-4438.668,1459.569-4436.09,1459.265-4434.839,1459.253z M-4248.559,1465.786c-3.924,1.112-19.694,6.104-10.034,7.001
				c1.953,0.189,6.9-1.049,10.375-1.289c9.762-0.67,30.069,1.163,29.343-0.708
				C-4220.726,1463.777-4243.238,1464.434-4248.559,1465.786z M-4448.494,1467.947c0,0.392,2.534,4.878,5.048,9.275
				c14.836,28.661,23.082,39.086,20.447,43.623c-2.167,2.729-5.522,6.167-7.5,5.358c-3.191-1.314-7.443-10.691-18.058-31.934
				c-10.969-21.938-12.113-23.58-6.477-26.424C-4452.721,1466.772-4449.915,1465.976-4448.494,1467.947L-4448.494,1467.947z
				 M-4463.311,1478.056c6.818,11.083,5.92,9.629,5.845,45.683c-0.051,22.443-2.938,36.761-6.691,42.283
				c-1.965,2.894-5.434,1.188-7.152-4.461c-0.79-2.591,1.453-6.445,1.87-10.539c2.654-27.005,0.803-53.998,0.866-79.549
				C-4466.52,1471.258-4464.41,1476.25-4463.311,1478.056L-4463.311,1478.056z M-4287.468,1486.902
				c3.172,4.524,2.401,8.189,2.376,14.28c-0.038,8.618,0.587,9.25,6.54,4.903c5.276-3.854,5.699-4.107,15.114,2.287
				c5.585,3.778,12.631,4.208,17.192,0.025c3.21-2.944,4.322-1.617,8.619-0.505c4.688,2.603,6.015,3.008,16.068-1.87
				c6.779-2.995,7.058-3.437,11.089-1.314c7.102,6.255,8.15,3.993,7.19-4.183c0.019-2.856,0.847-8.189,1.687-11.651
				c3.532-14.558-2.186-14.709-9.75-5.447c-2.932,3.589-9.459,5.156-15.625,2.249c-8.833-4.145-22.626-2.464-32.818-0.758
				c-12.062,2.035-17.647-1.289-22.494-5.421c-2.749-2.35-9.022-4.436-9.718-2.641
				C-4292.693,1478.65-4291.271,1481.469-4287.468,1486.902z M-4449.22,1507.311c1.516-0.329,3.829,4.145,7.222,13.623
				c4.378,12.232-3.273,54.756-7.879,61.719c-2.433,3.652-3.993,5.889-8.998-0.872c-1.99-2.982-0.442-3.93,1.529-12.283
				c3.008-12.725,5.535-33.311,5.687-42.877C-4451.615,1514.198-4450.926,1507.677-4449.22,1507.311L-4449.22,1507.311z
				 M-4433.841,1548.558c1.086,0.076,2.356,2.527,4.094,7.367c2.458,6.66,1.264,19.499-1.972,29.318
				c-1.87,5.724-3.652,11.815-6.843,16.933c-1.087,2.881-6.653,1.87-8.189-4.499c-0.966-4.031,2.382-9.023,4-15.43
				c1.63-6.445,3.488-14.634,4.41-18.753C-4436.646,1553.436-4435.434,1548.444-4433.841,1548.558z M-4314.839,1567.399
				c-0.139-0.012-0.265,0-0.347,0.025c0.025-0.038-0.063,0.076-0.095,0.101c-0.253,0.253,11.601,13.168,14.785,16.782
				c1.662,1.403,15.941,18.766,7.058,14.785c-22.412-9.288-48.633-4.739-64.783,10.842c-2.022,1.946-3.69-0.051-9.806-0.505
				c-12.548-0.935-17.098,4.044-9.472,10.223c1.169,0.948,3.608,1.365,4.708,2.881c1.011,1.403,0.708,3.892,1.232,4.587
				c24.256,32.199,69.174,38.467,97.374,17.439c3.544-2.654,5.535-3.576,8.846-2.603c6.559,1.959,7.133-3.538,1.339-11.209
				c-2.527-3.349-5.636-7.216-3.822-8.328c3.582-3.083,5.352-8.113-0.878-9.996c-4.291-1.302-9.105-6.078-11.519-12.738
				c-2.818-7.797-30.436-31.719-34.625-32.287H-4314.839z M-4424.938,1581.49c5.27-0.114,5.516,31.024-0.31,40.476
				c-2.995,3.576-9.844-3.083-8.814-9.907c0.784-5.194,6.382-28.597,7.658-29.811
				C-4425.886,1581.755-4425.387,1581.502-4424.938,1581.49L-4424.938,1581.49z M-4317.468,1600.925
				c4.423-0.038,10.482,1.946,15.297,6.293c2.604,2.35,7.159,12.536,5.264,16.529c-0.531,2.022-5.996,1.908-6.489,0.417
				c-3.008-20.548-19.669-23.53-24.958-4.347c0,0-3.431,2.919-3.867-2.704C-4331.033,1606.22-4325.916,1601.014-4317.468,1600.925
				L-4317.468,1600.925z M-4183.314,1602.707c5.294-0.088,10.35,2.565,12.94,8.227c1.807,3.943,2.009,7.253,1.289,8.985
				c-0.537,1.302-2.325,0.733-2.325,0.733c-8.454-23.189-19.96-12.46-24.13,0.354c0,0-4.348,1.352-4.891-0.038
				c-0.543-1.377-0.208-3.993,1.522-7.595C-4195.604,1606.473-4189.316,1602.821-4183.314,1602.707L-4183.314,1602.707z
				 M-4296.44,1604.148c2.995-0.164,8.125,2.275,11.955,6.142c3.892,3.917,4.277,6.268,1.131,9.174
				c-1.889,1.757-8.605,3.475-9.907,0.442l-5.661-13.218C-4299.46,1605.424-4297.798,1604.224-4296.44,1604.148z M-4337.188,1604.78
				c3.355,0,4.062,0.771-1.207,13.016c-1.125,2.616-14.627-1.188-12.056-6.243
				C-4346.583,1607.534-4340.543,1604.767-4337.188,1604.78z M-4201.903,1605.74c1.346-0.063,2.439,0.139,2.906,0.758
				c-1.213,0.43-6.318,13.345-6.318,13.345c-4.815-0.581-10.577,0.088-11.62-3.854c-0.986-3.715,0.954-5.99,7.746-8.593
				C-4207.135,1606.65-4204.152,1605.854-4201.903,1605.74z M-4162.381,1609.051c5.111,1.883,6.312,6.205,5.655,8.441
				c-0.493,1.693-2.913,1.706-4.625,0.405c-1.63-1.883-4.025-5.105-3.842-7.279
				C-4164.662,1608.457-4164.011,1608.432-4162.381,1609.051z M-4417.154,1620.98c1.574,2.957,4.411,19.726,1.093,19.297
				c-3.222-0.834-4.72-5.889-5.282-10.438C-4421.457,1628.903-4418.595,1621.094-4417.154,1620.98z M-4360.875,1629.927
				c1.491-0.202,5.244,1.112,10.817,4.259c18.336,8.859,37.134,10.11,57.1,5.649c11.519-2.982,14.457-4.739,16.081-2.768
				c2.768,3.361-1.599,6.723-17.856,12.182c-17.837,6.003-36.337,4.992-60.67-12.182
				C-4361.937,1632.454-4362.79,1630.205-4360.875,1629.927z M-4157.383,1634.552c3.021,5.636-7.253,10.981-12.46,12.485
				c-11.063,3.197-27.827,1.706-37.292-3.98c-0.796-0.48-1.554-0.986-2.281-1.529c-7.703-5.737-4.511-9.832,4.062-5.409
				c9.219,4.751,27.985,5.623,37.936,0.834C-4162.432,1634.54-4159,1631.519-4157.383,1634.552z M-4385.094,1645.053
				c-1.023,0.227,0.708,2.818,4.284,6.685c25.084,28.155,84.933,43.433,118.572,14.419c10.54-9.895,8.935-14.343-7.683-6.445
				c-18.38,6.053-44.495,6.849-67.077,3.5c-11.108-1.504-29.198-5.762-38.378-12.473
				C-4381.158,1646.519-4384.19,1644.851-4385.094,1645.053L-4385.094,1645.053z M-4212.126,1645.9
				c1.536,0.126,4.221,0.695,10.04,3.715c8.499,4.423,27.801,2.906,34.12,0.581c13.319-4.916,16.056,1.327,3.438,8.302
				c-14.059,8.505-33.463,5.181-44.779-5.788c-3.513-3.147-5.409-7.052-3.867-7.367
				C-4213.023,1645.319-4212.341,1645.887-4212.126,1645.9L-4212.126,1645.9z M-4378.428,1695.702
				c49.398,4.511,123.949,53.53,153.021,112.418h-16.731c-29.204-46.34-74.141-83.644-127.469-97.557
				C-4371.712,1708.946-4379.559,1697.749-4378.428,1695.702z M-4159.152,1706.481l-2.287,16.289
				c-8.277,6.786-38.619,31.921-61.125,71.285c-4.688-0.215-6.963-5.864-6.18-9.718
				C-4210.724,1748.815-4189.184,1729.19-4159.152,1706.481z M-4358.81,1719.232c11.335-0.783,85.072,38.821,109.903,88.888h-13.591
				c-27.934-36.369-58.977-60.101-86.531-69.63C-4355.732,1731.427-4363.068,1719.535-4358.81,1719.232z M-4161.439,1730.555
				l-0.126,22.001c-17.641,17.174-30.531,34.448-40.627,55.565h-13.699c0,0-3.045-6.041-1.984-9.794
				C-4202.308,1770.311-4187.396,1749.902-4161.439,1730.555z M-4273.453,1808.12h-13.256
				c-11.19-15.822-27.814-31.036-43.073-40.097c-6.249-7.747-13.256-17.313-10.438-18.854
				C-4340.05,1743.445-4281.376,1783.086-4273.453,1808.12z M-4161.149,1763.373l-0.291,12.713
				c-8.972,11.474-16.491,21.104-23.669,32.035h-11.298C-4186.107,1785.879-4160.227,1757.358-4161.149,1763.373L-4161.149,1763.373
				z M-4313.304,1788.002c4.088,1.074,19.025,15.341,18.551,20.118l-6.723-0.19c-3.772-4.764-8.246-9.73-10.899-14.596
				C-4314.037,1790.252-4315.104,1787.396-4313.304,1788.002z M-4163.752,1791.932c0.05-0.013,0.069-0.013,0.095,0
				c0.019,0.013-0.126,16.188-0.126,16.188h-11.342C-4176.351,1807.893-4169.635,1795.9-4163.752,1791.932z"/>
			
				<path id="path3090" style="fill:#010101;" d="
				M-3927.814,138.179c-55.577-0.006-111.78,0.31-174.308,0.973l422.162,598.984l0.341-133.067l-135.474-174.825
				c30.828-9.509,68.479-16.081,98.126-18.722c-38.075-84.402-57.119-163.667-40.344-272.307
				C-3817.286,138.527-3872.231,138.192-3927.814,138.179z M-3764.343,141.996c-3.304,38.353-7.645,81.123-0.689,128.625
				c-21.969-8.024-27.119,5.68-30.765,7.121c-4.132-9.212-19.448-25.16-36.78-6.42c-9.016,9.743-4.638,28.073,16.289,36.338
				c-23.959,1.839-36.413-18.64-40.615-39.756c-12.953-8.29-26.563-16.485-27.865-45.55l6.641,1.112
				c-2.205,20.276,18.861,30.6,31.194,20.927c7.974-6.11,8.827-15.537,5.68-30.177c6.407-1.314,21.401-7.595,17.439-26.86
				c-5.478-26.601-32.799-23.479-45.284-5.984c-10.375-12.845-29.4-15.228-37.026,4.714c-4.252,11.114,5.434,23.587,16.434,26
				c-24.433,4.688-36.754-29.008-38.125-51.811l-10.122-17.97C-3871.871,141.92-3842.983,142.002-3764.343,141.996z
				 M-4095.247,142.653l49.031,0.031l357.84,463.061l0.752,115.281L-4095.247,142.653z M-3971.279,142.684l7.81,0.089
				c6.129,40.76,29.564,70.268,69.655,84.63c2.085,33.298,18.14,78.526,79.063,93.81c-1.794,37.601,22.361,73.528,48.223,90.752
				c0,0-6.982,1.725-12.441,2.249c-34.764-27.568-43.332-68.157-46.782-84.908c-1.175-2.42-4.486-3.008-7.121-3.595
				c-29.754-10.508-54.8-34.948-65.036-64.777l-6.432-29.286c0.012-3.76-0.752-1.99-9.598-5.251
				c-22.948-8.448-44.166-33.279-53.688-62.932C-3972.631,147.872-3971.279,142.684-3971.279,142.684z M-4002.808,142.773
				l27.466,0.032c0,0,0.158,4.846,0.562,8.005c3.696,29.198,29.912,65.838,56.651,77.995c3.785,1.719,9.054,4.139,10.286,5.282
				c7.475,47.869,29.172,76.693,74.969,96.439c0.727,0.758,2.793,1.232,3.406,2.186c6.243,29.602,19.89,63.917,45.84,82.784
				l-11.215,1.156L-4002.808,142.773z M-3868.629,193.011c6.211,0,11.247,5.042,11.247,11.253c0,6.211-5.036,11.215-11.247,11.215
				c-6.211,0-11.247-5.004-11.247-11.215C-3879.876,198.053-3874.841,193.011-3868.629,193.011z M-4247.75,254.401
				c0.651,1.624-153.64,132.132-138.627,377.686l-4.467,4.998l1.219,1.75c-5.093,5.788-10.002,10.426-15.562,16.068
				c31.997,20.39,87.764,42.643,87.934,42.062l-10.653,24.686l66.66,21.527l-8.94,23.473c0,0-46.371-15.379-65.592-21.78
				c-9.484,21.022-15.228,43.225-22.127,65.093c-0.651,1.763-2.167,0.916-4.53-2.502c-34.625-59.052-105.74-101.658-103.345-97.437
				l-252.189,239.28l-1.719,147.874l174.535,179.874c0,0-50.51,24.857-74.406,41.159c18.583,15.164,39.617,26.841,58.092,41.184
				c38.221,26.955,64.013,66.571,88.781,93.412c116.816-57.915,234.459-54.693,336.066-19.537
				c-11.841,12.46-25.053,23.252-37.253,36.748c29.532,77.49,20.08,231.382,18.595,235.565
				c61.485-62.805,152.951-197.49,140.75-387.119l25.874-25.944c-0.474-1.327-64.726-35.725-91.504-43.206l7.412-23.568
				l-64.126-20.029l7.153-18.728l63.879,18.5c12.094-29.684,24.907-71.272,24.907-71.272
				c25.501,38.151,53.618,72.865,111.496,108.185l250.754-239.912l-1.63-154.25l-170.719-170.719l71.064-37.032
				c-6.824-5.503-16.725-10.729-23.751-16.245c-0.499-0.398,1.409-1.586,0.91-1.971c-1.788-1.371-3.09-2.483-4.909-3.747
				c-0.404-0.284-1.687,1.561-2.091,1.276c-24.118-16.908-48.241-33.545-67.222-53.776c-0.474-0.512,0.228-2.616-0.246-3.128
				c-9.863-10.539-19.688-20.345-29.722-30.72c-4.65-4.695-12.34-15.841-12.34-15.841l-0.442-3.69l-10.779-13.559
				c-34.714,20.478-182.736,71.873-325.969,14.969l27.22-27.22c-7.247-17.483-11.942-36.988-13.812-52.968
				C-4250.618,369.789-4247.75,254.401-4247.75,254.401z M-3796.251,290.682c6.552,0,11.879,5.32,11.879,11.872
				c0,6.559-5.326,11.879-11.879,11.879s-11.841-5.32-11.841-11.879C-3808.092,296.002-3802.804,290.682-3796.251,290.682z
				 M-3759.105,304.803c6.041,29.514,19.334,72.372,32.572,101.26l-15.771,1.75c-12.845-8.347-26.417-20.522-27.845-37.791
				c-34.733,0.265-44.886-54.206-32.199-47.673c-1.617,18.614,11.727,25.944,24.832,24.118c11.272-1.567,21.028-17.142,7.607-34.335
				C-3763.945,309.814-3761.032,308.064-3759.105,304.803z M-4251.313,392.087c2.3,37.746,9.711,65.27,16.63,93.785l-68.631,64.745
				C-4297.956,491.52-4280.6,438.698-4251.313,392.087z M-3922.185,516.402l8.719,12.498
				c-99.175,58.237-268.446,62.351-371.563,13.25l13.686-13.029C-4180.667,570.065-4033.03,573.104-3922.185,516.402z
				 M-4566.282,535.838c-9.99-0.12-21.527,3.69-33.747,12.997c-45.493-20.724-75.291,27.726-47.161,59.817
				c-4.157,23.094-7.316,27.397,10.065,50.781c-18.462,2.351-41.771-2.483-61.592-5.535c3.349,34.208,52.33,42.169,72.719,38.41
				c22.014-4.771,42.782,6.123,43.686,6.375c12.94,3.614,20.984,9.844,33.753,12.839c21.047,5.01,51.875-19.663,56.342-43.092
				c0.423-3.146,1.396-5.996-0.348-6.47c-14.387,3.684-30.196,8.871-44.216,11.942c-13.73,3.368-24.074,6.691-34.531,14.874
				l-0.878-28.25c71.272,3.387,40.262-64.373,36.224-67.285C-4522.729,566.508-4538.652,536.179-4566.282,535.838z
				 M-3918.469,537.961l15.499,37.285l-41.184,13.964l-10.533-36.495L-3918.469,537.961z M-4569.246,539.086
				c24.225,0.234,45.884,25.748,22.62,54.313c45.101,39.775-12.7,82.399-40.217,52.816c-36.641,33.551-75.562-1.498-55.091-38.031
				c-39.08-34.966,9.111-81.862,42.031-51.66C-4591.822,544.096-4580.259,538.978-4569.246,539.086z M-4287.999,552.746
				c5.8,0,10.501,4.701,10.501,10.495c0,5.8-4.701,10.501-10.501,10.501s-10.501-4.701-10.501-10.501
				C-4298.5,557.447-4293.799,552.746-4287.999,552.746z M-4556.343,553.523c-0.601,0.006-1.314,0.278-2.091,0.973
				c-1.176,0.107-3.728,4.486-10.129,11.904c-11.12,12.89-12.321,13.016-12.321,13.016c-11.854-3.88-19.777-1.788-27.586,3.153
				c0,0-8.896-1.687-21.186-11.948c-5.604-4.688-8.619-5.699-9.592-3.191c-1.042,2.679,1.498,5.314,12.251,12.624
				c14.874,10.122,13.951,9.345,13.951,9.345c-0.922,8.896,0.518,16.125,3.879,22.854c0,0-2.616,6.319-13.18,20.15
				c-2.982,3.905-5.427,8.157-5.434,9.433c-0.025,5.383,4.675,1.763,15.467-11.872c4.233-5.345,10.034-13.003,10.034-13.003
				c12.681,4.391,17.123,1.725,25.072-1.099c0,0,2.729,2.022,9.642,7.538c12.649,10.084,15.385,11.158,16.94,9.876
				c2.091-1.725,1.813-2.287-2.97-5.75c-14.267-10.331-19.177-16.302-19.177-16.302c2.906-11.297-0.271-20.649-3.38-26.544
				c0,0,0.221-1.441,8.277-10.438c5.914-6.603,14.008-17.028,13.502-18.532C-4554.239,554.781-4555.029,553.511-4556.343,553.523z
				 M-4264.311,555.804l37.096,11.531l-8.188,38.568l-39.535-12.75L-4264.311,555.804z M-3995.877,565.276l10.343,37.626
				l-38.593,10.249l-6.312-39.939L-3995.877,565.276z M-3968.777,565.901c5.8,0,10.495,4.701,10.495,10.501
				c0,5.794-4.695,10.495-10.495,10.495s-10.501-4.701-10.501-10.495C-3979.278,570.602-3974.577,565.901-3968.777,565.901z
				 M-3881.064,567.247l32.439,28.869l-36.002,18.191l-17.338-37.626L-3881.064,567.247z M-4186.941,575.587l37.69,4.436
				l-1.529,40.501l-43.25-5.781L-4186.941,575.587z M-4317.689,576.023l41.936,18.406l-15.12,42.251l-42.94-18.437
				L-4317.689,576.023z M-4209.593,579.309c15.455,2.42,11.298,20.655,0,20.996c-5.8,0-10.501-4.701-10.501-10.501
				C-4220.094,584.01-4215.393,579.309-4209.593,579.309z M-4073.998,579.341l5.156,40.527l-39.124,2.376l-0.847-41.184
				L-4073.998,579.341z M-4047.094,583.966c5.801,0,10.501,4.701,10.501,10.495c0,5.8-4.701,10.501-10.501,10.501
				c-5.8,0-10.501-4.701-10.501-10.501C-4057.596,588.667-4052.895,583.966-4047.094,583.966z M-4591.777,587.763
				c5.983,0,10.842,4.833,10.842,10.811c0,5.984-4.859,10.849-10.842,10.849c-5.978,0-10.811-4.865-10.811-10.849
				C-4602.588,592.597-4597.755,587.763-4591.777,587.763z M-4128.47,587.371c5.8,0,10.501,4.701,10.501,10.495
				c0,5.8-4.701,10.501-10.501,10.501s-10.501-4.701-10.501-10.501C-4138.971,592.072-4134.27,587.371-4128.47,587.371z
				 M-3944.186,589.962l15.246,41.658l-42.744,13.781l-12.094-42.782L-3944.186,589.962z M-3914.186,591.087
				c5.8,0,10.501,4.701,10.501,10.501s-4.701,10.501-10.501,10.501s-10.501-4.701-10.501-10.501S-3919.986,591.087-3914.186,591.087
				z M-3840.285,602.902l27.631,19.531l-13.692,7.626C-3829.929,621.472-3836.266,611.293-3840.285,602.902z M-4235.157,606.681
				l40.786,8.846l-6.224,42.719l-44.501-8.877L-4235.157,606.681z M-4356.44,609.025l21.66,10.186l-14.28,35.598l-35.029-18.658
				L-4356.44,609.025z M-4259.628,611.337c5.8,0,10.501,4.701,10.501,10.501s-4.701,10.501-10.501,10.501
				c-5.794,0-10.495-4.701-10.495-10.501S-4265.422,611.337-4259.628,611.337z M-4024.095,613.681l7.285,42.719l-45.998,6.47
				l-2.85-43.566L-4024.095,613.681z M-3851.873,614.497c5.8,0,10.501,4.701,10.501,10.495c0,5.8-4.701,10.501-10.501,10.501
				c-5.801,0-10.501-4.701-10.501-10.501C-3862.374,619.198-3857.673,614.497-3851.873,614.497z M-3884.501,614.806l15.221,37.658
				l-45,18.81l-13.313-37.689L-3884.501,614.806z M-3999.251,617.523c5.8,0,10.501,4.701,10.501,10.501s-4.701,10.501-10.501,10.501
				c-5.794,0-10.495-4.701-10.495-10.501S-4005.045,617.523-3999.251,617.523z M-4151.216,621.807l43.06,0.784l-0.499,43.187
				l-47.161-1.314L-4151.216,621.807z M-3806.81,624.808l16.933,11.746c-174.314,112.09-419.186,125.99-610.281,15.657
				c0,0,7.81-7.778,12.251-12.34C-4215.64,742.963-3964.139,728.494-3806.81,624.808z M-4174.563,629.68
				c5.8,0,10.501,4.701,10.501,10.501c0,5.8-4.701,10.501-10.501,10.501c-5.794,0-10.501-4.701-10.501-10.501
				C-4185.064,634.381-4180.357,629.68-4174.563,629.68z M-4086.155,632.055c5.8,0,10.501,4.701,10.501,10.501
				s-4.701,10.501-10.501,10.501c-5.801,0-10.501-4.701-10.501-10.501S-4091.956,632.055-4086.155,632.055z M-4291.246,637.837
				l44.962,13.003l-7.651,35.497l-49.315-14.185L-4291.246,637.837z M-4321,638.09c5.801,0,10.501,4.701,10.501,10.495
				c0,5.8-4.701,10.501-10.501,10.501c-5.8,0-10.501-4.701-10.501-10.501C-4331.501,642.791-4326.8,638.09-4321,638.09z
				 M-3971.721,645.653l10.754,39.838l-49.72,10.628l-5.996-39.187L-3971.721,645.653z M-3943.156,651.434
				c5.801,0,10.501,4.701,10.501,10.495c0,5.8-4.701,10.501-10.501,10.501c-5.8,0-10.501-4.701-10.501-10.501
				C-3953.657,656.135-3948.956,651.434-3943.156,651.434z M-4592.688,657.62l-0.095,27.934
				c-8.245-6.792-17.559-14.027-27.093-21.344C-4610.151,664.728-4601.11,662.043-4592.688,657.62z M-4695.097,658.309
				c2.274-0.025,7.582,1.832,13.913,1.807c20.244-0.063,58.061,6.255,69.25,15.442c3.728,3.046,9.301,5.756,12.34,10.685
				c-0.006,2.35-3.33,2.414-8.22-0.625c-9.371-5.819-24.971-11.013-45.841-13.907c-3.772-0.518-4.239-0.366-4.252,1.409
				c-0.013,2.193,3.475,3.475,14.469,5.282c14.229,2.332,17.255,3.728,20.409,4.594c8.448,2.313,3.045,5.402-5.649,6.236
				c-35.497,3.323-62.066-11.948-67.418-29.393C-4696.525,658.694-4696.121,658.315-4695.097,658.309z M-4200.627,658.934
				l44.659,5.781l-2.035,37.374l-48.873-5.598L-4200.627,658.934z M-4580.373,662.182c7.803,6.123,2.433,24.693-1.813,30.158
				c-2.755,3.064-9.193,1.44-9.155-2.875c0.967-3.88-0.404-22.348,0.436-28.067
				C-4587.797,659.629-4583.216,660.128-4580.373,662.182z M-4062.872,663.837l2.312,38.53l-48.722,2.218l0.373-37.841
				L-4062.872,663.837z M-4227.253,666.434c5.801,0,10.501,4.701,10.501,10.495c0,5.8-4.701,10.501-10.501,10.501
				c-5.8,0-10.495-4.701-10.495-10.501C-4237.748,671.135-4233.053,666.434-4227.253,666.434z M-4498.719,666.965
				c1.801,28.275-41.626,47.458-57.877,38.776c-7.19-3.842-4.195-6.211,10.065-9.092c18.456-4.884,30.613-9.642,30.625-13.092
				c0.013-2.117-2.793-1.864-10.312,0.935c-11.588,3.892-23.631,5.567-34.688,10.533c-8.265,3.753-11.487,5.067-13.345,2.812
				c-3.892-4.733,14.476-16.668,33.532-19.84C-4526.419,675.615-4512.007,667.995-4498.719,666.965L-4498.719,666.965z
				 M-4035.999,670.491c5.801,0,10.501,4.701,10.501,10.501c0,5.801-4.701,10.501-10.501,10.501c-5.8,0-10.501-4.701-10.501-10.501
				C-4046.5,675.192-4041.8,670.491-4035.999,670.491z M-4133.657,678.18c5.8,0,10.501,4.701,10.501,10.501
				s-4.701,10.501-10.501,10.501s-10.495-4.701-10.495-10.501S-4139.458,678.18-4133.657,678.18z M-3899.691,696.024
				c70.28,66.912,147.309,143.947,210.847,207.315c-0.088,33.153-0.278,99.469-0.278,99.469l-242.629,230.599
				c-43.932-26.828-81.129-60.354-115.375-119.912c3.861-3.336,7.26-5.447,10.185-9.099l-12.649,7.57
				c-44.76-71.588-63.741-214.205,12.277-328.531l-76.813,2.812l12.536-26.158l83.625-4.562l33.81-36.281
				c0,0,10.716-1.984,19.594-4.031c8.808-2.035,26.784-7.178,39.971-11.437C-3911.412,699.511-3900.197,696.024-3899.691,696.024z
				 M-4466.906,714.556c0,0,72.214,39.25,112.311,117.846c-129.617,111.496-178.472,241.337-189.497,376.463
				c-70.546-65.977-106.194-102.485-169.935-166.555l2.312-95.627L-4466.906,714.556z M-4194.283,727.028
				c-18.684,39.939-34.758,83.701-49.157,130.59l-20.093-5.939c0,0,13.003-5.434,18.785-8.871l-10.438-16.813l19.783-8.125
				l-11.689-14.248l20.062-11.626l-10.028-12.593l18.375-9.187l-11.411-13.13l19.284-10.748l-10.059-12.561L-4194.283,727.028z
				 M-4188.123,727.117c0,0,2.584,0.493,5.624,1.093c0.727-0.278-3.621,10.47-3.153,10.849c7.013,1.441,7.424,1.049,9.528,1.687
				l5.345-11.063l8.783,1.656c-17.717,39.977-36.66,83.713-47.534,131.064l-10.343-2.155c0,0,3.02-9.983,3.033-11.316
				c-1.22-0.259-7.039-2.711-8.846-3.437c-0.626,1.561-4.315,13.124-4.315,13.124l-8.183-0.215
				C-4224.789,806.704-4201.423,749.377-4188.123,727.117z M-4154.47,728.652l18.342,15.183l-20.813,8.094l10.786,14.343
				l-22.064,7.974l12.656,14.905l-21.843,8.062l13.035,18.033l-22.722,7.652l14.343,15.847l-20.497,9.591l12.277,12.157
				c0,0-12.789,4.214-13.528,4.404c-2.06,0.531-10.659-1.592-10.659-1.592C-4192.198,817.174-4176.187,770.405-4154.47,728.652z
				 M-4600.75,736.335c-5.067,3.292-2.173,10.451-8.53,16.567c-1.018,1.093-1.1,3.614-1.504,5.813
				c-0.297,1.668-5.32,21.628-5.32,21.628s1.27-1.523,3.279-7.892c1.712-5.434,3.204-15.746,4.132-17.47
				c4.682-1.428,5.396-16.706,10.147-14.615c2.742,1.207,2.218,3.703,0.67,9.566c-3.38,11.708-4.708,16.643,1.093,8.656
				c8.669-10.432,9.516-19.853-0.252-21.843C-4598.058,736.544-4600.149,736.361-4600.75,736.335z M-4469.686,740.683
				l-226.719,212.875l-0.689,79.439l78.905,79.967l56,54.276c20.327-121.567,66.969-237.54,181.782-337.902
				C-4397.997,801.049-4428.136,765.413-4469.686,740.683z M-3858.564,742.869c-133.212,62.61-163.844,191.013-122.591,307.251
				C-3917.673,968.476-3867.846,891.77-3858.564,742.869z M-4332.689,749.37l60.5,19.467l-22.778,77.686l-54.471-16.529
				l-5.561-13.749L-4332.689,749.37z M-3865.249,751.399c-5.788,103.888-44.962,205.356-113.126,284.972
				C-4012.842,951.346-3992.111,815.405-3865.249,751.399z M-4191.092,751.961l-3.81,9.655l8.372,2.376l3.563-9.813
				L-4191.092,751.961z M-4199.471,774.777l-3.437,9.813l8.6,2.906l3.216-9.971L-4199.471,774.777z M-3842.597,776.559
				c-18.639,144.099-96.496,275.242-178.749,342.066c26.215,42.51,57.031,69.857,88.345,92.679l231.692-221.93l-0.91-74.037
				L-3842.597,776.559z M-4454.844,814.804c-1.422,5.27-1.927,7.948-1.927,7.948s2.666-2.464,9.711-6.318
				c45.525-22.708,30.834,11.822,9.39,24.592c-4.796,2.552-9.724,5.585-9.724,5.585s4.555,1.03,9.49,1.946
				c27.63,5.743,21.748,21.9-7.07,19.385c-4.259-0.373-9.263-1.175-9.263-0.935c0,0.234,1.725,6.306,3.722,11.329
				c9.711,24.465-8.41,26.367-20.326,10.811c-1.662-2.161-5.421-8.138-5.421-8.138s-1.175,4.518-1.896,8.89
				c-10.293,38.347-35.7,37.374-26.215-1.529c1.188-4.025,2.635-11.215,2.635-11.215s-5.712,3.45-11.929,6.224
				c-32.907,14.69-38.246-0.43-8.353-22.532c8.498-6.293,11.386-8.764,11.386-8.764c-5.295-0.404-10.179-1.213-14.488-2.293
				c-23.839-5.984-30.196-20.238,8.006-19.568c5.642,0.114,11.386,0.487,11.386,0.487s-1.883-8.195-3.867-14.368
				c-9.219-28.585,9.352-31.984,25.021-6.375c3.336,5.447,4.29,5.478,4.29,5.478c-0.48,0.019,0.985-9.75,4.783-18.785
				C-4456.537,761.527-4449.113,793.593-4454.844,814.804L-4454.844,814.804z M-4045.092,786.371
				c-15.916,28.111-29.792,56.07-36.407,85.217l-61.908-1.062c4.284-25.849,15.215-52.728,28.282-81.161
				C-4089.927,788.677-4067.193,787.572-4045.092,786.371z M-4208.531,798.838l-3.563,10.343l8.972,2.749l3.248-10.059
				L-4208.531,798.838z M-4671.466,818.242c-6.634,17.237-8.852,36.432-12.536,51.811c-1.548,8.922,0.031,12.637,5.377,14.627
				c7.607,2.837,18.583-1.03,24.718-9.812c3.462-4.954,5.977-15.183,6.501-33.248l0.594-16.093
				C-4656.219,823.777-4662.646,821.256-4671.466,818.242z M-4216.903,820.491l-2.969,9.503l8.656,3.216l3.311-9.591
				L-4216.903,820.491z M-3815.971,824.055c10.533,0.259,12.492,1.207,22.032,6.843l18.406,18.943
				c-4.821,4.619-7.841,11.108-7.841,18.311c0,14.008,11.367,25.375,25.375,25.375c6.944,0,17.812-7.311,17.812-7.311l29.172,30.209
				c-20.996,9.193-41.449-19.082-42.479-19.082c4.562-4.808-12.188,57.795-28.035,55.154c-14.292-2.388,0.259-59.135,0.411-57.827
				c-9.819,10.381-57.688,21.439-54.333,9.844c6.66-23.031,42.46-31.908,47.174-35.908
				C-3807.315,857.151-3831.452,825.394-3815.971,824.055L-3815.971,824.055z M-4669.153,824.8c6.06,0.43,10.224,1.156,14.343,2.881
				c1.921,0.512,2.003,2.117,2.218,3.627c0.032,6.799,1.738,26.765-4.562,26.967c-7.007-0.145-13.579,1.352-18.191,4.878
				c-3.703,2.831-4.935,0.783-3.937-6.47c0.967-7.032,4.467-21.805,5.971-27.782C-4673.071,826.43-4671.112,824.693-4669.153,824.8z
				 M-4479.998,825.059c-14.008,0-25.375,11.361-25.375,25.375c0,14.008,11.367,25.375,25.375,25.375
				c14.008,0,25.375-11.367,25.375-25.375C-4454.623,836.42-4465.989,825.059-4479.998,825.059z M-4479.998,833.93
				c9.105,0,16.498,7.393,16.498,16.504c0,9.105-7.393,16.466-16.498,16.466s-16.504-7.361-16.504-16.466
				C-4496.501,841.323-4489.103,833.93-4479.998,833.93z M-4349.073,834.24c58.162,100.394,51.426,238.197-17.148,338.445
				l73.724-5.156l-9.692,18.867l-78.589,7.658c-12.011,10.994-22.942,23.555-34.751,35.32l-0.126,4.145
				c-26.942,6.255-53.909,13.458-81.375,23.366c-14.494-14.242-41.765-42.7-41.582-43.408l1.75-9.212
				c186.913-95.371,132.233-286.615,119.078-302.342C-4397.737,877.85-4373.803,855.192-4349.073,834.24L-4349.073,834.24z
				 M-3830.314,852.494c7.569,0,13.686,6.148,13.686,13.717s-6.116,13.717-13.686,13.717c-7.57,0-13.718-6.148-13.718-13.717
				S-3837.884,852.494-3830.314,852.494z M-3769.379,856.184l22.974,23.656c-2.982,2.938-7.077,4.777-11.594,4.777
				c-9.105,0-16.498-7.361-16.498-16.466C-3774.497,863.45-3772.532,859.185-3769.379,856.184z M-4558.277,859.116
				c7.569,0,13.686,6.123,13.686,13.692s-6.117,13.717-13.686,13.717c-7.576,0-13.724-6.148-13.724-13.717
				S-4565.853,859.116-4558.277,859.116z M-4660.282,864.872c6.42,2.142,4.929,8.145-3.368,13.42
				c-5.371,3.412-10.287,4.164-15.006,1.636C-4687.603,875.139-4669.04,861.744-4660.282,864.872z M-4554.309,898.429
				l-82.595,79.913c5.194-13.285,5.383-26.522,5.781-39.784c24.851,2.559,35.257-10.046,31.624-36.003
				C-4583.45,903.516-4566.807,901.822-4554.309,898.429z M-4421.969,907.559c38.296,109.199,5.036,224.764-114.75,291.689
				C-4531.79,1094.602-4487.864,994.568-4421.969,907.559z M-4312.874,917.119c65.731,17.205,140.561,25.223,218.246,25.28
				c0.588,29.564,2.009,60.825,8.062,91.002c-66.173-17.313-140.093-25.362-220.843-23.934
				C-4304.054,978.216-4309.418,942.779-4312.874,917.119z M-3825.437,933.276l-70.002,81.84l2.938-44.687
				c23.58,3.008,31.971-9.427,28.502-34C-3851.14,938.021-3838.301,935.771-3825.437,933.276z M-4505.625,937.806l-5.529,32.685
				c-13.97,0.379-27.688,5.339-27.504,36.537l-41.746-0.506L-4505.625,937.806z M-3735.247,943.84
				c7.57,0,13.686,6.148,13.686,13.717s-6.116,13.718-13.686,13.718c-7.576,0-13.724-6.148-13.724-13.718
				S-3742.823,943.84-3735.247,943.84z M-4569.126,947.991c7.57,0,13.718,6.148,13.718,13.724c0,7.57-6.148,13.686-13.718,13.686
				c-7.569,0-13.717-6.116-13.717-13.686C-4582.843,954.139-4576.695,947.991-4569.126,947.991z M-3765.841,962.056l-7.317,49.496
				c-19.069-1.668-34.992,1.264-30.095,34.815c-16.137-1.58-38.543,2.237-53.562,3.538L-3765.841,962.056z M-3834.188,971.022
				c7.57,0,13.717,6.154,13.717,13.727c0,7.569-6.148,13.686-13.717,13.686s-13.717-6.116-13.717-13.686
				C-3847.905,977.176-3841.757,971.022-3834.188,971.022z M-4669.621,981.653c7.57,0,13.711,6.142,13.711,13.711
				c0,7.569-6.142,13.698-13.711,13.698c-7.576,0-13.692-6.129-13.692-13.698C-4683.313,987.794-4677.197,981.653-4669.621,981.653z
				 M-4624.153,997.866c17.509,3.93,9.408,44.747,5.466,55.843c-0.297,0.303,48.854-25.741,51.779-14.242
				c1.921,23.05-40.685,39.124-40.685,39.124s28.718,24.945,29.533,40.628c0.07,10.135-12.011,8.252-27.688-4.6
				c-6.704-6.584-11.891-11.512-16.504-16.1c5.39-4.65,8.783-11.537,8.783-19.208c0-14.014-11.367-25.375-25.375-25.375
				c-7.74,0-14.659,3.475-19.315,8.934c-3.633-3.5-7.746-7.582-13.281-12.814c-9.055-8.467-15.411-15.202-14.495-18.248
				c11.948-8.416,35.718,14.191,37.841,16.251C-4649.875,1043.65-4636.727,1000.217-4624.153,997.866L-4624.153,997.866z
				 M-4648.094,1048.06c0.095,0.228,0.221,0.366,0.411,0.366C-4647.683,1048.426-4647.993,1048.148-4648.094,1048.06z
				 M-3901.656,1029.749c8.328-0.126,7.81,18.842,4.846,28.686c-2.034,7.506-4.031,13.648-4.031,13.648s7.014-5.472,10.122-6.938
				c22.664-10.615,31.112,1.415,19.688,15.354c-5.491,7.165-12.978,8.758-19.063,14.773c8.663,0.404,18.608,2.312,26.095,6.723
				c5.819,3.475,10.381,7.696,10.375,10.312c-0.025,5.864-14.412,9.023-27.877,7.506c-5.731,0.114-16.497-2.944-16.497-2.944
				s4.461,7.519,6.091,12.005c5.03,13.938,3.26,30.278-4,30.24c-12.157-3.248-18.09-16.757-22.841-26.462
				c-3.905,10.817-7.683,22.393-16.377,30.43c-8.618,7.974-13.041,1.352-12.593-12.144c0.177-5.383,4.126-21.407,4.126-21.407
				c-51.06,17.237-47.262-6.091-7.418-26.512c-24.541-11.702-39.452-22.228,2.287-24.617c-1.1-0.998-8.391-23.353-0.594-28.597
				c7.254-4.865,22.696,11.854,23.441,12.662c-0.316-1.656,4.069-14.747,11.405-23.783
				C-3908.84,1032.314-3904.67,1029.787-3901.656,1029.749z M-3948.722,1078.401c0.057,0.051,0.107,0.051,0.126,0
				C-3948.596,1078.401-3948.71,1078.401-3948.722,1078.401z M-3725.213,1063.629c-8.896,0.809-14.425,8.707-18.539,15.581
				c-0.834,1.39-2.369,1.896-2.944,3.74c-3.684,11.854-6.9,26.07-8.871,43.749c5.636,2.325,18.343,6.23,23.96,4.12
				c1.58-0.657,1.093-4.739,1.63-6.091C-3713.966,1084.416-3712.582,1062.479-3725.213,1063.629z M-4638.78,1062.618
				c9.104,0,16.497,7.393,16.497,16.504c0,5.232-2.438,9.895-6.249,12.902c-10.628-10.59-16.068-16.15-23.183-23.125
				C-4648.694,1065.069-4644.031,1062.618-4638.78,1062.618z M-3722.066,1070.478c2.224,5.409-4.941,11.285-14.21,11.247
				c-5.516-0.025-7.311,0.758-4.859-4.019C-3738.21,1071.893-3726.338,1060.115-3722.066,1070.478z M-3846.471,1066.649
				c7.576,0,13.718,6.154,13.718,13.724s-6.148,13.686-13.718,13.686c-7.569,0-13.717-6.116-13.717-13.686
				S-3854.04,1066.649-3846.471,1066.649z M-4569.625,1067.622c7.57,0,13.718,6.116,13.718,13.686s-6.148,13.724-13.718,13.724
				c-7.569,0-13.686-6.154-13.686-13.724S-4577.194,1067.622-4569.625,1067.622L-4569.625,1067.622z M-3921.06,1073.182
				c-14.014,0-25.375,11.361-25.375,25.375c0,14.014,11.361,25.375,25.375,25.375c14.008,0,25.375-11.361,25.375-25.375
				C-3895.685,1084.543-3907.052,1073.182-3921.06,1073.182z M-4260.185,1076.582c-6.672,29.242-16.939,57.195-29.912,84.844
				c-24.458,1.479-50.901,2.616-68.34,5.105c29.046-50.876,29.747-62.843,40.501-89.785L-4260.185,1076.582z M-4218.154,1080.714
				c6.868,0.809,14.4,1.845,21.186,3.159c-12.485,43.938-28.996,89.065-50.314,132.498l-12.902-1.997l-6.129-7.57l20.503-8.189
				l-15.973-16.314l26.468-7.999l-16.276-16.062l26.152-6.533l-13.995-16.997l23.467-9.149l-14.905-19.259l25.002-6.875
				L-4218.154,1080.714z M-3921.06,1082.053c9.105,0,16.498,7.393,16.498,16.504c0,9.111-7.393,16.466-16.498,16.466
				c-9.111,0-16.504-7.355-16.504-16.466C-3937.564,1089.446-3930.171,1082.053-3921.06,1082.053z M-4192.28,1084.555l8.72,1.403
				l-2.686,9.351l9.933,2.123l3.223-10.097c0,0,7.986,0.746,8.839,1.377c-10.406,42.422-47.218,131.222-47.685,130.754l-9.472-1.415
				l2.502-8.959l-8.814-1.251v-0.101l-4.246,9.756l-9.408-0.784C-4218.584,1164.711-4203.072,1124.779-4192.28,1084.555
				L-4192.28,1084.555z M-3729.093,1087.929c6.988-0.025,6.565,3.576,1.498,16.757c-4.758,12.371-6.54,17.338-8.852,18.943
				c-5.51,3.905-17.369,0.632-16.409-5.067c3.121-18.5,4.227-26.386,9.004-28.901
				C-3738.874,1088.675-3734.027,1087.955-3729.093,1087.929z M-4157.219,1089.458l22.746,4.41l-19.031,11.31l12.093,14.128
				l-23.372,9.97l14.185,14.684l-22.557,9.225l13.718,16.15l-23.41,9.882l15.941,13.812l-26.316,8.302l9.971,15.316l-9.907,5.535
				l-12.22-1.908C-4185.096,1172.963-4172.055,1134.042-4157.219,1089.458z M-4101.313,1100.781l44.564,12.119l8.903,15.91
				l-20.902,70.59l-59.381-17.439L-4101.313,1100.781z M-4189.873,1107.593l-4.252,11.588l9.812,2.035l3.778-11.942
				L-4189.873,1107.593z M-4198.504,1134.219l-4.246,11.588l9.218,1.807l4.341-11.714L-4198.504,1134.219z M-4207.186,1157.622
				l-4.347,11.525l8.972,1.845l4.277-11.563L-4207.186,1157.622z M-3788.511,1178.839c0,0-5.244,3.905-5.289,5.497
				c0.992,2.641,3.406,5.977,2.976,8.644c-0.392,2.009-2.628,3.627-5.99,7.203c-8.391,9.768-11.335,8.694-6.47-1.719
				c1.605-3.273,2.312-6.319,2.312-6.319c-1.94,2.717-3.399,5.939-4.713,8.492c-2.768,5.333-5.345,10.362-5.345,10.362
				c5.339,1.845,8.89,5.813,12.34,8.391c0,0,1.757-4.726,2.97-9.238c1.693-6.306,5.03-8.896,9.13-11.07
				c2.578-1.365,5.042-3.854,5.042-3.854C-3786.053,1190.63-3786.565,1184.058-3788.511,1178.839L-3788.511,1178.839z
				 M-4216.467,1181.683l-4.594,12.283l8.934,2.186l4.966-12.536L-4216.467,1181.683z M-4720.655,1212.555
				c-0.815,48.905,0.803,81.104-0.903,133.85l132.403,171.584l-20.655,6.938c0,0-0.227,2.388-1.346,2.692
				c-28.294,7.784-74.185,15.531-74.185,15.531c34.132,77.945,56.266,175.401,40.995,272.755l342.688-0.91L-4720.655,1212.555z
				 M-3995.908,1295.428l-11.809,11.853c-174.282-94.322-414.308-93.955-589.468,20.244l-14.28-10.463
				C-4420.294,1194.572-4185.096,1195.343-3995.908,1295.428z M-4714.248,1229.716l403.339,579.403l-47.376,0.682l-355.622-465.216
				L-4714.248,1229.716z M-3848.657,1240.179c0,0-11.645,3.02-21.438,6.154c-28.022,8.985-41.133,25.185-38.562,47.692
				c0.765,6.647,2.483,6.559,13.907-0.657c26.727-16.87,28.395-17.616,61.687-27.372c2.572-0.758,6.312-0.19,6.312-0.19
				l-1.466,26.285c-55.495-0.215-52.462,43.863-36.502,66.773c-5.585,10.602-17.812,47.591,22.437,61.656
				c20.08,4.006,41.342-12.308,40.691-13.155c37.032,17.515,80.011-11.853,46.498-62.717c12.599-22.178,3.715-38.656-8.315-52.81
				c0,0,2.035,0.177,19.562,3.399c26.594,4.916,36.755,4.031,36.755,4.031c0.031-23.922-19.79-34.613-61.125-37.873
				C-3797.496,1265.529-3848.657,1239.977-3848.657,1240.179L-3848.657,1240.179z M-4295.157,1242.959
				c2.003-0.013,3.98-0.013,5.971,0.038l-1.939,40.868l-45.032,2.072l-2.932-40.729
				C-4323.584,1244.147-4309.171,1243.01-4295.157,1242.959z M-4241.191,1243.958l48.317,5.876l-7.311,38.227l-44.501-4.789
				L-4241.191,1243.958z M-3850.344,1244.4c4.966-0.114,3.879,5.042-1.94,6.192c-8.681,1.693-30.954,14.659-30.967,18.033
				c-0.013,2.161,1.099,1.858,9.25-2.502c4.075-2.186,12.58-5.889,18.873-8.29c6.3-2.388,13.496-5.27,16.005-6.407
				c7.481-3.374,11.196-1.036,8.499,5.345c-1.788,4.221-2.49,4.562-19.846,10.072c-15.701,4.979-18.583,6.268-28.559,12.649
				c-3.722,2.388-10.318,6.192-14.659,8.442c-10.261,5.307-12.34,5.333-12.308-1.82c-0.569-21.167,22.854-37.052,54.592-41.626
				C-3851.02,1244.438-3850.672,1244.412-3850.344,1244.4z M-4267.47,1249.366c6.041,0,10.938,4.903,10.938,10.944
				c0,6.041-4.897,10.931-10.938,10.931s-10.938-4.89-10.938-10.931C-4278.407,1254.269-4273.51,1249.366-4267.47,1249.366z
				 M-4386.996,1252.272l3.589,37.102l-44.28,11.373l-10.122-38.315C-4420.869,1258.275-4403.942,1255.369-4386.996,1252.272z
				 M-3816.565,1255.091c12.144,1.845,11.177,29.646,4.973,34.461c-9.553,6.887-15.423-7.506-11.158-26.588
				C-3821.551,1257.226-3819.333,1255.217-3816.565,1255.091z M-4361.874,1256.582c6.041,0,10.938,4.903,10.938,10.944
				c0,6.04-4.897,10.931-10.938,10.931c-6.04,0-10.937-4.891-10.937-10.931C-4372.811,1261.485-4367.914,1256.582-4361.874,1256.582
				z M-4145.562,1259.779l50.062,13.648l-12.252,38.758l-46.965-13.218L-4145.562,1259.779z M-4172.813,1260.524
				c6.041,0,10.938,4.903,10.938,10.944s-4.897,10.931-10.938,10.931s-10.937-4.89-10.937-10.931
				S-4178.854,1260.524-4172.813,1260.524z M-3763.282,1263.772c21.565,0.228,50.011,11.045,50.061,27.725
				c-0.436,4.739-45.177-1.554-65.838-9.882c-7.336-2.944-16.27-11.929-16.251-15.682c0.006-2.237,4.372-2.073,6.154,0.088
				c2.906,3.538,13.206,7.228,36.875,13.193c18.178,4.574,19.992,4.751,19.998,1.997c0.013-2.515-10.735-5.977-22.374-7.911
				c-5.851-0.948-11.316-2.717-20.314-3.488c-4.189-0.025-5.213-2.654-1.719-4.448
				C-3772.879,1264.24-3768.254,1263.722-3763.282,1263.772L-3763.282,1263.772z M-3801.376,1272.403
				c5.44,2.553,7.405,7.633,10.406,10.312c-3.734,1.769-5.396,3.551-11.437,3.993
				C-3802.298,1282.728-3803.385,1277.963-3801.376,1272.403z M-4456.967,1275.398c6.041,0,10.938,4.903,10.938,10.944
				c0,6.04-4.897,10.931-10.938,10.931c-6.04,0-10.937-4.891-10.937-10.931C-4467.904,1280.301-4463.007,1275.398-4456.967,1275.398
				z M-4486.404,1278.494l11.809,37.873l-42.308,18.412l-15-37.532C-4517.276,1289.552-4501.278,1283.966-4486.404,1278.494z
				 M-4290.753,1284.686c0,0,33.709,0.038,45.347,0.177l-2.717,42.751l-42.062,0.316L-4290.753,1284.686z M-4335.778,1287.024
				l2.337,42.688l-40.495,5.434l-8-42.928L-4335.778,1287.024z M-4079.717,1287.403c6.04,0,10.937,4.89,10.937,10.931
				c0,6.04-4.897,10.944-10.937,10.944c-6.041,0-10.937-4.903-10.937-10.944
				C-4090.654,1292.294-4085.757,1287.403-4079.717,1287.403z M-3786.685,1288.402c24.661,0.101,48.178,28.471,23.814,58.18
				c39.964,30.758-3.488,82.443-38.814,52.317c-50.516,49.613-78.747-17.755-57.845-35.623
				c-30.872-50.725,7.058-82.785,46.188-60.405C-3806.14,1292.647-3796.333,1288.364-3786.685,1288.402z M-4199.471,1289.615
				l44.438,9.882l-8.934,42.22l-43.408-8.821L-4199.471,1289.615z M-4052.408,1290.651l40.628,20.181l-31.504,30.316l-23.404-11.651
				L-4052.408,1290.651z M-4312.874,1295.428c6.04,0,10.937,4.903,10.937,10.944c0,6.04-4.897,10.931-10.937,10.931
				c-6.041,0-10.938-4.891-10.938-10.931C-4323.812,1300.331-4318.915,1295.428-4312.874,1295.428z M-4225.092,1296.805
				c6.041,0,10.938,4.903,10.938,10.944c0,6.04-4.897,10.931-10.938,10.931C-4241.191,1316.165-4236.856,1297.159-4225.092,1296.805
				z M-4427.434,1302.959l9.907,42.22l-41.159,13.913l-14.722-41.133L-4427.434,1302.959z M-4399.153,1305.967
				c6.041,0,10.931,4.891,10.931,10.931c0,6.041-4.891,10.944-10.931,10.944s-10.943-4.903-10.943-10.944
				C-4410.096,1310.857-4405.193,1305.967-4399.153,1305.967z M-3789.939,1325.428c-3.096,3.854-7.165,8.378-7.165,8.378
				c-10.236-4.221-20.162-2.527-26.803,2.022c0,0-7.051-5.623-13.496-10.83c-11.171-9.023-14.899-11.095-14.912-7.317
				c0,0.783,3.791,4.638,8.41,8.593c12.593,10.779,15.171,14.659,15.171,14.659c-3.033,9.781-2.995,17.439,2.786,25.666
				c0,0,0.24,1.062-4.183,5.737c-8.024,8.454-16.302,21.521-14.393,23.442c2.369,2.388,9.073-3.336,17.483-14.697
				c5.996-8.1,7.797-8.277,7.797-8.277c10.236,2.755,15.897,5.257,26.127-3.184c0,0,3.861,1.175,11.563,7.531
				c12.011,9.907,16.321,12.043,17.622,8.682c1.068-2.73-0.512-4.575-10.684-12.308c-6.622-5.042-13.989-10.944-13.989-10.944
				c2.167-3.551,3.696-16.175-3.709-24.806c0,0,0.297,0.569,11.247-13.623c7.285-9.44,8.542-10.64,6.129-12.662
				C-3778.155,1307.281-3788.853,1324.088-3789.939,1325.428L-3789.939,1325.428z M-4107.341,1313.334l40.091,16.845l-14.343,41.904
				l-38.719-15.809L-4107.341,1313.334z M-4548.496,1316.152c6.041,0,10.931,4.891,10.931,10.931c0,6.04-4.891,10.943-10.931,10.943
				c-6.04,0-10.943-4.903-10.943-10.943C-4559.439,1321.043-4554.536,1316.152-4548.496,1316.152z M-4138.346,1317.277
				c6.041,0,10.938,4.891,10.938,10.931c0,6.041-4.897,10.944-10.938,10.944s-10.937-4.903-10.937-10.944
				C-4149.283,1322.167-4144.386,1317.277-4138.346,1317.277z M-4576.499,1320.272l13.123,32.502l-29.842-22.253L-4576.499,1320.272
				z M-4247.472,1328.65l39.939,4.714l-6.312,38.062l-34.436-3.121L-4247.472,1328.65z M-4291.063,1328.739l-0.404,39.137
				l-37.942,1.617l-3.216-39.061L-4291.063,1328.739z M-4486.247,1335.866c6.034,0,10.931,4.903,10.931,10.944
				c0,6.041-4.897,10.931-10.931,10.931c-6.041,0-10.943-4.89-10.943-10.931C-4497.19,1340.769-4492.287,1335.866-4486.247,1335.866
				z M-4516.499,1336.649l15.436,39.313l-23.934,11.563l-32.098-30.379L-4516.499,1336.649z M-4373.715,1337.155l6.186,37.405
				l-39.566,9.781l-9.591-38.062L-4373.715,1337.155z M-3808.25,1337.521c8.612,0,15.594,6.988,15.594,15.594
				c0,8.618-6.982,15.594-15.594,15.594s-15.594-6.976-15.594-15.594C-3823.844,1344.51-3816.862,1337.521-3808.25,1337.521z
				 M-4271.153,1338.709c6.041,0,10.938,4.903,10.938,10.943c0,6.041-4.897,10.931-10.938,10.931s-10.943-4.891-10.943-10.931
				C-4282.097,1343.612-4277.194,1338.709-4271.153,1338.709z M-4163.405,1342.74l42.188,13.661l-14.191,33.778l-36.433-9.869
				L-4163.405,1342.74z M-4350.374,1344.156c6.04,0,10.937,4.891,10.937,10.931c0,6.04-4.897,10.944-10.937,10.944
				c-6.041,0-10.938-4.903-10.938-10.944C-4361.312,1349.046-4356.415,1344.156-4350.374,1344.156z M-4189.967,1348.187
				c6.041,0,10.937,4.891,10.937,10.931c0,6.041-4.896,10.944-10.937,10.944s-10.938-4.903-10.938-10.944
				C-4200.905,1353.077-4196.008,1348.187-4189.967,1348.187z M-4457.845,1360.988l14.532,33.437l-39.687,17.161l-17.281-34.094
				L-4457.845,1360.988z M-4429.722,1362.997c6.041,0,10.944,4.89,10.944,10.931s-4.903,10.944-10.944,10.944
				c-6.04,0-10.931-4.903-10.931-10.944S-4435.762,1362.997-4429.722,1362.997z M-4283.5,1373.082
				c65.156-0.126,123.968,13.496,171.186,33.033l-14.059,13.193c-153.147-52.633-253.294-28.913-356.001,16.125l-10.375-12.814
				C-4420.155,1387.109-4348.656,1373.22-4283.5,1373.082z M-4110.247,1373.499c6.04,0,10.937,4.891,10.937,10.931
				c0,6.041-4.897,10.944-10.937,10.944c-6.041,0-10.944-4.903-10.944-10.944
				C-4121.191,1378.389-4116.288,1373.499-4110.247,1373.499z M-4509.347,1397.496c8.789,0.518,9.629,16.908,5.535,12.182
				l-9.781-11.31C-4512.007,1397.686-4510.598,1397.42-4509.347,1397.496z M-4099.936,1404.27
				c-0.322,12.435-12.106,95.775-51.843,153.071c-2.414-28.977-9.408-63.627-17.218-86.752
				C-4168.997,1470.588-4126.233,1431.073-4099.936,1404.27z M-4608.344,1530.55l206.816,278.884l-21.723-0.164
				c-4.537-20.472-11.102-41.424-23.998-57.094c-10.47-12.713-19.846-22.292-38.625-30.834
				c-11.304-5.143-12.757-4.044-13.471-12.725c-3.412-48.779-42.909-79.448-73.155-91.125
				c-2.919-29.482-16.226-58.484-49.593-82.911L-4608.344,1530.55z M-4628.481,1537.235c18.898,12.991,39.604,24.25,50.763,75.443
				c0.84,10.716,1.498,9.566,9.907,12.725c32.957,9.655,61.63,49.271,64.189,83.909c-0.032,10.438,3.374,11.361,16.251,16.769
				c15.803,6.647,32.211,20.687,41.5,34.511c13.812,19.865,18.69,49.954,17.496,48.526l-11.374,0.063
				c-8.119-51.015-40.21-71.374-74.16-80.902c2.641-72.018-53.359-94.499-72.921-97.886c1.15-51.875-32.414-73.269-54.073-90.683
				C-4636.866,1538.12-4628.481,1537.235-4628.481,1537.235L-4628.481,1537.235z M-4661.938,1544.388
				c16.921,5.535,29.741,29.103,28.439,39.945c22.311,2.818,45.752,24.389,40.608,46.845c-1.649,0.96-4.258,1.15-6.836-1.428
				c5.977-43.585-59.084-22.013-33.083,9.528l-11.626,7.595c-9.351-43.623-20.863-68.34-33.355-99.844
				C-4673.235,1545.828-4661.938,1544.388-4661.938,1544.388L-4661.938,1544.388z M-4608.06,1635.778
				c5.775,0,10.432,4.688,10.432,10.463c0,5.775-4.657,10.476-10.432,10.476c-5.781,0-10.47-4.688-10.47-10.476
				C-4618.53,1640.466-4613.841,1635.778-4608.06,1635.778z M-4552.205,1682.825c24.851,7.026,32.888,32.174,32.066,41.323
				l-5.428-0.126c-8.732-39.844-54.149-18.159-35.193,13.61c-24.276,8.972-22.361,31.39-15.209,40.249
				c9.863,12.232,35.017,11.841,42.688-6.976c23.606,30.531,56.171-3.728,27.435-32.186c23.53,8.656,27.308,40.186,23.77,50.03
				c10.925,3.728,23.505,21.066,21.824,20.965l-176.31,0.025c0,0,8.536-71.146-0.531-124.84c11.727,2.818,19.6,5.661,33.096-10.186
				c21.836,18.083,37.538,4.436,36.407-11.184c-1.681-10.931-7.33-16.352-16.693-22.127
				C-4565.164,1636.7-4550.708,1669.771-4552.205,1682.825L-4552.205,1682.825z M-4532.529,1732.943
				c5.952,0,10.779,4.827,10.779,10.779c0,5.952-4.827,10.779-10.779,10.779c-5.958,0-10.786-4.827-10.786-10.779
				C-4543.315,1737.771-4538.487,1732.943-4532.529,1732.943z"/>
		</g>
	</g>
</g>
</svg>
