<?xml version="1.0" encoding="iso-8859-1"?>
<!-- Generator: Adobe Illustrator 16.0.0, SVG Export Plug-In . SVG Version: 6.00 Build 0)  -->
<!DOCTYPE svg PUBLIC "-//W3C//DTD SVG 1.1//EN" "http://www.w3.org/Graphics/SVG/1.1/DTD/svg11.dtd">
<svg version="1.1" id="Layer_1" xmlns="http://www.w3.org/2000/svg" xmlns:xlink="http://www.w3.org/1999/xlink" x="0px" y="0px"
	 width="163.067px" height="262.111px" viewBox="0 0 163.067 262.111" style="enable-background:new 0 0 163.067 262.111;"
	 xml:space="preserve">
<g id="g2993" transform="matrix(0.99997859,0.0065437,-0.0065437,0.99997859,-2088.7261,-72.360276)">
	
		<path id="path3995" style="fill:#010101;" d="
		M2088.098,58.53c0.603,79.124,2.081,176.356,2.703,262.533l163.713-1.11l-2.806-262.113L2088.098,58.53z M2136.503,59.893
		c28.25,0.582,56.664-0.433,85.12-0.398c0,0-10.221,18.075-13.317,23.763c-0.677,1.251-0.742,2.133-0.368,2.647
		c0.577,0.796,0.538,2.149-0.097,2.936c-0.272,0.337-0.395,0.554-0.415,0.756c-0.019,0.2,0.162,0.418,0.31,0.779
		c0.517,1.723-0.781,2.927-2.145,3.49c-0.914,0.378-2.954,0.637-4.461,0.575c-9.445-0.386-28.016-8.246-35.651-8.818
		c-5.304-1.444-12.143-0.882-17.78-0.525c-1.065,0.07-0.895-2.413-0.895-2.413C2145.86,74.494,2140.007,67.395,2136.503,59.893z
		 M2223.161,60.074l26.692-0.145l0.149,4.309l-11.157,11.586c-1.051,1.083-1.88,1.981-1.88,1.981l0,10.388
		c-7.683-4.064-9.24-8.97-10.674-14.368c-12.737,9.526-13.2,30.193,0.841,40.74c0.084-4.622,3.546-13.725,9.782-14.439l0.323,35.993
		l-7.724-7.446l-16.685,0.326c2.722-4.481,2.761-8.027,0.953-12.199c-3.045-6.816-7.776-22.389-7.421-22.339
		c0,0,0.131-0.337,0.509-0.423c1.382-0.318,2.253-1.658,1.847-3.261c-0.079-0.516-0.075-0.394,0.273-1.068
		c1.342-2.325-0.292-4.829-0.292-4.829L2223.161,60.074z M2134.636,60.87l10.134,18.04c0,0-0.125,0.832-0.069,1.319
		c0.083,0.701,0.321,1.323,0.727,1.974c0.269,0.431,0.468,1.02,0.532,1.566c0.104,0.898,0.105,0.898,1.428,2.076
		c0.278,0.247,0.332,0.4,0.231,0.66c-0.427,1.102-0.158,3.35,0.721,6.029c1.109,3.384,1.389,3.338-0.606,7.887
		c-0.416,0.95-0.918,2.217-1.459,3.384c-2.466,5.15-2.843,6.544,1.465,9.253c1.213,0.763,1.571,1.428,1.279,2.964
		c-0.229,1.21-0.272,1.981,0.312,2.658c0.379,0.439,0.72,0.509,0.628,0.85c-0.062,0.232-0.337,1.238-0.237,2.082
		c0.268,2.274-2.338,5.641-4.729,6.832c-0.478,0.343-0.618-0.071-0.892-0.544c-2.513-4.335-8.685-2.531-9.062,2.661
		c-0.099,1.373-0.052,1.967-0.405,2.261c-0.12,0.099-0.48,0.307-0.48,0.307s-9.215,6.08-15.082,9.212
		c-0.383,0.205-0.725,0.539-0.995,0.595c-0.313,0.065-0.545,0.01-0.741-0.184c-2.199-4.118-1.027-9.007-0.851-10.739
		c-0.051-0.613-0.576-0.721-1.366-0.724c-1.338-0.007-3.255,1.362-3.666,2.63c-0.349,1.078-0.573,1.775-0.896,1.773
		c-0.325-0.003-0.486-0.435-1.302-1.981c-1.699-3.215-1.96-3.621-3.54-5.484c-1.261-1.486-2.328-1.677-3.547-0.556
		c-0.847,0.779-0.823,0.106-1.552-0.28c-1.257-0.844-3.135-0.068-3.173,1.131c-0.032,1.006-0.036,1.763-1.054,1.836
		c-1.135,0.082-1.619,1.551-1.285,3.638c0.175,1.098,0.209,1.275-0.124,1.681c-1.089,1.322-1.227,2.232-0.611,4.064
		c1.756,5.222,4.273,8.728,6.648,13.471c0,0-5.933,3.419-9.454,5.406l-0.729-97.369L2134.636,60.87z M2250.39,65.287l0.694,84.582
		l-12.864-12.48c0,0-0.355-16.207-0.386-22.834c-0.031-6.627,0.022-13.253-0.013-14.486c-0.034-1.232,0.024-6.477,0.029-11.86
		c0.01-11.279-1.013-9.878,1.07-12.055L2250.39,65.287z M2225.479,75.592l0.718,2.036c-5.336,3.105-11.777,20.248,0.334,32.725
		l-0.224,2.588C2213.623,101.588,2215.85,85.172,2225.479,75.592z M2226.411,77.999c1.863,3.782,3.977,7.126,6.842,9.164
		c-1.512,3.676-2.147,7.724,0.49,13.16c-1.818,1.013-4.335,3.688-6.925,9.149C2217.265,99.945,2219.287,86.029,2226.411,77.999z
		 M2155.839,85.629c5.264-0.026,10.76,0.797,15.803,2.28c3.28,16.028,8.926,26.78,8.943,33.064c0,0-0.44-0.071-1.38-0.739
		c-2.304-1.641-5.309-0.698-6.908,1.421c-1.515,2.007,0.042,4.776-0.734,5.946c-1.468,2.182-5.257,6.225-5.897,6.096
		c-0.466-0.094-0.392-0.297,1.227-2.818c1.686-2.624,2.977-5.001,2.411-5.576c-0.24-0.244-0.363,0.276-1.62,2.492
		c-2.949,5.201-5.552,8.422-6.594,8.012c-0.488-0.191-0.239-0.622,1.951-3.556c2.473-3.312,3.152-5.378,2.898-6.289
		c-0.195-0.7-0.573,0.435-1.596,2.467c-1.09,2.15-3.069,4.551-4.666,6.856c-0.505,0.833-1.158,1.318-1.997,1.702
		c-0.621,0.275-1.611,0.721-2.187,0.652c-0.296-0.036-0.093-0.211,0.309-0.61c3.161-3.298,5.874-6.97,7.404-10.489
		c0.236-0.462-0.112-1.115-0.502-0.629c-2.353,4.205-5.635,9.455-9.219,11.784c-0.769,0.5-1.928,0.927-2.978,0.846
		c-1.772-0.039-1.148-0.438,0.459-1.485c3.439-2.241,8.244-8.653,9.013-10.915c0.181-0.534-0.027-0.838-0.367-0.798
		c-2.812,4.564-6.534,9.592-10.885,11.713c-2.344,1.144-5.31,1.385-6.772,0.682c-1.073-0.515-0.805-0.698,1.09-0.832
		c4.561-0.48,9.88-4.799,12.499-9.35c1.533-2.52,0.449-1.937-1.305,0.496c-2.994,4.152-8.969,8.153-12.691,7.863
		c-3.765-0.198-5.949-3.099-5.482-5.602c0.283-1.514,1.346-3.062,3.448-3.517c3.598-0.78,5.995,4.913,2.703,6.011
		c-1.121,0.375-1.55,0.099-1.146-0.354c2.439-1.087,1.332-4.02-0.733-4.306c-1.299-0.181-2.799,0.704-2.849,2.717
		c0.048,1.5,1.292,2.958,3.771,2.977c2.938,0.023,7.431-2.122,10.14-6.032c1.921-2.988,0.14-1.972-1.294,0.023
		c-1.265,1.76-5.373,4.237-5.688,4.15l0.126-2.018c0.066,0.348,6.324-3.997,5.934-7.197c-0.25-2.324,0.084-3.037,2.506-3.023
		c1.809,0.01,4.114,0.629,4.787,1.455c0.695,0.817,1.469,1.071,1.118-0.311c-0.569-2.243,0.093-2.619-1.207-2.184
		c-0.897,0.3-1.698-0.417-2.604-1.05c-0.996-0.697-2.252-0.989-3.746-0.926c-1.118,0.047-1.622-0.017-1.45-1.073
		c0.121-0.744,0.259-1.421,0.04-1.907c-0.355-0.79-1.76-1.6-3.348-2.754c-1.876-1.363-1.531-1.446,2.387-10.64
		c1.645-3.86,1.646-4.65,0.626-7.486c-1.611-4.481-1.872-6.277,1.09-6.924C2152.353,85.744,2154.084,85.638,2155.839,85.629
		L2155.839,85.629z M2172.696,88.121l1.542,0.429c0.012,0.001,4.916,16.382,7.714,24.378c0.854,2.44,1.513,5.739,1.694,8.842
		c-0.047,4.274-2.433,7.356-5.365,7.71c-2.077,0.251-4.337-0.811-5.384-3.116c-0.885-2.193-0.245-4.79,2.256-5.701
		c4.33-1.577,7.545,3.941,3.3,5.674c-2.195,0.897-4.298-0.679-3.318-2.536c0.687-1.302,2.644-1.175,3.114,0.163
		c0.386,1.423,1.006,0.746,0.733-0.218c-0.827-3.072-4.776-2.32-5.075,0.516c0.023,3.513,3.874,4.313,6.155,2.325
		c1.767-1.588,1.935-4.438,1.475-6.907c-0.644-5.131-3.594-11.771-5.707-19.357C2174.777,96.534,2173.255,92.019,2172.696,88.121z
		 M2233.962,87.903l2.899,1.125l-0.006,9.529l-2.446,0.861C2231.169,94.536,2233.793,87.908,2233.962,87.903z M2175.365,88.904
		l2.125,0.803c1.204,6.718,6.76,19.538,8.753,29.121c0.576,5.764,0.674,7.456-3.213,10.553l0-0.044l-2.114,0.014
		c0,0-0.009-0.129,0.913-0.826c5.09-3.86,1.982-12.271,0.007-18.738C2178.401,99.459,2175.324,88.891,2175.365,88.904z
		 M2155.565,89.704c-0.268,0.006-0.541,0.018-0.815,0.035c-3.195,0.193-3.718,0.4-3.724,1.096c-0.01,1.31,0.53,1.887,3.5,1.546
		c2.57-0.295,6.299,0.08,8.875,1.168c2.937,1.242,3.634,1.534,4.69,2.069c2.651,1.343,2.181-0.007-0.218-1.562
		C2162.974,90.879,2159.592,89.63,2155.565,89.704z M2178.626,90.017l1.993,0.745c0,0,0.536,1.546,0.73,2.433
		c1.992,8.573,7.318,18.194,8,28.233c0.16,3.29-0.384,6.362-2.787,7.862l-1.819,0.012c1.933-1.948,3.226-2.515,2.638-9.237
		C2186.463,111.433,2180.695,100.679,2178.626,90.017z M2182.163,91.389l1.839,0.664c2.188,11.581,12.772,28.836,6.161,37.238
		l-1.665,0.011c1.472-2.329,2.072-4.37,1.829-7.498C2189.61,111.272,2184.169,101.083,2182.163,91.389z M2185.245,92.436l1.978,0.59
		c2.757,11.73,13.183,30.912,5.876,36.285l-1.448-0.03C2197.115,118.904,2188.658,108.259,2185.245,92.436z M2188.694,93.509
		c0.609,0.333,1.476,0.488,2.138,0.675c2.135,8.869,5.989,17.579,7.771,25.841c0.612,4.525-0.36,7.923-3.197,9.23l-0.607,0.004
		c2.527-3.872,2.014-8.731,0.617-13.978C2193.537,108.227,2189.926,100.475,2188.694,93.509z M2157.591,93.867
		c-0.916-0.003-1.875,0.142-2.888,0.472c-1.036,0.4-0.904,1.218,0.06,1.043c0.327-0.06,0.905-0.166,1.288-0.235
		c2.365-0.429,5.29,0.406,8.84,2.524c0.858,0.512,1.789,1.004,2.021,1.174c0.654,0.48,1.347,0.474,1.104-0.143
		c-0.096-0.246-1.468-1.294-2.677-1.961C2162.749,95.199,2160.343,93.874,2157.591,93.867z M2192.054,94.414l1.991,0.291
		c3.853,17.166,12.133,27.793,5.152,34.218l-1.757,0.012c1.909-1.975,2.757-5.054,2.095-8.683
		c-0.675-3.704-2.629-9.577-4.252-14.742C2193.402,99.52,2191.885,94.457,2192.054,94.414z M2194.911,94.878l1.686,0.302
		c2.019,6.975,5.427,15.615,7.491,22.816c1.269,4.429,0.807,9.897-1.956,10.922l-1.424,0.034c2.33-3.156,2.644-6.431,1.542-10.654
		C2199.99,109.629,2196.604,102.072,2194.911,94.878z M2205.307,94.819c1.75,7.233,5.907,18.257,7.399,22.063
		c1.978,3.885,1.43,9.658-1.491,11.961l-1.389,0.038c1.668-1.581,2.228-4.23,1.943-6.969c-0.805-7.741-6.36-18.448-8.399-26.686
		L2205.307,94.819z M2197.92,95.211l1.738,0.148c1.79,7.566,5.223,14.909,7.469,22.473c0.42,1.708,0.791,3.796,0.658,5.335
		c-0.28,3.227-1.599,5.778-2.772,5.786l-1.197,0.008c2.426-2.929,2.281-6.9,1.206-11.162
		C2203.247,110.752,2199.008,102.272,2197.92,95.211z M2152.679,95.545c-0.724,0.009-0.733,0.672,0.431,1.677
		c0.712,0.615,0.656,0.409,0.619,0.803c-0.162,1.679,0.113,3.213,0.792,1.481c0.181-0.462,0.447-0.984,0.718-0.922
		c0.511,0.154,0.258,1.093,0.507,1.565c0.421,0.833-0.02,1.041-1.033,0.789c-0.729-0.182-0.767,0.213-1.216,0.718
		c-0.785,0.883-0.653,1.407,0.562,1.125c0.201-0.046,0.37,0.01,0.527,0.045c0.38,0.084,0.729,0.323,1.637,1.007
		c1.168,0.88,2.822,2.051,3.892,2.225c1.711,0.278,1.324-0.539-0.079-1.067c-1.204-0.451-2.701-1.719-2.698-2.072
		c0.001-0.272,0.38-0.113,2.539-0.721c0.937-0.264,2.252-0.85,2.807-1.109c0.915-0.429,0.958-0.426,2.396-0.393
		c2.449,0.057,2.822-0.029,1.097-1.291c-3.486-2.551-8.125-4.195-10.573-3.112c-0.742,0.329-0.726,0.13-1.266-0.175
		C2153.632,95.719,2153.059,95.54,2152.679,95.545z M2202.328,95.451c2.466,9.246,7.17,17.514,8.359,26.291
		c0.272,2.512-0.133,4.97-2.207,7.105l-1.41,0.034c-0.206,0.005,1.947-3.371,1.74-6.248c0.047-1.535-0.133-3.181-0.581-4.804
		c-2.782-7.793-5.519-14.854-7.657-22.284L2202.328,95.451z M2158.931,98.776c0.014-0.001,0.026-0.002,0.039,0
		c0.656,0.099,0.68,0.36,0.492,0.702c-0.28,0.508-0.772,1.482-0.772,1.482s-0.664,0.135-0.801-0.033
		C2157.646,100.581,2158.512,98.831,2158.931,98.776z M2160.598,99.065c0.073-0.001,0.163,0.035,0.304,0.09
		c0.631,0.244,1.728,0.748,1.258,1.145c-0.556,0.471-2.722,0.696-2.618,0.5l0.715-1.342
		C2160.411,99.173,2160.477,99.068,2160.598,99.065z M2154.015,107.203c-0.056,0.003-0.104,0.017-0.139,0.039
		c-0.125,0.076,0.162,0.578,0.582,1.145c1.934,2.574-0.716,3.359-2.603,1.987c-1.793-1.376-4.547-1.227-4.14,0.225
		c0.144,0.512,0.009,0.762,1.004,0.771c0.886,0.007,1.115,0.054,1.915,0.595c3.065,2.067,6.99-0.752,5.044-3.735
		C2155.31,107.666,2154.407,107.178,2154.015,107.203z M2161.571,111.194c-1.108,0.007-1.802,0.838-0.413,1.076
		c4.962,0.858,1.672,6.018-1.841,3.394c-3.169-2.823-7.382-2.776-7.419-0.758c-0.004,0.508,0.019,0.525,0.767,0.661
		c1.758,0.321,4.385,1.102,5.392,1.601c0.592,0.294,1.215,0.567,1.385,0.609c2.104,0.749,4.789-0.26,5.311-2.032
		C2165.23,114.124,2164.817,111.173,2161.571,111.194L2161.571,111.194z M2099.506,128.137c0.664,0.003,1.373,0.58,1.883,1.426
		c1.176,1.956,2.611,5.249,3.526,7.063c0.232,0.457,0.243,0.867,0.23,1.084c0.077,1.067,0.438,1.467,1.068,0.982
		c0.62-0.477,1.479-1.272,0.464-1.393c-1.024-0.761-1.599-1.885-0.973-2.577c0.462-0.508,0.278-0.835-0.097-0.853
		c-1.428-0.012-3.584-4.246-2.587-5.168c1.345-1.243,2.853,0.276,6.082,6.579c1.422,2.783,1.507,5.838,0.294,4.332
		c-0.413-0.379-0.327-0.181-0.8,1.024c-0.354,0.907-0.647,1.336-2.015,2.668c-1.664,1.621-2.67,2.9-2.706,3.18
		c-0.069,0.534,0.905,0.03,1.61-0.903c1.582-1.565,1.638-1.979,1.637,0.08c0,1.864-0.094,2.205,0.241,2.19
		c0.523-0.023,0.794-1.498,1.027-3.279c0.281-1.603,1.108-2.417,2.488-3.317c0.379-0.248,0.384-0.417,0.306-1.122
		c-0.271-2.262,0.989-6.49,1.582-5.451c0.084,0.235,0.342,0.782,0.48,1.166c0.114,0.594,0.494,1.264,1.066,1.306
		c0.715,0.528,0.714,0.816,0.974,2.764c0.084,0.636,0.372,1.589,0.573,2.096c0.374,0.943,0.707,1.494,0.504,1.778
		c-0.129,0.14-0.403,0.403-0.403,0.403l-11.558,6.955c0,0-0.908,0.509-1.236,0.65c-0.917,0.421-1.478,0.118-1.936-0.566
		c-2.482-3.646-4.197-7.749-5.949-11.532c-1.052-2.245-0.047-3.741,1.305-1.934c0.526,0.703,0.262,1.155,0.013,2.519
		c-0.045,0.247,0.183,0.151,0.615,0.218c0.677-0.077,1.008,0.526,0.99,1.553c-0.419,1.473,0.167,0.676,0.448,0.601
		c0.536,0.004,0.656,0.326,0.961,0.935c0.193,0.86,0.57,0.608,1.12,0.036c0.454-0.473,0.455-0.461-0.474-1.556
		c-1.603-1.715-3.838-5.596-4.425-7.964c-0.162-0.653-0.107-1.177,0.01-1.525c0.709-1.625,1.711-1.637,2.819,0.618
		c0.188,0.384,0.557,1.002,0.82,1.376c0.424,0.605,0.688,1.124,0.68,2.09c-0.318,0.812-0.37,0.828-0.091,0.937
		c0.694,0.269,1.934,1.513,1.997,2.632c0.063,1.137,0.259,1.741,1.15,1.06c1.016-0.776,0.579-1.083-0.433-2.064
		c-1.062-1.248-1.134-2.335-0.513-3.245c0.101-0.305,0.057-0.39-0.331-0.35c-1.224,0.126-2.424-1.417-1.58-2.601
		c0.386-0.694,0.34-0.871-0.214-0.886c-0.288-0.009-0.764,0.05-1-0.08c-0.367-0.676-1.129-1.621-1.126-2.397
		C2098.369,128.578,2098.921,128.133,2099.506,128.137z M2172.23,127.718c2.02,1.221,4.02,2.492,6.286,3.063
		c-5.177,9.468-13.567,14.578-20.604,16.599c0.247,1.206,0.426,2.408,1.599,3.142c-0.041-0.182-0.573-2.322-0.462-2.763
		c9.696-2.544,18.182-12.113,20.336-17.033l42.675-0.742c-31.44,30.556-32.421,73.279-6.373,108.914l-2.957,1.752
		c-20.086-29.664-20.071-58.372-14.231-77.636c4.141-13.657,11.664-24.12,17.392-30.108c0,0-23.141-0.167-34.655,0.332
		c-1.657,2.57-3.199,4.671-5.432,7.102c0,0,5.814-5.689,5.657-6.669c10.674-0.076,21.676-0.764,32.34-0.091
		c-12.376,15.009-18.423,30.46-19.395,44.964c-0.028,1.886-0.148,0.833-0.767,1.53l-1.949,3.068l-1.6-3.166
		c-1.075-0.339-3.181,0.234-4.079-0.084c-4.26,19.606,0.329,43.205,6.205,58.587c0,0-1.445,0.822-3.23,0.697
		c-1.956-0.421-2.429,0.121-4.119,0.476c-1.943,0.382-2.622,0.384-3.05,0.879c-0.238,0.275-0.668,0.659-1.157,0.929
		c-4.728,1.752-10.246,8.243-10.247,8.151l-5.234-2.306c4.747-9.473,10.367-12.908,20.257-17.162l-0.949-4.213
		c-10.539,4.005-17.23,8.759-22.472,17.948c-6.434-0.05-32.492-0.063-32.519,0.019c10.55-12.155,18.81-30.442,19.633-44.661
		c0.208-2.771-0.171-1.436,1.048-2.271l1.911-2.306l1.525,2.248c0,0,1.103,1.385,1.788,0.221
		c1.809-19.834-0.39-42.422-10.044-58.114c1.694-0.122,3.381-0.18,5.01,0.769c3.791,8.435,6.061,18.872,7.067,26.699
		c1.275,9.908,1.177,21.093,0.008,30.599l0.637,0.082c1.781-12.354,1.064-25.478-0.72-36.941
		c-0.916-5.979-3.802-15.322-5.771-19.632c-0.544-1.191-0.962-1.497-0.454-1.677C2162.765,137.864,2168.091,133.946,2172.23,127.718
		z M2139.967,128.972c0.891-0.006,1.616,0.711,1.622,1.602s-0.71,1.617-1.601,1.623s-1.617-0.711-1.623-1.602
		C2138.359,129.705,2139.076,128.978,2139.967,128.972z M2227.45,129.22c-3.387,3.107-6.103,6.321-8.957,9.746
		c8.587,11.649,18.13,24.275,26.15,34.361c0,0,2.742-1.649,2.729-1.852c-0.007-0.107-0.224-0.645-0.274-0.525
		c-0.115,0.283-2.22,1.477-2.22,1.477l-25.387-32.87c0,0,1.354-1.643,1.772-2.159c1.951-0.656,7.349-7.432,7.616-7.295
		c4.286,3.239,17.237,17.001,22.218,21.213l0.315,38.436c-0.503,1.54-14.175,7.556-23.713,29.728
		c-4.852,2.76-10.237,4.264-15.239,6.67c0,0,1.291,1.999,1.918,2.546c-0.777-1.651-0.914-1.967,0.818-2.685l36.137-15.006
		l-0.048,2.983l-0.555,5.154c-9.821,6.146-18.127,8.748-31.639,18.008c-0.967,0.233-1.742,1.168-2.763,1.225
		c-35.004-50.832-13.092-89.447,6.987-108.907L2227.45,129.22z M2114.567,132.57c0.946,0.009,0.721,2.205,0.376,2.966
		c-0.695,0.553-1.395,0.071-1.386-0.956c0.002-0.335-0.065-0.651-0.15-0.704C2112.881,133.545,2113.751,132.564,2114.567,132.57z
		 M2135.75,133.803c0.801,0.599,1.101,1.403,1.4,2.207c-1.076-0.162-3.959-0.968-2.613-1.62L2135.75,133.803z M2130.531,136.69
		c25.254,37.653,24.397,77.825-3.311,108.454l35.307-0.284c4.436-8.898,11.887-14.352,21.445-17.744l0.854,2.78
		c-10.987,3.605-16.519,9.501-20.897,17.649l-42.108,0.276c16.064-17.514,23.38-32.267,24.416-52.165
		c0.987-18.952-3.945-36.222-18.72-56.943L2130.531,136.69z M2137.582,137.078l5.917,2.746l-0.834,6.058l-6.197-2.807
		L2137.582,137.078z M2126.96,138.847c31.849,47.5,18.542,81.146-6.453,109.237l-4.638,0.107l-10.877-9.974l0.597,61.033
		c0,0-10.474,10.397-11.677,11.643c-1.189,1.16-2.099-0.605-2.099-0.605l-0.5-80.911l0.447-3.173l0.031-17.436l6.695-3.587
		l25.412,32.86c0,0-1.002,1.499-1.471,1.767c-0.303,0.174-0.078,0.467,0.177,0.432c0.708-0.096,2.711-2.367,2.285-2.728
		c-9.214-11.262-26.351-33.32-26.351-33.32l-7.051,3.738c0,0,0.109-14.476-0.054-20.031c0.263-1.312,1.248-0.968,1.906-1.557
		c8.114-5.29,13.814-11.72,17.317-17.944c0.258-0.465,1.808-3.259,1.96-3.512c0.547-0.905,1.9-3.731,2.687-5.535
		c0.44-1.009,0.906-2.23,1.085-2.377c4.892-1.628,10.023-3.928,14.934-5.996l-7.16-10.596L2126.96,138.847z M2107.637,139.582
		c-0.266-0.002-0.94,0.31-1.85,1.146c-1.68,1.544-3.891,4.078-3.895,4.558c0.455,0.161,0.854-0.102,1.214-0.471
		c1.399-2.096,3.579-2.926,4.849-4.762C2108.151,139.713,2107.941,139.575,2107.637,139.582z M2123.537,141.692
		c0,0,4.939,7.096,6.203,8.981c-12.86,5.19-26.307,12.02-38.228,16.46l-0.019-2.857l1.854-5.144L2123.537,141.692z
		 M2142.749,146.278l4.839,2.46l-1.326,5.448l-4.883-2.691L2142.749,146.278z M2146.786,155.302l3.981,2.861l-1.78,4.626
		l-4.01-2.721L2146.786,155.302z M2114.473,158.898c0,0-0.596,2.143-1.61,4.065c-4.847,8.551-9.597,16.155-19.468,22.794
		c-0.379-0.333-1.471-2.215-1.471-2.215l-0.113-2.524c5.228-4.257,9.744-7.386,16.625-19.822l2.012-0.833l1.723,0.732l1.15-2.084
		L2114.473,158.898z M2135.098,158.781c-4.506,9.723-8.936,19.749-16.165,27.35l20.102,27.677
		C2145.461,194.131,2142.907,175.746,2135.098,158.781z M2110.047,161.059l-0.945,1.662l1.662,0.944l0.945-1.661L2110.047,161.059z
		 M2107.345,161.256c-3.557,8.093-8.933,14.336-16.014,18.848l-0.353-11.839L2107.345,161.256z M2108.63,163.657l-0.945,1.661
		l1.661,0.945l0.945-1.662L2108.63,163.657z M2149.346,163.737l3.613,3.385l-2.108,3.774l-3.704-3.022L2149.346,163.737z
		 M2204.372,165.053c-0.004,0.001-0.008,0.005-0.01,0.009c-6.183,19.658-4.165,38.383,4.6,54.635
		c4.179-10.6,7.621-17.697,15.841-29.007C2219.652,184.036,2204.883,164.837,2204.372,165.053z M2107.236,166.002l-0.993,1.633
		l1.634,0.993l0.993-1.633L2107.236,166.002z M2134.787,168.11c5.778,13.563,5.357,25.829,2.401,36.476l-14.327-17.858
		C2128.024,180.231,2131.442,174.091,2134.787,168.11z M2105.784,168.347l-1.066,1.585l1.585,1.072l1.066-1.591L2105.784,168.347z
		 M2104.211,170.616l-1.168,1.518l1.513,1.168l1.168-1.518L2104.211,170.616z M2151.035,171.917l3.24,3.035l-2.006,3.976
		l-3.287-2.967L2151.035,171.917z M2102.368,172.979l-1.227,1.461l1.461,1.226l1.226-1.46L2102.368,172.979z M2206.165,172.73
		l14.457,18.403c-4.758,5.738-8.699,12.487-12.214,19.758C2204.332,198.402,2202.448,186.116,2206.165,172.73z M2100.37,175.295
		l-1.314,1.389l1.39,1.313l1.313-1.389L2100.37,175.295z M2133.87,176.924l-6.497,9.527l7.583,9.551
		C2135.73,190.802,2135.873,184.767,2133.87,176.924z M2098.246,177.466l-1.401,1.303l1.302,1.401l1.401-1.302L2098.246,177.466z
		 M2096.188,179.328l-1.479,1.217l1.217,1.478l1.474-1.216L2096.188,179.328z M2152.217,179.942l2.714,3.129l-2.71,3.257
		l-2.577-2.86L2152.217,179.942z M2186.461,180.282l1.831,0.055c-2.807,29.613,3.188,44.547,8.49,57.534
		c0,0-0.008,0.524-0.183,0.677c-0.849,0.299-2.566,0.626-3.953-0.578C2185.509,219.977,2183.833,197.764,2186.461,180.282z
		 M2093.791,181.271l-1.542,1.129l1.13,1.542l1.542-1.13L2093.791,181.271z M2208.452,181.572
		c-0.465,0.003-0.791,12.181,1.002,18.114l6.539-8.982L2208.452,181.572z M2191.408,183.692l2.226,2.949l-2.32,3.205l-2.414-3.005
		L2191.408,183.692z M2092.027,185.149c0.11-0.018,0.293,0.289,0.65,0.531c0.331,0.343,0.284,0.318-0.083,0.614
		c-0.574,0.464-0.747,0.391-0.741-0.328C2091.898,185.373,2091.94,185.163,2092.027,185.149z M2152.393,186.978l2.46,3.474
		l-2.674,3.488l-2.332-3.639L2152.393,186.978z M2191.263,191.145l2.589,3.11l-2.184,3.448l-2.826-3.259L2191.263,191.145z
		 M2250.723,191.418l0.25,3.604l-0.896-1.313l-1.624,1.261l1.149,1.504l1.417-1.121l0.096,1.453
		c-9.001,6.594-12.853,14.127-16.485,19.782l-1.627,0.702l-1.861-0.578l-0.898,1.613l-1.576,0.381
		c-0.048-0.009,3.124-6.921,8.583-13.971C2242.113,198.459,2250.698,191.36,2250.723,191.418L2250.723,191.418z M2251.807,197.054
		l0.162,12.818l-16.143,6.36C2239.979,209.046,2244.889,202.371,2251.807,197.054L2251.807,197.054z M2247.776,195.52l-1.469,1.223
		l1.284,1.454l1.464-1.222L2247.776,195.52z M2245.516,197.466l-1.416,1.279l1.336,1.405l1.416-1.289L2245.516,197.466z
		 M2191.476,198.529l3.072,3.228l-2.209,3.852l-3.197-3.024L2191.476,198.529z M2243.231,199.557l-1.327,1.374l1.471,1.395
		l1.328-1.374L2243.231,199.557z M2241.142,201.727l-1.275,1.428l1.562,1.335l1.275-1.426L2241.142,201.727z M2239.044,204.159
		l-1.183,1.506l1.625,1.239l1.181-1.51L2239.044,204.159z M2192.577,206.762l3.83,2.452l-1.833,4.549l-3.828-2.877L2192.577,206.762
		z M2237.214,206.489l-1.109,1.56l1.73,1.166l1.124-1.615L2237.214,206.489z M2235.508,208.952l-1.027,1.614l1.75,1.108l1.022-1.667
		L2235.508,208.952z M2233.983,211.39l-0.944,1.662l1.811,1.016l0.945-1.68L2233.983,211.39z M2232.61,213.908l-0.945,1.662
		l2.005,0.85l0.781-1.583L2232.61,213.908z M2194.698,215.18l3.922,2.619l-1.696,4.767l-4.142-2.889L2194.698,215.18z
		 M2251.351,219.487l0.833,97.827l-42.99,0.432c0,0-2.033-3.526-6.293-11.67c-1.804-3.447-3.319-4.908-3.492-7.647
		c0.151-1.61-0.605-3.432-1.929-4.157c-0.444-0.245-1.183,0.059-0.94-0.631c0.266-0.76-0.577-1.922-0.806-2.167
		c-0.264-0.438-0.102-0.546-0.14-2.177c-0.037-1.576-0.125-2.236-0.47-3.425c-0.874-3.002-1.074-4.505-0.595-6.069
		c1.243-3.965,2.548-7.009,4.236-10.71c0.982-2.165,0.824-3.007-2.24-4.556c-2.295-1.159-2.599-1.145-2.322-2.862
		c0.129-0.804,0.252-1.312,0.081-1.7c-0.105-0.236-0.486-0.565-0.71-0.753c-0.301-0.252-0.214-0.78,0.089-1.172
		c0.297-0.387,0.295-0.936-0.007-1.85c-0.638-1.922,0.76-4.484,3.42-6.263c1.176-0.787,1.144-0.627,2.383,0.66
		c3.624,3.756,8.958,1.346,8.933-3.984c-0.007-1.66-0.573-1.557,0.993-2.352c5.303-3.423,16.194-9.657,16.123-9.489
		c0.721,1.447,0.967,2.683,1.427,4.243c0.398,1.337,0.348,1.441,0.22,4.049c-0.115,2.356-0.183,2.906,0.373,3.052
		c3.156,0.327,3.87-0.793,4.46-2.834c0.256-0.9,0.761-0.722,1.075-0.345c1.214,2.178,2.748,4.439,3.755,5.985
		c1.26,1.974,3.366,2.947,4.459,2.004c0.226-0.773,0.417-0.798,1.811-0.49c1.692,0.374,2.648-0.58,2.802-1.823
		c0.061-0.496-0.3-0.475,0.602-0.971c2.233-1.675,1.363-3.937,1.017-5.302c0.03,0.072,0.955-0.571,0.968-1.85
		c0.064-6.639-5.752-16.162-5.621-15.915L2251.351,219.487z M2197.095,223.664l4.58,2.177l-1.041,5.46l-4.705-2.079
		L2197.095,223.664z M2241.538,225.401c2.649,3.032,4.584,8.103,5.587,11.409c0.495,1.645,0.567,3.528,0.136,3.792
		c-0.425,0.263-0.626-0.013-0.552-1c0.062-0.821,0.082-1.458-0.269-1.446c-1.019,0.27-1.069-1.276-0.967-1.64
		c0.068-0.243,0.193-0.415,0.247-0.547c0.248-0.601-0.409-0.515-1.089-0.52c-0.602,0.02-0.76-0.347-0.734-0.917
		c-0.022-0.633-0.859-0.502-1.333-0.019c-0.433,0.44-0.338,0.957,0.255,1.315c0.852,0.514,1.661,1.786,3.666,6.173
		c1.164,2.549,0.836,4.364-0.531,4.353c-0.948-0.021-2.069-2.612-2.974-4.518c-0.234-0.493,0.34-1.049,0.541-1.316
		c0.521-0.693,0.439-0.909-0.339-0.916c-0.728-0.005-1.038,0.061-1.482-0.834c-0.167-0.337-0.291-0.854-0.235-1.182
		c0.37-0.993-0.404-1.228-1.149-0.842c-0.94,0.401-0.928,1.24,0.519,2.608c0.937,1.513,0.694,1.41-0.176,2.439
		c-0.181,0.363-0.069,0.584,0.317,0.588c1.11-0.347,2.335,1.649,2.008,2.337c-0.339,0.297-1.264,1.374-0.363,1.163
		c1.829-0.512,2.96,2.164,1.887,3.081c-1.604,0.817-1.986,0.568-4.497-4.369c-0.781-1.532-1.718-3.178-1.833-3.347
		c-0.115-0.167-0.168-0.622-0.166-0.987c0.102-0.897-0.281-1.098-1.057-0.737c-0.583,0.144-1.107,0.628-0.364,1.079
		c0.874,1.485,1.181,1.723,0.708,2.105c-1.074,0.868-0.606,0.83,0.605,1.062c0.594,0.174,0.898,0.478,1.063,0.843
		c0.634,1.4,1.757,3.375,1.869,3.777c0.373,1.029-0.286,1.494-1.193,1.457c-0.948,0.028-1.388-0.717-1.853-1.355
		c-1.74-2.385-2.997-4.75-4.774-7.459l0.219-2.546c0,0,0.462,0.097,0.72-0.028c0.505-0.247,0.8-1.044,1.082-2.103
		c0.456-0.921,3.173-3.029,4.21-4.158c0.193-0.128,0.354-0.338,0.354-0.465c-0.009-0.412-1.186-0.129-1.954,0.765
		c-1.132,1.019-1.621,0.675-1.592-0.617c-0.123-1.595-1.091-0.788-1.13,0.769c-0.117,1.233-0.54,1.984-1.396,2.679
		c-1.617,1.311-1.349,0.98-1.261,2.784c0.153,3.147-1.045,5.743-1.852,4.034c-0.286-0.608-0.621-1.299-1.331-1.323
		c-0.503-0.02-0.754-0.511-1.04-1.728c-0.424-1.966-1.007-3.232-1.544-5.043L2241.538,225.401z M2201.11,232.447l5.275,2.061
		l-0.948,5.508l-5.226-1.958L2201.11,232.447z M2241.229,232.692c-0.035,0.002-0.076,0.01-0.12,0.03
		c-1.475,1.129-2.834,2.396-4.443,3.369c-0.604,0.361-1.306,1.292-1.308,1.538c-0.002,0.242,0.72,0.232,1.423-0.082
		c0.667-0.295,4.459-3.904,4.462-4.232C2241.503,233.022,2241.476,232.675,2241.229,232.692z M2192.962,239.688
		c1.244-0.01,0.52,0.364-2.181,2.264c-2.638,1.855-6.968,7.696-7.461,9.858c-0.223,0.98,0.399,1.052,1.089-0.298
		c3.177-6.204,9.227-11.895,14.801-11.681c2.73,0.105,4.209,0.832,1.953,1.171c-6.19,0.8-10.796,4.364-14.802,11.429
		c-0.001,0.158,0.368,0.148,0.791-0.124c3.679-4.559,7.819-10.592,15.162-10.154c5.297,0.284,6.843,6.571,2.461,8.75
		c-3.82,1.898-7.383-2.641-4.225-5.369c1.025-0.886,1.672-0.505,0.688,0.4c-2.112,1.944,0.516,5.36,3.097,4.04
		c1.572-0.67,2.195-2.93,0.795-4.624c-3.115-3.769-9.752-0.844-14.349,5.307c-0.482,0.646-0.895,2.049-0.486,1.894
		c0.719-0.3,1.15-0.867,1.569-1.506c1.64-2.306,2.904-3.466,5.138-4.715c1.726-0.964,1.834-0.787,1.198,0.871
		c-0.268,0.699-0.484,0.931-1.154,1.369c-2.812,1.946-4.549,4.542-4.608,6.188c-0.043,1.203,0.847,2.766-0.105,3.095
		c-1.613,0.776-6.029,0.18-7.229-1.332c-0.865-1.09-1.192-0.453-0.537,1.32c0.433,1.173,0.418,1.835,1.059,1.712
		c0.808-0.435,1.365-0.337,2.943,0.512c0.76,0.409,2.107,0.787,2.926,0.971c1.494,0.334,1.806,0.185,1.777,0.832
		c-0.009,0.197,0.062,0.755,0.022,1.105c-0.229,1.947,1.399,2.598,3.621,3.861c1.299,0.74,0.793,1.512-0.68,5.223
		c-0.768,1.679-1.417,3.937-2.367,5.643c-0.885,1.918-0.948,4.008-0.354,6.389c1.102,4.417,1.89,6.66-0.021,7.073
		c-4.922,0.776-15.804,0.818-21.76-1.428c-1.594-11.392-9.756-28.259-8.753-32.639c2.081,3.092,10.717,2.213,8.058-6.453
		c0,0,0.701-1.065,2.098-2.5c3.603-3.703,4.494-4.317,2.793-1.065c-1.308,2.499-2.975,5.76-3.009,6.391
		c-0.027,0.502,0.365,0.615,0.667,0.212c0.225-0.298,0.487-1.023,0.718-1.573c2.129-5.075,5.794-9.661,8.334-10.775
		c0.654-0.288,0.622,0.013,0.172,0.573c-2.972,3.748-5.237,7.21-6.835,11.721c-0.07,0.465,0.59,0.654,0.797,0.212
		c2.772-5.909,3.604-7.25,7.031-11.423c1.347-1.64,2.604-2.47,3.614-2.389c0.873,0.072,0.616,0.217-0.186,1.083
		c-0.612,0.662-1.518,1.582-2.979,3.447c-2.579,3.288-5.159,8.628-4.198,8.344c0.169,0.442,0.98-0.979,1.665-2.333
		c1.879-3.202,3.869-7.432,8.365-10.233C2191.023,239.935,2192.052,239.704,2192.962,239.688L2192.962,239.688z M2105.691,241.288
		l8.089,7.978l16.163-0.313c-2.639,4.16-1.173,10.57,0.32,14.315c2.928,7.336,7.229,19.455,6.921,19.633c0,0-2.347,0.621-2.55,2.112
		c-0.3,2.211,0.657,2.041-0.712,4.044c-0.308,0.451-0.102,1.298,0.234,1.969c0.223,0.491,0.437,1.233,0.031,1.814l-14.091,25.53
		l-27.058,0.306l-0.033-5.086l13.459-13.807l-0.23-10.09c7.404,2.147,9.992,9.755,10.662,15.399
		c13.269-12.269,12.82-30.606,0.13-42.029c-2.378,12.178-11.168,14.761-10.977,14.519L2105.691,241.288z M2206.228,242.074
		c0.865,0.055,2.033,0.188,2.827,0.608c-0.534,0.324-0.913,0.709-1.267,1.104C2207.349,243.02,2206.763,242.605,2206.228,242.074
		L2206.228,242.074z M2228.633,242.013c0.72-0.007,1.617,2.093,1.113,2.59c-0.284,0.279-1.21,0.391-1.543,0.184
		C2227.776,244.474,2227.977,242.019,2228.633,242.013z M2203.162,245.834c0.928-0.006,1.685,0.741,1.691,1.669
		s-0.741,1.685-1.669,1.691s-1.685-0.741-1.691-1.669S2202.235,245.84,2203.162,245.834z M2132.086,248.694l1.211,0.019
		c-2.183,2.96-2.463,5.497-1.659,9.163c0.906,4.127,7.705,19.618,8.164,23.892c0.021,0.193,0.044,0.738,0.044,0.738l-1.646,0.122
		c0,0-0.125-0.441-0.177-0.612c-2.354-7.729-4.686-13.622-6.317-18.127C2130.079,259.031,2127.589,251.829,2132.086,248.694z
		 M2140.937,248.663c0.012,0,0.022,0.002,0.03,0.006l1.163,0.002c-0.043,0.026-1.712,3.668-1.82,5.871
		c-0.121,2.499,0.5,5.214,1.346,7.894c1.992,5.794,4.896,12.244,6.533,19.563c0.019,0.086,0.198,0.796,0.198,0.796l-1.725-0.221
		c0,0-0.174-0.749-0.194-0.852c-1.232-6.439-4.594-13.115-6.615-19.447c-1.032-2.878-1.761-6.42-1.416-9.134
		C2138.681,251.227,2140.583,248.705,2140.937,248.663L2140.937,248.663z M2155.008,248.587c-1.22,1.916-2.325,4.314-2.392,6.19
		c-0.048,3.489,0.988,6.425,2.022,9.501c3.186,9.466,4.734,14.462,6.347,22.061l-1.665-0.698c0,0-0.067-0.427-0.105-0.55
		c-0.918-4.76-0.971-4.343-6.287-20.334c-1.246-3.838-2.432-7.203-2.225-10.406c0.04-1.824,1.608-5.448,3.283-5.746
		L2155.008,248.587z M2157.001,248.574l1.549-0.01c0,0-0.848,0.908-1.092,1.247c-2.682,3.772-1.872,7.794-0.497,12.587
		c1.893,6.595,5.36,13.961,7.214,24.02c0.034,0.185,0.007,1.158,0.007,1.158l-1.848-0.732c-1.735-9.221-5.932-18.768-7.977-27.06
		c-1.203-4.869-0.89-7.953,1.799-10.627C2156.83,248.63,2157.001,248.574,2157.001,248.574z M2138.095,248.75l1.159-0.008
		c0,0-1.917,3.194-1.902,5.067c-0.302,3.354,0.936,7.049,2.354,10.922c2.181,5.951,5.058,13.145,5.952,16.936
		c0.035,0.15,0.155,0.829,0.155,0.829l-2.023-0.092c0,0-0.112-0.919-0.235-1.34c-2.387-8.149-4.695-13.415-7.426-20.852
		c-0.413-1.126-1.089-5.583-0.345-8.478C2136.368,249.461,2138.095,248.75,2138.095,248.75z M2134.992,248.775l1.25,0.027
		c0,0-0.185,0.341-0.658,1.163c-2.254,4.146-1.207,7.908,0.233,12.1c1.922,5.591,4.928,12.415,6.819,18.882
		c0.107,0.365,0.256,1.465,0.256,1.465l-1.806-0.012c0,0-0.375-1.318-0.4-1.46c-1.055-5.997-6.608-15.969-8.085-23.575
		C2131.792,253.284,2132.447,250.748,2134.992,248.775z M2151.735,248.665c0,0-1.95,3.433-2.117,5.338
		c-0.329,3.737,0.876,6.823,2.259,11.025c2.385,7.252,5.741,15.76,6.06,19.654c0.011,0.129,0.062,0.603,0.062,0.603l-2.037-0.709
		c0,0-0.094-0.408-0.134-0.55c-1.817-7.041-3.957-14.053-6.823-21.952c-0.712-2.667-1.641-5.349-1.576-7.646
		c0.392-3.069,0.909-3.899,2.723-5.727L2151.735,248.665z M2160.675,248.612l1.636,0.022c0,0-0.486,0.265-1.645,1.517
		c-6.416,5.941,4.166,22.526,6.681,37.674c0.027,0.164,0.106,0.734,0.106,0.734l-1.805-0.635c-0.175-0.755-0.31-1.674-0.523-2.497
		c-2.008-7.739-4.671-15.692-7.115-22.907c-1.379-5.259-1.901-9.894,0.497-12.504
		C2159.257,249.116,2160.675,248.612,2160.675,248.612L2160.675,248.612z M2143.844,248.732l1.742,0.037
		c-1.25,1.586-1.972,4.05-2.025,6.24c-0.051,2.588,0.658,5.099,1.527,7.756c1.784,5.449,4.318,11.367,6.079,18.722
		c0.101,0.488,0.183,0.8,0.229,1.012c0.073,0.337,0.271,0.871,0.271,0.871l-1.842-0.355c0,0-0.193-0.475-0.318-0.726
		c-0.188-0.376-0.361-0.855-0.516-1.43c-0.916-3.836-4.25-12.535-6.286-18.639C2141.099,258.377,2140.623,251.644,2143.844,248.732z
		 M2165.598,248.656c2.229-0.095,4.256,1.783,4.744,3.557c0.475,1.884-0.103,4.016-2.172,5.083c-3.356,1.727-7.01-2.786-4.37-5.302
		c2.001-1.906,4.99-0.525,4.357,1.903c-0.409,1.579-2.8,1.696-3.204,0.107c-0.112-0.529-0.382-1.056-0.571-0.764
		c-1.218,2.916,2.953,4.25,4.664,1.534c1.011-2.175-0.958-4.957-3.828-4.407c-3.933,0.754-4.354,5.755-2.68,11.574
		c2.342,9.198,7.864,21.556,7.891,27.244c0,0.074,0.021,0.308,0.021,0.308l-1.732-0.504c0,0-0.012-0.096-0.025-0.18
		c-1.088-7.936-7.075-21.052-8.835-31.152c-0.763-4.606,1.01-7.964,5.044-8.906C2165.137,248.698,2165.368,248.667,2165.598,248.656
		z M2148.513,248.842c-1.202,1.627-1.978,4.066-2.004,5.804c-0.021,2.545,0.91,5.018,1.681,7.665
		c1.953,6.532,6.492,18.589,6.344,20.853c0.048,0.242,0.175,0.993,0.175,0.993l-1.726-0.5c0,0-0.069-0.109-0.2-0.419
		c-0.589-2.242-3.384-11.851-6.499-20.153c-1.199-3.338-1.789-5.942-1.723-8.161c0.229-3.062,1.096-4.347,2.427-6.059
		L2148.513,248.842z M2181.396,259.477c-4.465,0.285-4,5.725-1.226,6.631c0.992,0.265,1.571,0.027,1.726-0.191
		c0.177-0.245-0.025-0.619-0.676-0.708c-1.882-0.605-2.567-2.811-0.877-3.75c0.923-0.49,2.403-0.188,4.196,1.121
		c3.202,2.339,7.109,2.461,6.585,0.078c-0.128-0.579-0.378-0.656-2.715-0.957c-1.896-0.247-2.756-0.839-3.585-1.281
		C2183.517,259.727,2182.367,259.441,2181.396,259.477z M2117.484,264.958c11.613,11.194,10.018,28.869,0.219,37.775
		c-0.208-0.712-0.65-2.459-0.697-2.41c7.363-7.761,10.772-20.428-0.044-33.319C2117.018,267.053,2117.194,266.067,2117.484,264.958z
		 M2189.805,264.785c-0.108,0.003-0.204,0.015-0.289,0.045c-2.983,0.838-3.584,3.795-1.638,4.997
		c1.193,0.736,2.103,0.275,0.619-0.617c-1.271-0.765-0.66-2.798,0.875-2.785c0.672,0.005,1.13,0.293,2.844,1.54
		c1.411,1.026,2.734,1.099,3.024-0.305c0.173-0.837-0.108-1.208-1-0.984c-0.395,0.1-0.629-0.129-1.167-0.498
		C2191.875,265.358,2190.568,264.763,2189.805,264.785z M2116.308,267.477c10.481,12.004,7.224,24.615,0.258,32.038
		c-1.963-5.669-6.707-9.185-6.707-9.185c1.753-3.959,2.787-8.087-0.575-13.27C2112.362,274.243,2114.907,271.154,2116.308,267.477z
		 M2183.917,271.441c-0.488-0.005-0.326,0.463,0.829,1.258c2.753,1.847,2.99,2.184,0.332,2.156
		c-0.673-0.035-1.726,0.449-2.322,0.652c-3.46,1.181-3.628,1.09-5.29,0.71c-0.554-0.125-1.116-0.352-1.357-0.13
		c-0.373,0.344-0.791,0.572-0.316,1.078c0.346,0.369,0.988,0.648,1.769,1.088c4.041,2.28,4.411,2.831,9.146,2.925
		c0.542,0.01,0.82-0.273,1.138-0.279c0.773-0.013,1.179,0.172,1.965,0.88c1.44,1.297,1.5,0.348,0.639-1.36
		c-0.452-0.896-0.844-1.108-0.63-1.791c0.489-1.562-0.224-1.868-1.147-0.481c-0.691,1.085-0.771,1.06-1.441-0.325
		c-0.887-1.727-0.481-2.53,0.854-1.41c1.013,0.851,1.266,0.212,1.653-0.468c0.509-0.896,0.426-1.694-0.493-1.62
		c-0.529,0.044-1.025-0.196-1.443-0.647C2186.982,272.796,2185.413,271.693,2183.917,271.441z M2185.086,276.125
		c0.11,0.005,0.186,0.05,0.223,0.163c0.013,0.572-0.372,1.741-0.689,2.356c-0.101,0.272-0.277,0.308-0.524,0.361
		c-0.829,0.158-0.888-0.098-0.742-0.614c0.3-0.795,0.543-1.927,1.612-2.259C2185.01,276.125,2185.05,276.123,2185.086,276.125
		L2185.086,276.125z M2182.979,276.535c0.336-0.028,0.347,0.113,0.216,0.419c-0.236,0.515-0.655,1.004-0.966,1.411
		c-0.662,0.434-1.754-0.873-1.278-1.218c0.667-0.268,1.168-0.543,1.865-0.59C2182.876,276.544,2182.931,276.539,2182.979,276.535
		L2182.979,276.535z M2108.475,277.882c0.18-0.001,0.363,0.033,0.552,0.112c2.539,3.382,2.401,8.553,0.465,11.427
		c-0.144,0.216-0.292,0.254-0.539,0.173c-0.845-0.493-1.915-0.671-2.714-0.953l-0.065-9.949
		C2106.993,278.513,2107.698,277.885,2108.475,277.882z M2174.81,278.259c-0.193,0.009-0.272,0.14-0.027,0.391
		c3.687,2.632,8.758,5.677,13.409,4.455c0.427-0.097,0.77-0.333,0.685-0.772c-0.053-0.275-0.529-0.508-1.041-0.37
		c-1.066,0.288-3.115,0.339-3.957,0.209c-3.207-0.504-6.05-2.537-8.52-3.72C2175.177,278.315,2174.958,278.25,2174.81,278.259z
		 M2173.754,280.799c-0.164-0.007-0.15,0.157-0.045,0.465c0.527,1.534,5.743,5.086,9.854,6.244c3.529,0.995,8.582-0.041,8.277-1.71
		c-0.16-0.872-0.801-1.077-3.046-0.777c-4.943,0.995-9.72-0.999-13.348-3.223C2174.467,281.191,2173.965,280.807,2173.754,280.799z
		 M2141.361,283.116c2.161-0.04,4.305,0.12,6.625,0.492c4.515,0.74,9.75,2.102,14.184,4.122c7.533,2.771,16.994,4.885,25.01,4.538
		c1.957,0.04,5.492-0.149,6.176-0.378c1.784-0.414,2.281-0.036,2.722,2.178c0.078,0.482,0.228,0.622,0.852,1.037
		c0.953,0.636,0.799,1.274,0.693,2.693c-0.089,1.196,0.637,1.861,3.566,7.184c3.334,6.058,6.593,13.102,6.593,13.102
		c-28.873,0.167-56.425-0.723-85.96,0.389c2.615-6.318,9.785-17.725,14.266-26.873c-1.117-2.797,0.236-3.283-0.337-3.945
		c-0.929-1.553-0.28-3.744,1.66-4.251C2138.763,283.239,2140.064,283.14,2141.361,283.116z"/>
	
		<path id="path3997" style="fill:#FFFFFF;" d="
		M2122.16,318.665c0,0,9.337-19.188,13.285-24.945c5.688-7.309,31.644,2.953,44.536,5.474c5.24,0.974,17.366,0.422,17.366,0.422
		l10.259,18.209L2122.16,318.665z M2102.37,297.061l-0.79-59.543l2.975,1.828l1.069,59.807l-12.723,12.343l-0.094-3.591
		L2102.37,297.061z M2110.076,290.216c3.01-6.159-0.444-13.632-0.444-13.628c1.771,0.424,6.64-8.962,7.08-8.695
		c7.604,9.202,9.002,22.979-0.16,31.582C2114.188,293.552,2110.106,290.216,2110.076,290.216z M2115.431,248.065
		c5.694-5.895,10.21-10.489,14.711-17.073c0.367-0.536-24.393-31.566-24.013-32.115c3.76-4.21,8.817-7.32,12.736-12.401
		c0,0,20.311,26.23,20.772,25.995c1.987-8.263,3.432-15.742,2.986-24.362c-1.386-22.054-10.903-35.499-10.975-35.233
		c-3.055,20.291-34.186,51.199-40.37,49.052l-0.128-14.165c0.378,0.707,19.768-12.662,24.789-30.193
		c0.361-1.26,15.442-6.195,15.335-6.379c-0.65-1.638-7.323-10.948-7.323-10.948s2.663-1.262,2.959-1.26
		c8.64,10.601,15.198,24.596,17.486,37.95c2.764,14.381,4.668,41.438-24.01,71.186L2115.431,248.065z M2201.742,210.249
		c-4.61-13.992-4.582-28.51-2.571-38.66c3.049-18.388,14.572-31.616,23.817-41.706l4.038-0.024c0,0-4.796,5.029-6.541,6.858
		c-2.993,3.48-7.314,10.724-7.314,10.724l24.301,31.337l13.715-3.059c0,0-0.323,14.091,0.103,14.088
		c-10.616,8.906-18.234,16.952-23.656,29.861c-3.368,1.27-14.524,6.165-14.524,6.165c-5.328-1.264,15.601-34.556,11.576-35.092
		c-1.666-1.354-20.169-25.978-20.526-25.924c-8.287,25.941,0.14,53.072,15.139,71.962c-1.68,1.105-3.204,1.966-3.065,1.71
		C2209.804,229.691,2204.152,219.173,2201.742,210.249z M2157.639,197.559c0.963,1.468,5.033-31.627-6.406-58.023
		c1.067-0.82,10.349-2.658,10.349-2.658l2.554,7.908l-6.323,2.726l1.195,3.708c4.906-2.42,15.542-6.014,22.028-16.948
		c0,0,31.858-0.482,32.536-0.43c0.661,0.051-6.453,6.958-13.151,20.89c-3.06,6.364-5.474,14.588-5.925,24.221
		c-0.089,1.904-7.349-8.898-7.349-8.898c1.732-9.179,6.465-18.234,11.18-27.29c0,0-7.329-0.369-12.446-0.185
		c-7.903,8.75-12.864,13.367-24.838,17.599c4.468,13.991,31.283,20.554,25.321,19.311c-1.218-0.278-2.673,12.907-1.288,27.744
		c0.327,11.867,6.843,31.612,7.066,31.452c0,0-4.25,0.987-4.597,0.305c0.717-0.177-6.323,1.655-6.323,1.655l-2.571-7.358
		l6.805-3.185l-1.132-4.155c-0.026,0.002-15.028,4.647-22.306,17.808l-32.927,0.253c12.609-13.862,17.699-27.523,20.339-45.56
		C2152.131,198.917,2157.639,197.559,2157.639,197.559L2157.639,197.559z M2237.841,78.07c4.118-3.492,12.367-12.568,12.367-12.568
		l0.139,4.621l-9.366,9.869l0.492,60.55l-3.21-3.037L2237.841,78.07z M2233.626,100.26c-1.693,0.82-5.052,4.822-6.637,9.304
		c-10.989-9.689-6.607-27.658-0.651-31.43c1.762,3.905,6.821,9.065,6.704,8.956C2231.915,91.2,2231.057,95.366,2233.626,100.26z
		 M2136.628,60.245l84.263-0.404c-4.745,9.495-9.104,17.174-14.153,26.524c-2.637,3.224-60.267-9.96-60.528-8.608L2136.628,60.245z"
		/>
	
		<path id="path3991" style="fill:#010101;" d="
		M2135.657,59.135l3.455,6.405l-0.587,0.404c0.94,1.542,1.74,3.279,2.7,4.809l0.685-0.084c1.135,2.141,1.594,2.932,3.078,5.467
		l-0.662,0.001c0.348,1.13,1.228,1.875,1.251,2.687c0.015,1.01-0.238,2.037,0.388,2.716c0.74,0.806,0.829,1.03,0.682,1.505
		c-0.393,1.262,0.759,2.65,1.917,2.518c8.161-1.145,16.491-0.273,24.828,2.187c5.997,1.848,11.322,3.927,16.361,5.379
		c1.589,0.463,4.799,1.189,7.559,1.373c7.655,0.509,11.939-1.077,10.63-4.251c-0.104-0.254-0.335-0.439-0.356-0.57
		c-0.039-0.242-0.003-0.504,0.429-0.863c1.247-1.29,0.54-2.218-0.235-3.633c0,0,9.712-17.618,14.562-26.397L2135.657,59.135z
		 M2220.748,60.156l-7.091,12.428c-3.838-0.67-4.719,2.56-4.773,3.014c-4.988-1.244-4.181,5.207-1.68,5.627
		c0.167,0.935-4.079,2.126-6.335-0.052c3.448,0.438,4.639-4.127,0.424-5.113c5.522-4.16-4.928-10.267-4.996-1.735
		c-4.9-0.829-4.221,5.634-1.113,6.117c-1.577,1.76-6.245,1.84-8.71-1.835c4.167,2.129,6.376-3.451,2.053-4.98
		c5.292-4.702-5.159-8.937-4.866-1.397c-3.944-2.302-6.606,3.651-1.356,4.527c-0.292,1.07-7.16,1.124-8.921-1.626
		c4.877,1.079,5.062-4.851,0.762-5.305c4.278-5.502-6.69-8.199-4.803-0.74c-4.241-1.646-5.805,3.639-1.674,5.306
		c0.234,0.837-6.661,1.596-9.096-1.415c5.298-0.831,3.408-5.958-0.023-5.524c0,0,0.049-0.149,0.239-0.65
		c1.588-5.17-7.135-5.543-5.891-0.081c0.197,0.503,0.415,1.172,0.415,1.172c-2.407-0.474-3.87,0.515-3.681,2.768
		c0.618,2.991,2.199,2.759,4.218,2.15c0.854,0.881-4.856,3.883-8.472,1.26c4.399-1.295,2.133-6.445-1.55-5.723
		c-0.163-1.647-1.97-3.947-4.298-2.804l-2.503-4.844L2220.748,60.156z M2228.405,128.895l-5.176,0.11
		c-3.612,3.737-29.784,28.162-25.11,64.77c1.999,15.657,6.465,29.185,18.268,45.124l3.114-1.856l0.479,0.317l32.299-18.862
		l-0.02-5.662l-37.53,16.033c-0.751-0.79-1.197-1.672-1.832-2.646l15.039-6.509c0,0,0.356-0.918,0.47-1.341
		c4.876-12.575,14.888-21.723,23.611-28.796c-0.127-12.35-0.354-38.206-0.354-38.206l-22.821-22.432
		c-2.891,2.677-5.451,5.428-8.01,8.412l26.257,34.095l-2.298,1.517l-25.982-33.92
		C2221.834,135.355,2225.125,132.134,2228.405,128.895z M2251.679,151.022c0,0-0.511-58.83-0.868-87.237l0,0l-13.42,13.949
		l0.443,59.632L2251.679,151.022z M2249.995,69.391l-9.481,9.912l0.504,60.614l-2.469-2.403l-0.386-58.982l11.844-12.573
		L2249.995,69.391z M2157.09,68.54c0.288,0.502,0.169,1.199-0.285,1.771c-1.936,2.435,4.223,6.602,8.63,5.842
		c3.354-0.579,6.204-2.614,4.959-4.14c-1.014-1.243-0.366-2.511,0.842-2.511c1.243,0.001,2.247,0.982,1.179,2.344
		c-2.377,3.026,1.301,6.536,6.887,6.572c3.951,0.026,5.26-0.956,5.029-3.769c-0.108-1.317,0.148-1.683,1.065-1.889
		c1.463-0.329,2.213,1.345,1.007,2.633c-2.606,2.784,0.402,6.831,5.366,7.061c1.815,0.084,2.174-0.015,4.192-1.171
		c1.577-0.904,2.127-2.257,1.344-3.301c-1.007-1.343,0.328-2.964,1.887-2.31c1.114,0.467,1.667,1.316,0.448,2.768
		c-1.603,1.908-0.827,3.467,2.288,4.503c2.427,0.807,4.103,0.694,5.23-0.348c0.35-0.324,1.131-1.002,1.121-0.795
		c-0.753,1.32-1.421,2.546-1.421,2.546c-5.057,2.296-9.044-1.913-8.915-2.072c-5.206,3.049-9.843,2.443-13.792-2.596
		c-1.014,0.571-8.294,1.947-13.594-3.793c-5.291,2.698-10.234,1.614-14.64-1.337c-3.22,3.081-6.634,3.587-10.193,2.141l-1.064-2.108
		c0.264-0.101,1.423,2.112,6.972,1.04c1.863-0.359,5.051-3.515,3.245-5.031c-0.831-1.159-0.859-1.683-0.137-2.394
		C2155.449,67.496,2156.672,67.846,2157.09,68.54z M2143.499,71.402c0.313,0.599,0.362,1.596,0.016,0.999
		c-0.183-0.315-1.132-1.721-1.088-1.764C2142.865,70.598,2143.302,71.046,2143.499,71.402z M2250.011,71.188l0.574,78.221
		l-8.181-8.011l-0.792-61.275L2250.011,71.188z M2155.897,75.592l2.571,1.593l-4.584,0.003L2155.897,75.592z M2170.296,76.843
		l2.162,2.074l-4.525-0.918L2170.296,76.843z M2210.567,77.664l-0.948,1.975C2209.061,79.023,2208.891,77.71,2210.567,77.664z
		 M2227.022,110.075c1.608-3.673,3.76-8.352,7.283-9.858c-2.664-5.209-2.356-10.436-0.509-13.312
		c-2.685-2.467-5.444-5.424-7.172-9.693C2218.242,84.712,2216.988,100.012,2227.022,110.075z M2226.565,78.643l0.589,1.426
		c-7.449,9.239-5.052,21.287,0.429,27.689l-0.771,1.627C2220.12,102.418,2217.114,87.619,2226.565,78.643z M2181.709,84.135
		c8.718,2.497,15.712,6.431,25.749,2.819l0.06,1.959c-6.376,4.151-19.16-0.107-27.798-3.231
		c-13.885-5.022-24.662-4.653-32.359-4.019c-0.679-0.128-1.229-1.895-0.144-1.914C2161.617,79.495,2159.279,77.713,2181.709,84.135
		L2181.709,84.135z M2183.652,80.658l2.877,3.012c-2.151-0.659-4.242-1.393-6.189-2.31L2183.652,80.658z M2227.27,81.121
		l0.565,0.769c0.244,0.332-1.577,0.518-1.273,0.124L2227.27,81.121z M2178.21,86.99c10.412,3.831,21.874,7.649,29.356,4.11
		c0,0,0.058,1.485-0.798,1.912c0,0-0.787,0.646-3.433,1.027c-12.138,1.077-20.053-3.9-29.875-6.807
		c-3.725-1.103-9.708-2.43-15.843-2.643c-3.643-0.141-9.211,0.418-9.211,0.418c-1.214-0.093-1.201-0.81-1.217-1.513
		C2157.738,82.016,2167.453,83.003,2178.21,86.99z M2228.411,82.922c0.134-0.008,0.27,0.001,0.406,0.021l1.07,1.349l-1.247,2.012
		c0,0-1.118-1.016-1.688-2.016C2226.638,83.64,2227.473,82.971,2228.411,82.922z M2197.812,83.504l3.305,2.461
		c-2.472,0.137-5.254,0.247-8.016-0.828L2197.812,83.504z M2225.678,84.585c0.26-0.008,0.533,0.264,0.855,0.805
		c0.619,1.041,0.54,1.242-0.646,1.631c-1.557,0.512-1.68,0.403-1.184-1.001C2225.041,85.065,2225.345,84.595,2225.678,84.585z
		 M2230.678,85.193l2.236,1.852c-1.207,3.203-1.984,7.263,0.52,13.068c-0.273,0.02-1.862,1.608-2.361,1.88
		C2229.66,101.412,2226.484,89.898,2230.678,85.193z M2228.165,87.653l-0.541,3.538c-0.045,0.289-2.471-1.658-2.253-2.641
		C2225.794,87.382,2227.264,87.621,2228.165,87.653L2228.165,87.653z M2224.183,88.92c0.292,0,0.755,0.703,1.323,1.622
		c0.444,0.718,0.356,0.99-0.61,1.872c-1.421,1.456-1.705,0.986-1.405-1.477C2223.64,89.72,2223.852,88.92,2224.183,88.92
		L2224.183,88.92z M2227.163,92.102c0.194,0.003,0.364,0.048,0.488,0.146l0.187,3.441c0.017,0.31-2.686-0.105-3.05-1.414
		C2224.333,93.439,2226.114,92.087,2227.163,92.102z M2223.616,95.035c0.193-0.029,0.801,0.37,1.376,0.706
		c0.998,0.583,1.021,0.842,0.172,1.948c-0.997,1.3-1.499,1.096-1.668-1.152C2223.434,95.712,2223.368,95.071,2223.616,95.035z
		 M2227.589,96.325c0.088-0.001,0.165,0.023,0.233,0.081c0.481,0.406,1.235,3.85,0.93,4.213c-0.435,0.516-2.745-0.151-3.264-0.959
		C2224.992,98.891,2226.749,96.331,2227.589,96.325z M2224.794,100.404c0.264-0.019,0.742,0.159,1.465,0.502
		c0.435,0.206,1.161,0.595,1.323,0.929c0.285,0.588-0.177,1.466-0.777,2.196c-0.396,0.483-0.773,0.128-1.56-1.476
		C2224.615,101.264,2224.353,100.437,2224.794,100.404z M2229.458,101.916c0.053-0.001,0.101,0.009,0.145,0.033
		c0.788,0.429,0.665,1.723-0.257,2.685c-1.108,1.155-2.082,0.297-1.321-1.164C2228.506,102.545,2229.086,101.928,2229.458,101.916z
		 M2164.895,134.432c-0.679,0.035-1.735,0.657-2.193,1.255c-0.58,0.756-1.09,0.66-1.738,0.61c-0.771-0.007-1.943,0.172-3.528,0.906
		c-0.897,0.417-1.307,0.512-2.626,0.588c-0.861,0.049-1.724,0.171-1.915,0.273c-0.191,0.102-0.809,0.323-1.372,0.491
		c-1.151,0.345-0.738,0.67-0.067,2.151c3.421,8.605,5.897,18.64,6.83,26.821c1.048,9.385,0.823,20.776-0.433,29.483
		c-3.22,0.043-5.245-0.11-8.636-0.029c-2.19,18.823-8.371,33.8-20.829,47.315l33.917-0.136c3.818-10.388,21.5-18.411,22.086-17.83
		l0.959,3.775c0,0-12.745,1.908-21.23,18.151c0.875-0.537,4.078-0.189,6.205,1.989c4.184-5.377,11.083-8.916,11.128-8.835
		l0.226-0.648c0,0,1.267-0.438,2.381-0.658c0.358-0.071,1.09-0.214,1.575-0.387c0.751-0.269,1.124-0.55,2.286-0.458
		c2.419,0.215,4.842-0.502,4.79-0.516c-7.329-19.808-9.148-37.722-6.471-58.562c2.652,0.004,8.469,0.066,8.469,0.066
		c0.547-5.854,1.25-11.712,3.01-17.248c2.26-7.108,5-13.718,9.44-19.775c2.505-3.803,4.697-6.51,7.288-10.076l-33.201,0.294
		c-4.345,7.413-12.77,13.637-19.557,16.25c-2.31,0.885-2.638,0.758-3.029-0.328c-0.698-1.941-0.664-1.859,1.143-2.387
		c0.604-0.176,2.533-1.208,5.543-2.643c6.388-3.295,10.756-9.281,13.322-13.318c1.021-1.595,0.331-1.232-1.432-1.236
		c-1.616-0.115-2.357-0.61-3.817-1.954c-0.538-0.496-0.77-0.849-1.014-0.82C2170.527,129.741,2167.369,133.353,2164.895,134.432
		L2164.895,134.432z M2172.645,128.094c1.503,1.588,3.279,2.511,5.612,2.8c-3.686,5.869-8.206,10.469-13.417,13.281l-2.707-7.46
		C2168.63,133.639,2170.352,130.589,2172.645,128.094z M2226.777,130.119c-34.9,32.692-32.567,73.605-7.76,106.687l-2.567,1.566
		c-23.296-30.795-27.774-76.549,7.305-108.372L2226.777,130.119z M2204.666,134.223l8.608-0.074l-5.811,7.634l-7.863,0.022
		L2204.666,134.223z M2203.318,134.295l-4.738,7.579l-12.912,0.251c-7.664,9.577-15.934,14.277-24.363,17.504l-1.702-8.123
		c0,0,13.355-3.313,21.93-17.171L2203.318,134.295z M2190.2,135.005l-2.97,3.331l3.129,3.141l2.817-3.228L2190.2,135.005z
		 M2196.977,134.884l-3.01,3.171l2.386,3.156l3.121-3.101L2196.977,134.884z M2182.032,135.556l-0.483,4.96l3.908,1.254l0.542-4.242
		L2182.032,135.556z M2205.759,135.585l-2.802,4.443l4.263,0.039l2.951-4.425L2205.759,135.585z M2161.211,137.007l2.812,7.639
		l-2.417,1.185l-2.513-7.98L2161.211,137.007z M2157.95,138.257l2.899,7.902l-2.38,0.802l-2.67-8.227L2157.95,138.257z
		 M2161.566,169.507c0.39,11.014,0.591,17.654-1.188,27.349c-0.092,0.506-2.074,0.07-2.074,0.07
		c0.25,0.082,1.043-10.949,0.929-17.873c-0.217-13.187-2.539-26.219-7.8-39.256c0.982-0.61,3.414-0.933,3.414-0.933
		C2158.179,148.752,2161.145,159.395,2161.566,169.507z M2126.893,139.191c11.433,14.965,19.669,35.315,18.445,55.456
		c-1.146,23.418-9.932,36.966-25.414,53.281l-4.021,0.118c18.336-17.812,26.401-33.005,26.914-52.984
		c0.59-22.979-6.527-38.213-18.45-54.419L2126.893,139.191z M2090.769,160.103l0.076,5.477l38.511-16.816l-5.624-8.168
		L2090.769,160.103z M2181.164,141.566l-4.203,0.239l0.168,4.242l4.381-0.135L2181.164,141.566z M2218.634,140.514l25.242,32.654
		l-6.163,4.64l-24.061-30.682L2218.634,140.514z M2199.033,142.885l7.491,0.066l-2.865,4.824l-7.24-0.01L2199.033,142.885z
		 M2197.65,143.012c-3.402,6.428-8.105,13.762-10.696,25.584l-24.659,0.182c-0.063-2.695-0.431-5.387-0.85-8.08
		c10.601-3.958,18.795-9.825,24.797-17.548L2197.65,143.012z M2202.212,143.32l-3.202,1.874l1.979,2.246l3.534-1.38L2202.212,143.32
		z M2172.876,145.873l-1.034,4.188l4.006,1.513l0.706-4.972L2172.876,145.873z M2195.891,148.845l7.188-0.003l-2.988,6.063
		l-7.12-0.06L2195.891,148.845z M2212.997,147.942l23.884,30.544l-2.209,1.771l-23.34-29.856L2212.997,147.942z M2198.621,149.315
		l-3.221,2.719l2.456,2.798l2.973-2.404C2200.891,152.378,2198.621,149.315,2198.621,149.315z M2167.191,149.743l-0.968,4.07
		l4.162,1.078l0.715-4.363L2167.191,149.743z M2161.46,152.484l-0.819,4.006l3.921,1.032l0.801-3.863L2161.46,152.484z
		 M2129.137,152.294c0.201-0.042-0.623,4.766-1.876,5.64c-0.599,0.417-0.911,0.328-1.437-0.232
		c-0.362-0.385-2.007-3.031-2.007-3.031l1.387-0.708c1.705,2.688,1.695,1.382,2.318-0.921L2129.137,152.294z M2122.665,155.102
		c0.552-0.008,1.224,0.674,1.988,1.995c1.104,1.912,1.069,2.038-0.721,2.602c-3.224,0.876-4.423,1.088-3.444-1.05
		C2121.542,156.348,2121.956,155.112,2122.665,155.102z M2132.275,154.658l2.235,3.769c-8.713,22.619-22.899,38.898-42.509,48.82
		l-0.069-3.748C2115.04,190.144,2124.448,174.486,2132.275,154.658z M2192.533,155.896l6.975,0.079l-1.827,5.346l-7.414-0.005
		L2192.533,155.896z M2120.577,156.133c-5.589,13.566-13.269,25.419-28.713,35.487l-0.085-3.594
		c17.348-10.611,24.748-30.321,24.747-30.328L2120.577,156.133z M2208.731,155.534c4.131,0.086,8.502,4.56,8.087,8.273
		c-0.293,2.617,0.22,4.554,0.925,3.478c1.557-2.375,6.203-0.834,6.179,2.007c-0.011,1.513-1.021,1.767-1.609,0.407
		c-0.871-2.011-3.277-2.045-3.619,0.071c-0.319,1.983,1.37,3.428,5.869,5.02c5.268,1.199,8.466,5.893,6.612,8.616
		c-0.645,0.72-1.034,0.899-1.16,0.528c-0.036-0.106-0.168-0.664-0.293-1.238c-0.614-2.836-1.983-4.02-3.631-3.035
		c-0.826,0.495-0.716,1.141-0.227,1.992c0.651,1.132,0.25,1.577-0.906,1.005c-1.826-0.902-2.442-3.065-0.684-4.077
		c2.093-0.854,1.381-1.03-1.306-1.917c-5.72-1.913-8.192-5.474-8.537-12.287c0.089-3.107-0.343-4.212-1.807-4.627
		c-1.34-0.379-2.844,1.33-1.878,2.218c0.525,0.483,0.954,0.923,0.68,1.193c-0.882,0.867-3.111-0.517-3.098-2.017
		c0.008-0.981,0.378-1.185,1.838-2.348c0.405-0.323,0.054-0.923-0.542-0.928C2207.385,158.606,2207.524,155.638,2208.731,155.534z
		 M2195.806,156.404l-3.474,2.027l1.833,2.525l3.848-1.838L2195.806,156.404z M2127.98,158.818c0.4-0.003,0.731,0.318,0.733,0.719
		c0.002,0.4-0.323,0.731-0.724,0.733s-0.727-0.323-0.729-0.724C2127.258,159.146,2127.58,158.821,2127.98,158.818L2127.98,158.818z
		 M2135.128,159.085c7.464,16.012,9.334,34.367,4.333,52.754l-20.042-25.726C2126.989,177.478,2132.049,167.618,2135.128,159.085z
		 M2108.26,160.44l-17.683,7.566l-0.011,13.296C2100.428,174.477,2104.585,167.528,2108.26,160.44L2108.26,160.44z
		 M2125.304,160.217c1.747-0.065,0.915,4.657-1.343,6.281c-0.828,0.645-1.39,0.571-1.673-0.707c-0.147-0.661-0.853-2.059-1.74-3.182
		c-1.031-1.306-1.02-1.339,0.473-1.442C2122.672,161.183,2124.019,160.382,2125.304,160.217z M2123.59,162.233
		c-1.289-0.01-1.671,0.595-0.898,1.415c0.651,0.691,1.163,0.538,1.59-0.468C2124.542,162.566,2124.303,162.24,2123.59,162.233z
		 M2091.719,179.69l-0.03-11.285l15.123-6.485C2103.812,168.534,2098.225,175.109,2091.719,179.69z M2226.495,187.925l-2.006,2.044
		l-19.745-25.391l1.205-3.23L2226.495,187.925z M2119.037,162.813c0.656,0.005,2.161,2.272,2.588,3.903
		c0.319,1.21-0.008,1.468-2.304,1.825c-0.95,0.267-3.525,0.032-3.321-0.654C2116.368,166.896,2118.806,162.812,2119.037,162.813z
		 M2189.961,162.61l7.144,0.03l-1.597,5.871l-7.483-0.062L2189.961,162.61z M2193.12,162.947l-3.31,2.324l2.648,2.575l3.509-2.2
		L2193.12,162.947z M2204.343,165.394l19.972,25.572c-5.86,7.554-11.697,16.227-15.495,27.663
		C2201.661,202.183,2198.975,186.148,2204.343,165.394z M2123.925,168.107c0.4-0.003,0.731,0.318,0.734,0.719
		c0.003,0.4-0.324,0.732-0.725,0.734s-0.726-0.324-0.729-0.725C2123.203,168.435,2123.524,168.11,2123.925,168.107z
		 M2121.653,169.102c1.237,0.08,0.097,4.025-1.755,5.473c-1.459,1.142-2.094,0.621-2.447-1.448
		c-0.127-0.748-0.922-2.015-1.621-3.015c-0.781-1.116-0.464-1.297,1.5-0.858C2118.7,169.509,2120.387,169.174,2121.653,169.102z
		 M2187.845,169.631l7.49-0.003l-1.094,8.906L2187.845,169.631z M2114.871,170.52c1.188,1.093,2.703,4.943,1.94,5.227
		c-0.886,0.329-4.917-0.112-5.371-0.573c-0.313-0.317-0.314-0.319,0.34-1.204c0.359-0.487,1.042-1.457,1.521-2.157
		C2113.732,171.299,2114.206,169.914,2114.871,170.52z M2119.042,170.625c-1.14,0.046-1.216,0.202-0.667,1.428
		c0.448,1,0.755,1.088,1.509,0.425C2120.933,171.556,2120.484,170.568,2119.042,170.625z M2250.514,170.537l0.298,4.386
		c-28.698,14.47-39.259,48.256-39.415,48.257l-2.115-3.877C2222.281,186.661,2239.791,177.12,2250.514,170.537z M2114.878,176.614
		c1.715-0.047,2.215-0.168,2.209,0.468c0.031,1.708-1.55,4.144-3.495,5.072c-1.309,0.625-1.339,0.639-1.497-0.907
		c-0.122-1.19-0.521-2.72-1.146-3.936c-0.197-0.452-0.948-1.484-0.011-1.195C2111.876,176.404,2113.809,176.643,2114.878,176.614
		L2114.878,176.614z M2118.721,176.191c0.401-0.003,0.727,0.319,0.729,0.72c0.003,0.4-0.318,0.726-0.72,0.728
		c-0.4,0.003-0.726-0.318-0.729-0.719C2118,176.52,2118.321,176.194,2118.721,176.191z M2109.553,177.251
		c0.311-0.011,0.611,0.626,0.971,1.563c0.783,2.037,1.025,3.143,0.801,3.625c-0.346,0.743-5.074,0.295-5.883-0.527
		C2105.291,182.028,2108.891,177.667,2109.553,177.251z M2112.96,177.736c-0.677,0.051-0.316,0.457,0.194,1.635
		c0.353,0.816,0.824,0.945,1.359,0.368c0.715-0.772,0.807-1.382,0.351-1.707C2114.196,177.769,2113.703,177.735,2112.96,177.736z
		 M2250.786,181.273l0.035,1.47c-1.123-0.327-1.822-0.798-3.103-1.214c-0.786-0.259-1.25-0.442-0.563-1.272
		c1.076-1.3,2.234-2.116,3.55-2.926l0.019,1.665C2248.617,179.945,2248.828,180.808,2250.786,181.273z M2167.55,180.323l7.954-0.052
		l0.034,5.252l6.223-0.041l-0.444,5.988l-5.739,0.038l0.034,5.252l-7.954,0.052l-0.034-5.252l-5.681,0.037l0.42-5.988l5.223-0.034
		L2167.55,180.323z M2185.516,180.224c-3.899,19.984-0.065,41.149,6.263,58.372l-3.133,0.366
		c-4.935-13.773-8.913-33.403-5.163-58.713C2183.483,180.249,2184.886,180.215,2185.516,180.224z M2244.558,180.225
		c0.4-0.003,0.727,0.318,0.729,0.719c0.003,0.4-0.319,0.726-0.72,0.728c-0.4,0.003-0.726-0.319-0.729-0.719
		C2243.837,180.553,2244.158,180.228,2244.558,180.225z M2104.637,182.816c0.264-0.01,1.075,0.334,1.795,0.528
		c1.082,0.294,1.933,0.418,2.918,0.43c1.978,0.025,2.237,0.006,1.396,1.636c-0.605,1.176-1.975,2.733-2.938,3.211
		c-1.362,0.739-1.887,0.643-1.814-0.703c0.004-0.912-0.403-2.496-0.927-3.624C2104.66,183.418,2104.198,182.832,2104.637,182.816z
		 M2113.008,183.402c0.4-0.003,0.73,0.318,0.733,0.72c0.003,0.4-0.323,0.731-0.724,0.733c-0.401,0.003-0.727-0.323-0.729-0.724
		C2112.285,183.73,2112.606,183.404,2113.008,183.402z M2246.846,182.43c0.561-0.015,1.525,0.322,2.403,0.742
		c2.333,1.115,2.273,1.375-0.864,3.631c-2.277,1.751-2.816,1.95-2.915-0.787C2245.372,183.71,2245.613,182.465,2246.846,182.43z
		 M2103.453,184.03c0.924,0.008,1.977,4.807,1.149,5.24c-1.287,0.676-5.296-0.598-5.287-1.693
		C2099.319,187.22,2103.047,184.027,2103.453,184.03z M2244.069,182.912c0.552-0.028,0.628,0.404,0.588,1.937
		c-0.022,0.811,0.125,2.133,0.186,2.75c0.125,1.279,0.017,1.37-0.999,0.804c-0.65-0.363-1.97-0.955-3.396-1.069
		c-1.167-0.094-1.256-0.573-0.899-1.345C2240.569,184.277,2242.428,183.068,2244.069,182.912z M2106.884,184.534
		c-0.806-0.001-0.603,0.427-0.096,1.628c0.36,0.851,0.974,0.928,1.599,0.197c0.876-1.023,0.699-1.561-0.586-1.748
		C2107.53,184.571,2107.07,184.534,2106.884,184.534z M2243.015,184.787c-0.335,0.033-0.792,0.301-1.011,0.445
		c-0.754,0.48-1.059,0.823,0.042,1.192c0.979,0.329,1.499,0.471,1.417-0.371C2243.412,185.547,2243.448,184.81,2243.015,184.787z
		 M2168.359,185.898l0.034,5.233l6.332-0.041l-0.034-5.233L2168.359,185.898z M2237.365,185.901c0.4-0.003,0.727,0.319,0.729,0.719
		c0.002,0.4-0.32,0.727-0.72,0.729s-0.726-0.319-0.728-0.72C2236.643,186.229,2236.964,185.903,2237.365,185.901z M2118.826,187.492
		l20.146,25.512l-1.306,3.35l-20.753-26.933L2118.826,187.492z M2250.947,186.507l0.065,3.351
		c-2.246,1.665-16.511,12.145-23.811,29.676l-3.871,1.678C2228.696,206.131,2240.299,193.168,2250.947,186.507z M2098.982,188.921
		c1.303,0.387,2.551,1.283,3.779,1.437c1.412,0.163,1.899,0.07,1.521,0.803c-0.845,1.636-2.449,3.356-4.149,3.926
		c-1.216,0.408-1.793,0.264-1.606-0.495c0.349-1.42,0.403-2.583,0.347-3.873C2099.062,190.012,2098.454,189.029,2098.982,188.921z
		 M2097.459,189.229c0.834,0.704,0.699,5.185-0.22,6.156c-0.48,0.507-1.886,0.055-4-1.122c-1.38-0.772-1.64-1.245-0.957-1.728
		C2093.441,191.823,2096.832,189.065,2097.459,189.229z M2240.186,188.392c0.431-0.013,0.965,0.06,1.609,0.202
		c2.493,0.542,3.052,1.107,0.94,2.808c-0.781,0.628-1.608,1.407-1.847,1.706c-1.133,1.408-1.934,0.397-2.201-2.142
		C2238.5,189.186,2238.762,188.172,2240.186,188.392z M2237.069,188.654c0.404-0.003,0.665,0.207,0.661,0.711
		c-0.005,0.643,0.475,3.421,0.737,4.185c0.457,1.3,0.134,1.595-0.949,1.034c-0.789-0.419-2.871-0.725-3.996-0.63
		c-1.28,0.108-1.245-0.234-0.877-1.313C2233.296,190.73,2235.855,188.662,2237.069,188.654z M2100.208,190.475
		c-0.486,0.003-0.501,0.658-0.16,2.159c0.11,0.478,0.521,0.446,1.293-0.104c0.915-0.652,0.874-1.057-0.165-1.671
		C2100.748,190.609,2100.43,190.476,2100.208,190.475z M2105.871,190.603c0.4-0.003,0.727,0.319,0.729,0.72
		c0.002,0.4-0.32,0.727-0.72,0.729s-0.726-0.319-0.728-0.72C2105.15,190.931,2105.471,190.605,2105.871,190.603z M2234.729,192.574
		c0.35,0.338,1.634,0.314,1.854,0.109c0.337-0.315,0.17-1.767-0.114-1.941C2235.744,190.501,2234.292,192.041,2234.729,192.574z
		 M2114.842,196.124c0.45,2.069,3.363,1.935,3.02-0.223c-0.2-1.258-0.244-1.233,0.388-1.208c3.01,0.127,2.519,4.872-0.95,4.528
		c-0.723,0.091-0.817,0.388-0.203,0.638c0.609,0.25,2.943,0.832,3.302,0.828c3.772-0.036,9.251,5.727,9.151,10.874
		c-0.066,3.366,1.091,5.78,2.259,6.048c0.929,0.213,2.27-0.64,2.147-1.67c-0.17-1.421,0.989-0.983,1.66,0.032
		c1.024,1.405-0.272,3.449-2.691,3.305c-1.027,0.208,0.761,0.85,2.087,1.223c1.2,0.061,0.196,1.546-0.025,1.811
		c-0.672,0.792-2.899,0.205-4.651-1.19c-2.151-1.714-3.085-4.025-3.368-8.57c-0.181-2.923-0.403-3.517-1.246-2.304
		c-1.512,2.699-5.181,1.407-5.657-1.43c-0.266-1.504,1.051-2.597,1.489-1.236c1.153,2.827,3.926,2.127,3.456-0.685
		c-0.31-1.854-2.174-2.867-5.851-3.876c-4.42-1.213-5.742-2.714-6.625-6.328c-0.391-1.599-0.336-2.437,0.504-3.281
		c0.415-0.417,0.946-0.842,0.946-0.842S2114.589,194.999,2114.842,196.124z M2230.236,193.072c0.401-0.003,0.727,0.319,0.729,0.72
		c0.003,0.4-0.318,0.727-0.72,0.729c-0.4,0.003-0.726-0.319-0.729-0.72C2229.514,193.401,2229.835,193.075,2230.236,193.072
		L2230.236,193.072z M2091.761,194.668c1.315,0.466,2.45,1.164,3.808,1.616c0.881,0.293,0.645,0.998-0.259,2.004
		c-1.008,1.204-2.002,1.8-3.404,2.477l0.001-2.025c1.706-0.609,2.785-2.04-0.09-2.478L2091.761,194.668z M2233.667,194.868
		c0.497,0.003,1.202,0.016,2.029,0.18c2.097,0.42,2.344,0.604,1.096,2.083c-0.463,0.55-1.151,1.377-1.528,1.84
		c-1.226,1.733-1.898,1.145-2.489-1.079C2232.045,195.57,2231.876,194.678,2233.667,194.868z M2098.337,196.586
		c0.401-0.003,0.727,0.318,0.729,0.718c0.003,0.4-0.318,0.727-0.72,0.729c-0.4,0.003-0.726-0.319-0.729-0.72
		C2097.615,196.913,2097.937,196.588,2098.337,196.586z M2231.572,197.29c0.204,0.733,0.514,1.667,0.75,2.329
		c1.152,2.498,0.427,1.534-1.611,1.327c-1.369-0.139-3.546,0.103-4.087-0.272c-0.237-0.303-0.026-1.109,0.408-2.02
		c0.609-1.281,1.725-2.379,2.56-2.878C2231.708,194.781,2231.222,196.03,2231.572,197.29z M2109.253,197.198l23.016,30.022
		l-1.772,2.562l-23.675-30.867L2109.253,197.198z M2252.262,196.375c-11.806,8.65-16.292,19.084-17.209,20.449l17.346-6.823
		L2252.262,196.375z M2229.621,197.506c-0.649,0.184-1.575,1.397-1.17,1.867c0.242,0.245,1.199,0.271,1.656,0.1
		C2230.811,199.209,2230.317,197.499,2229.621,197.506z M2129.835,230.79l-4.82,6.157l-25.541-32.593l6.361-4.657L2129.835,230.79z
		 M2251.01,198.157l0.252,11.258l-14.834,6.298C2241.354,207.267,2246.199,202.032,2251.01,198.157L2251.01,198.157z
		 M2149.307,199.776l6.009,7.719l-7.281-0.118L2149.307,199.776z M2224.644,199.917c0.4-0.003,0.726,0.319,0.728,0.72
		c0.003,0.4-0.318,0.727-0.719,0.729c-0.401,0.003-0.727-0.319-0.729-0.72C2223.921,200.246,2224.242,199.92,2224.644,199.917z
		 M2229.021,201.725c2.726,0.019,3.636,0.162,2.852,1.505c-1.048,1.315-1.665,2.56-2.81,3.776c-0.66,0.682-1.502-0.709-2.212-2.941
		c-0.573-1.801-0.291-2.258,0.775-2.28C2228.691,201.764,2228.872,201.724,2229.021,201.725L2229.021,201.725z M2225.89,204.187
		c0.228,0.713,0.757,1.882,1.175,2.596c0.419,0.712,0.889,1.504,0.86,1.643c-0.067,0.336-0.385,0.364-1.105,0.099
		c-1.557-0.689-5.201,0.075-5.3-0.27c-0.547-0.77,0.252-2.881,1.775-4.35c0.743-0.718,1.426-1.185,1.822-1.194
		C2225.514,202.701,2225.59,203.249,2225.89,204.187z M2098.6,204.467l25.989,33.297l-1.77,2.182l-26.281-33.942
		c0,0-4.102,2.043-5.308,2.724l0.277,17.307l-0.705-0.029l0.679,87.669l14.286-14.432l-0.576-59.488
		c3.069,2.851,5.701,5.896,9.211,8.686l5.979-0.086c15.508-15.981,23.969-29.626,25.687-53.972
		c1.148-16.289-4.395-36.724-18.87-56.47l-3.49,2.15l6.99,10.385l-14.619,6.594c-5.758,12.348-12.607,23.756-25.226,30.345
		l0.034,15.933l-0.219,0.332l0.2,5.003L2098.6,204.467z M2224.602,204.785c-0.684,0.055-1.745,1.539-1.251,2.039
		c0.58,0.27,1.47,0.246,1.839-0.252C2225.442,206.088,2225.371,205.063,2224.602,204.785z M2147.75,208.735l7.568-0.007
		l-1.936,6.505l-7.372-0.092L2147.75,208.735z M2219.642,208.235c0.4-0.003,0.726,0.318,0.728,0.718
		c0.003,0.402-0.319,0.727-0.719,0.729c-0.4,0.003-0.726-0.318-0.728-0.72C2218.921,208.562,2219.242,208.238,2219.642,208.235z
		 M2181.087,208.685l1.034,8.425c-8.235,3.054-17.102,8.206-24.825,17.618c-1.331-0.079-11.944,0.17-11.944,0.17
		c0.266,0.035,9.718-18.083,10.768-25.928L2181.087,208.685z M2151.118,209.666l-3.455,2.407l2.732,2.873l3.575-2.455
		L2151.118,209.666z M2223.345,209.229c0.738-0.009,1.728,0.075,2.522,0.21c1.281,0.24,1.469,0.264,1.045,1.321
		c-0.566,1.404-1.847,3.938-2.174,4.143c-1.167,0.732-3.806-4.46-2.924-5.366C2222.048,209.35,2222.545,209.238,2223.345,209.229z
		 M2220.037,210.852c0.336-0.03,0.787,0.618,0.923,1.18c0.165,0.681,1.358,2.394,2.108,3.213c0.942,1.029,0.894,1.176-0.446,1.292
		c-1.596,0.137-3.154,0.462-4.051,0.794c-1.391,0.515-1.581,0.405-1.412-1.225C2217.412,213.65,2219.032,210.946,2220.037,210.852z
		 M2218.848,215.934c0.177,0.473,2.333-0.412,2.449-0.983c-0.021-0.256-0.88-1.729-1.391-1.794
		C2219.042,213.298,2218.693,215.263,2218.848,215.934L2218.848,215.934z M2145.817,216.078l7.154,0.022l-2.307,5.91l-7.071,0.027
		L2145.817,216.078z M2149.024,216.848l-3.412,2.19l2.686,2.565l3.267-2.285L2149.024,216.848z M2221.773,217.44
		c0.607-0.01,1.25,0.045,1.386,0.266c0.384,0.622-1.141,4.131-1.141,4.131l-2.514,1.017c-0.55-1.114-1.484-2.266-1.717-3.473
		c-0.092-0.529,0.173-0.724,0.754-1.054C2219.409,217.833,2220.76,217.457,2221.773,217.44z M2215.021,217.77
		c0.4-0.003,0.726,0.319,0.728,0.72s-0.319,0.727-0.719,0.729s-0.726-0.319-0.728-0.72S2214.621,217.772,2215.021,217.77z
		 M2182.402,218.085c0,0,1.602,8.722,1.68,7.761c-11.9,4.57-18.834,11.245-22.098,17.735l-22.382,0.131l4.945-7.784l13.249-0.155
		C2164.15,227.958,2172.011,221.709,2182.402,218.085L2182.402,218.085z M2179.551,220.158l-1.083,3.536l3.359,2.111l1.235-3.797
		L2179.551,220.158z M2216.214,219.987c0.283-0.027,0.567,0.449,1.148,1.465c0.43,0.751,0.997,1.845,0.997,1.845l-0.999,0.378
		c-0.825-2.752-1.559-1.722-1.629,0.714l-1.367,0.556c0,0,0.133-2.349,0.907-3.725
		C2215.716,220.429,2215.964,220.012,2216.214,219.987z M2143.274,222.878l6.936,0.041l-2.861,6.029l-7.054-0.147L2143.274,222.878z
		 M2173.531,223.162l-0.521,4.462l3.74,0.769l0.484-4.242L2173.531,223.162z M2146.227,223.394l-3.413,2.237l2.269,2.944
		l3.281-2.236L2146.227,223.394z M2168.199,227.154l-0.683,4.112l3.51,0.774l0.769-4.136L2168.199,227.154z M2092.045,227.895
		l8.827,8.636l0.88,60.644l-8.664,8.803L2092.045,227.895z M2139.775,229.803c-0.031,0.049,6.997,0.155,6.997,0.155l-2.779,5.094
		l-2.403-0.094l3.147-2.177l-2.044-2.578l-3.234,2.14l1.827,2.609l-4.745-0.071L2139.775,229.803z M2185.024,231.009l2.433,7.853
		l-2.86,0.515l-2.2-7.39C2183.272,231.529,2184.149,231.298,2185.024,231.009z M2162.528,231.647l0.08,4.72l3.824,0.299l0.121-4.427
		L2162.528,231.647z M2181.536,232.276l2.228,7.462l-1.814,0.529l-2.649-7.08C2180.01,232.761,2180.752,232.447,2181.536,232.276
		L2181.536,232.276z M2178.23,233.841l2.847,7.302c-3.857,1.594-7.845,4.977-10.842,8.347c-2.249-1.63-3.567-1.793-4.95-2.157
		C2169.045,240.216,2173.517,236.462,2178.23,233.841z M2135.985,235.953l7.358,0.173l-5.066,7.676l-8.322,0.045L2135.985,235.953z
		 M2157.885,236.095l-0.448,4.472l3.954,2.3l0.569-4.594L2157.885,236.095z M2153.145,236.753l-2.781,2.977l2.996,3.373l2.704-3.561
		L2153.145,236.753z M2146.885,236.948l-3.306,3.072l2.668,3.434l3.018-3.491L2146.885,236.948z M2104.533,240.071l0.714,59.247
		l-12.142,11.922l-0.113-3.187l9.648-10.206c-0.12-20.043-0.315-40.083-0.513-60.123L2104.533,240.071z M2137.03,237.945
		l-3.344,4.622l4.002-0.016l2.871-4.474L2137.03,237.945z M2116.41,266.752c-1.3,4.796-7.398,10.027-7.508,9.94
		c3.064,4.334,3.003,10.539,0.345,13.613c0.012-0.068,4.908,3.941,5.605,6.036c0.391,0.833,0.552,1.85,1.046,2.677
		c0.13,0.218,0.546,0.762,0.546,0.762C2128.258,287.642,2122.501,273.544,2116.41,266.752L2116.41,266.752z M2116.597,268.001
		c11.642,14.252,4.114,27.417,0.109,31.102l-0.778-1.266c8.516-10.029,4.799-22.257-0.239-28.024L2116.597,268.001z
		 M2115.365,270.798c0.078,0.232,0.532,0.905,0.199,0.864l-0.581-0.113L2115.365,270.798z M2115.288,272.396
		c0.251-0.002,0.46,0.075,0.576,0.248c0.238,0.389-0.934,3.692-1.677,2.929c-0.224-0.434-0.489-0.809-0.696-1.259
		c-0.245-0.535-0.088-0.796,0.459-1.335C2114.327,272.609,2114.869,272.399,2115.288,272.396z M2116.954,273.278
		c0.584,0.043,1.427,1.874,1.512,3.185c0.037,0.137-1.973-0.296-2.511-0.905C2116.017,275.02,2116.511,273.65,2116.954,273.278z
		 M2112.447,274.807c3.523,6.969,3.341,12.43,0.312,17.471l-2.412-2.035c1.588-3.829,2.36-7.91-0.39-13.08L2112.447,274.807z
		 M2114.804,276.542c0.24-0.023,0.984,0.081,1.643,0.288c2.332,0.729,2.429,2.25,0.196,3.382c-0.925,0.469-1.215,0.266-1.765-2.059
		C2114.605,277.002,2114.403,276.58,2114.804,276.542z M2119.314,279.19c0.449-0.005,0.661,0.841,0.725,2.304
		c0.061,1.386-0.233,1.498-1.358,0.515c-1.215-1.062-1.426-1.315-0.323-2.203C2118.681,279.546,2119.111,279.194,2119.314,279.19z
		 M2116.159,281.504c0.221-0.021,0.867,0.385,1.497,0.859c1.6,1.202,1.251,2.035-0.552,2.635c-1.249,0.414-1.187,0.465-1.169-1.701
		C2115.943,282.226,2115.875,281.531,2116.159,281.504z M2137.235,283.339c-1.939,0.505-2.743,2.243-2.088,3.799
		c0.298,0.705,0.743,0.708,0.223,1.145c-0.579,0.678-0.878,2.236-0.233,2.8c0.76,0.429,0.949-0.321,0.161,1.149l-14.453,26.966
		l87.812-0.737l-10.683-19.698c0.024-0.027,0.823-3.267-0.869-3.645c-0.544-0.121-0.856-0.623-0.97-1.105
		c0.129-1.376-0.499-1.958-1.03-2.665c-8.34,1.234-15.594,0.694-21.593-0.615c-8.64-1.883-14.829-5.204-18.846-6.232
		C2149.127,283.083,2142.449,282.494,2137.235,283.339L2137.235,283.339z M2141.967,283.493c6.803-0.086,14.434,1.947,19.779,4.218
		c5.546,2.249,11.416,3.914,17.34,4.748c4.891,0.583,9.76,0.243,14.431-0.159c0.51-0.08,1.039-0.015,1.422,0.389
		c0.976,1.068,0.32,1.748-2.101,1.986c-3.887,0.348-8.712,0.241-12.996-0.372c-6.781-0.735-13.977-2.737-20.192-5.264
		c-7.764-2.855-14.883-3.782-20.5-2.887c-3.084,0.491-3.536,0.566-3.53-0.262C2135.633,284.271,2136.967,283.524,2141.967,283.493
		L2141.967,283.493z M2119.702,288.33c-0.294,0.686-2.424-1.543-2.408-2.176c0.043-0.28,1.749-1.408,2.426-1.867
		c0.327-0.254,0.306-0.123,0.312,0.174C2120.051,285.307,2119.998,287.491,2119.702,288.33z M2116.434,286.696
		c0.977,0.124,2.6,2.751,1.189,3.168c-1.25,0.371-2.387,0.611-2.545-0.228c0.631-2.067,0.868-2.885,1.241-2.934
		C2116.356,286.696,2116.397,286.696,2116.434,286.696L2116.434,286.696z M2173.278,295.328c6.24,1.037,14.426,1.628,19.771,1.175
		c3.063-0.329,3.709-0.233,3.699,1.044c-0.007,0.801,0.081,0.781-3.876,0.803c-3.287,0.24-6.249-0.092-9.433-0.235
		c-6.588-0.285-12.579-1.375-18.122-3.258c-6.145-1.55-11.48-4.573-17.487-5.165c-5.509-0.505-10.456,0.502-11.491,1.087
		c-0.346-0.004-0.531-0.516-0.513-0.989c0.018-0.465,0.187-0.837,0.573-1.135C2152.151,284.569,2160.656,293.041,2173.278,295.328
		L2173.278,295.328z M2118.52,290.414c0.525,0.002,0.364,0.781-0.486,2.435c-0.722,1.407-1.011,1.401-1.434-0.034
		c-0.452-1.534-0.411-1.704,0.465-1.935C2117.581,290.755,2118.015,290.482,2118.52,290.414z M2114.842,291.22
		c0.616,0.006,1.51,2.791,1.064,3.319c-0.352,0.416-1.637,0.144-2.015-0.344C2113.284,293.41,2114.04,291.213,2114.842,291.22z
		 M2142.435,291.793c2.448-0.041,4.89,0.206,7.135,0.576c-1.288,0.485-2.57,0.935-3.907,1.719
		C2144.731,293.298,2143.675,292.529,2142.435,291.793z M2145.638,295.161c8.619-4.881,12.314,1.755,13.572,2.819
		c7.552-1.723,9.038-0.907,13.288,3.622c7.549-3.751,11.24-0.628,14.414,1.343c3.686-3.489,8.388-3.616,10.849-1.893
		c0.464,0.765,1.107,1.733,1.161,2.022c0.042,0.226-0.306-0.035-1.162-0.639c-4.468-3.152-11.823,0.859-9.823,5.041
		c0.538,1.127,0.457,1.614-0.334,2.073c-1.124,0.771-2.517-0.485-1.74-1.784c1.299-2.167,0.298-3.967-2.904-5.614
		c-4.513-2.322-11.844,0.361-10.309,3.818c0.975,1.101,0.083,1.888-1.195,1.857c-1.446-0.035-1.942-1.001-1.022-2.04
		c1.149-1.328,0.836-2.666-0.521-4.182c-4.077-5.725-12.233-3.391-11.118,1.643c0.483,1.249-0.865,1.764-2.271,1.216
		c-0.894-0.35-0.769-1.729,0.203-2.222c1.122-0.121,1.271-1.749,1.13-2.793c-0.204-1.518-2.456-3.002-4.678-3.782
		c-1.608-0.564-3.099-0.677-4.275-0.562c-2.482,0.243-3.856,1.939-3.432,4.464c0.252,1.489-0.156,3.036-1.911,2.229
		c-0.96-0.443-0.727-1.528,0.244-2.533c3.417-3.38-3.534-7.42-7.695-4.579c-0.704,0.587-1.221,0.692-1.221,0.692
		C2137.466,288.835,2145.713,294.893,2145.638,295.161L2145.638,295.161z M2157.025,294.207l5.236,1.933
		c-1.203,0.246-2.049,0.592-2.9,0.935L2157.025,294.207z M2143.396,296.418c-4.826-0.883-5.054,4.506-1.906,5.364
		c-4.282,5.966,7.05,8.196,4.926,0.884c5.741,0.996,4.661-5.523,0.397-5.436c0.981-2.436,8.866-0.646,8.538,1.163
		c-5.319,0.599-3.16,5.433-0.857,5.424c-5.531,5.306,5.637,10.088,5.29,2.149c4.475,0.91,4.961-5.025,0.664-5.387
		c1.558-2.223,7.185-0.863,8.759,1.658c-4.43,0.617-4.127,4.51-0.654,5.116c-4.36,5.626,6.476,7.626,5.308,1.123
		c3.886,1.309,5.981-3.879,0.948-5.325c5.126-3.1,10.745,1.434,10.14,1.529c-5.876-0.307-4.668,5.57-0.42,5.222
		c-2.664,6.129,8.054,6.399,5.295,0.079c4.82,0.058,4.361-5.525-0.259-5.868c2.894-2.138,6.171-2.345,8.293-0.377
		c-4.387,1.185-2.527,6.28,1.883,4.837c0.437,4.271,3.907,3.342,3.983,3.212l3.147,5.78l-84.255,0.688l7.104-13.32
		c4.252,0.191,4.073-3.9,3.887-4c2.839,2.001,5.845-3.036,1.701-4.447C2138.664,292.929,2143.695,296.162,2143.396,296.418
		L2143.396,296.418z M2115.965,296.228c-0.175,0.181-0.219,0.289-0.511,0.023C2114.713,295.414,2116.711,295.331,2115.965,296.228z
		 M2133.403,298.337c0.373,0.3,0.123,1.134-0.176,1.421c-0.754,0.817-1.011,0.755-0.352-0.654
		C2133.069,298.679,2133.253,298.332,2133.403,298.337z M2170.319,298.472l4.388,1.03l-2.072,1.185
		C2171.86,299.859,2171.116,299.143,2170.319,298.472z M2184.021,300.146l4.767,0.272c-0.627,0.434-1.242,0.836-2.007,1.621
		C2186.177,301.405,2185.036,300.776,2184.021,300.146z M2199.926,304.9c0.268,0.551,1.333,2.466,1.233,2.517
		C2199.621,307.695,2199.193,305.404,2199.926,304.9z"/>
</g>
</svg>
